<svg xmlns="http://www.w3.org/2000/svg" width="25" height="24" viewBox="0 0 25 24"><g><g><path fill="#fff" d="M21.429 24H3.57C1.6 24 0 22.388 0 20.4V6C0 4.012 1.599 2.4 3.57 2.4h2.381V.6c0-.332.267-.6.595-.6h1.191c.329 0 .595.268.595.6v1.8h8.334V.6c0-.332.266-.6.595-.6h1.19c.329 0 .596.268.596.6v1.8h2.38C23.402 2.4 25 4.012 25 6v14.4c0 1.988-1.6 3.6-3.571 3.6zm1.19-16.8a2.39 2.39 0 0 0-2.381-2.4h-1.19v.6c0 .33-.267.6-.596.6h-1.19a.598.598 0 0 1-.595-.6v-.6H8.333v.6c0 .33-.266.6-.595.6h-1.19a.598.598 0 0 1-.596-.6v-.6h-1.19A2.39 2.39 0 0 0 2.38 7.2v12a2.39 2.39 0 0 0 2.38 2.4h15.477a2.39 2.39 0 0 0 2.38-2.4zM19.048 18h-1.191c-.657 0-1.19-.537-1.19-1.2v-1.2c0-.663.533-1.2 1.19-1.2h1.19c.658 0 1.19.537 1.19 1.2v1.2c.001.663-.532 1.2-1.19 1.2zm0-6h-1.191c-.657 0-1.19-.537-1.19-1.2V9.6c0-.663.533-1.2 1.19-1.2h1.19c.658 0 1.19.537 1.19 1.2v1.2c.001.663-.532 1.2-1.19 1.2zm-5.953 6h-1.19c-.658 0-1.19-.537-1.19-1.2v-1.2c0-.663.532-1.2 1.19-1.2h1.19c.658 0 1.19.537 1.19 1.2v1.2c0 .663-.532 1.2-1.19 1.2zm0-6h-1.19c-.658 0-1.19-.537-1.19-1.2V9.6c0-.663.532-1.2 1.19-1.2h1.19c.658 0 1.19.537 1.19 1.2v1.2c0 .663-.532 1.2-1.19 1.2zm-5.952 6h-1.19c-.658 0-1.191-.537-1.191-1.2v-1.2c0-.663.533-1.2 1.19-1.2h1.19c.658 0 1.191.537 1.191 1.2v1.2c0 .663-.533 1.2-1.19 1.2zm0-6h-1.19c-.658 0-1.191-.537-1.191-1.2V9.6c0-.663.533-1.2 1.19-1.2h1.19c.658 0 1.191.537 1.191 1.2v1.2c0 .663-.533 1.2-1.19 1.2z"/></g></g></svg>