<svg xmlns="http://www.w3.org/2000/svg" width="74" height="98" viewBox="0 0 74 98"><defs><linearGradient id="8gv6a" x1="62.96" x2="11.03" y1="98.03" y2="0" gradientUnits="userSpaceOnUse"><stop offset="0" stop-color="#137893"/><stop offset=".43" stop-color="#137893"/><stop offset=".83" stop-color="#7bb5c5"/><stop offset="1" stop-color="#7bb5c5"/></linearGradient></defs><g><g><path fill="url(#8gv6a)" d="M73.959 0l-.777.477-.13.546s-.224 1.468-.419 2.151c-.19.683-.367 1.35-.537 2.003-.15 1.026-.716 2.356-1.69 3.999-.374.465-.635.337-.774-.39 1.372-4.753 1.508-6.487.408-5.202-.888 1.156-1.809 2.612-2.763 4.357-.294.88-1.223 2.594-2.78 5.15-1.314 2.584-3.995 6.904-8.036 12.965-4.443 7.007-6.868 12.198-7.273 15.576-.297 2.733-.169 5.547.386 8.447a54.194 54.194 0 0 1 1.275 8.032c.12.624-.177 1.053-.89 1.29-.577.331-.947.106-1.096-.673-.415-2.172-1.6-4.872-3.563-8.09a74.04 74.04 0 0 0-2.745-4.258A232.385 232.385 0 0 0 39.67 42.3c-1.356-1.59-3.368-3.722-6.04-6.384a118.98 118.98 0 0 1-4.345-4.155 1529.087 1529.087 0 0 0-2.995-3.035c-3.458-3.422-5.353-5.247-5.692-5.475-.892-1.01-2.091-3.151-3.595-6.42-.475.267-.819.915-1.033 1.938l-.298 2.1c-.195 1.399.276 3.117 1.424 5.155 1.445 2.328 2.334 3.923 2.671 4.78-6.587-6.031-7.5-5.61-2.74 1.26.225.241.946.823 2.174 1.742 1.62.823 1.875 1.085.765.785-.59-.038-1.714-.412-3.372-1.131-1.443-.838-2.64-1.261-3.576-1.266-.397.045-.24.399.466 1.062.572.517 1.073.99 1.502 1.417-.143-.14.066.207.635 1.039.909 1.064 3.281 2.332 7.13 3.804.789.445-.076.514-2.59.21-2.61-.498-4.342-.703-5.202-.607-2.914.327-2.542.76 1.127 1.302 3.876.413 5.359 1.123 4.435 2.122-.507.375-1.193.61-2.053.706-.628.07-1.303.36-2.027.865-.987.639-.913 1.026.223 1.165 1.023.152 1.706.204 2.046.166 1.693-.028 2.552.033 2.581.187.02.103-.157.389-.54.856.066-.589-.233.16-.886 2.241-.338 1.257.09 1.814 1.289 1.68 1.162-.026 1.349.482.554 1.523-.717 1.142.187 1.279 2.709.41-.273.722-.627 1.452-1.075 2.188.02.102 1.002.044 2.948-.174.175-.02.133.223-.123.728-.174.6.168.853 1.023.757 1.585.036 2.499.224 2.738.569.306.389 1.068.385 2.274-.017.289-.032.3.495.04 1.581.31-.825.208-.152-.313 2.02-.247 1.457.176 1.99 1.27 1.6.174-.018.688-.523 1.549-1.52.85-1.048 1.267-1.623 1.247-1.726.048 2.061.744 3.888 2.1 5.479.495.74 1.306.858 2.436.36 1.323-.73 1.434-.451.333.834-2.295.21-3.742.424-4.346.649-.15.122-.341.276-.57.459a3.41 3.41 0 0 1-.826.488c-.516.324-.792.727-.82 1.206-.082.485-.181.735-.294.747-1.413 1.163-2.18 1.883-2.305 2.163-.044.377.491 1.03 1.606 1.963.037-.11.028-.294-.022-.555-.05-.257-.022-.445.07-.565a6.47 6.47 0 0 1 2.154-1.113c-.24.56-.676 1.19-1.304 1.894a9.24 9.24 0 0 0 1.955-.776c.352-.301.585-.46.698-.474 1.776-.199 2.978.119 3.599.944.656.984 1.398 1.643 2.219 1.975 2.408 1.263 4.203 2.862 5.387 4.79 1.508 2.055 2.135 3.518 1.893 4.393-.217 1.614-1.753 2.577-4.615 2.898-2.843.423-3.848 1.436-3.017 3.033.467.9 1.051 1.205 1.754.917.623-.122.815.414.57 1.603-.28 1.565.008 2.299.863 2.203 1.076-.173 1.767-.222 2.075-.152.394.223.572.545.532.97-.09.437.043.66.391.67.844.119 1.498.022 1.963-.297.753-.35 1.17-.293 1.259.173.291.92 1.859 1.168 4.702.744.86-.096 4.48.482 7.442.685 5.65.36 10.391 1.103 9.941 1.103-29.982 0-67.07.268-67.07.268-3.712 0-6.722-2.85-6.722-6.365V6.365c0-3.3 2.652-6.013 6.046-6.334A7.24 7.24 0 0 1 6.748 0"/></g></g></svg>