<svg xmlns="http://www.w3.org/2000/svg" width="37" height="36" viewBox="0 0 37 36"><g><g><path fill="#84b5c2" d="M18.464 36C8.521 36 .46 27.94.46 18 .46 8.058 8.52-.001 18.464-.001s18.005 8.06 18.005 18c0 9.942-8.06 18-18.005 18zm-2.14-21.882v-4.069c0-.633-.226-1.175-.678-1.627-.452-.452-.995-.579-1.627-.579-.634 0-1.18.127-1.641.579a2.199 2.199 0 0 0-.692 1.627v10.302c0 1.897.678 3.52 2.034 4.867 1.356 1.346 2.984 2.02 4.882 2.02h5.009a2.22 2.22 0 0 0 1.627-.678c.452-.452.578-.995.578-1.627 0-.633-.126-1.076-.578-1.528-.452-.451-.995-.578-1.627-.578l-5.036-.1c-.615 0-1.148-.225-1.6-.677-.452-.452-.678-1.085-.678-1.7v-1.822h7.314a2.22 2.22 0 0 0 1.627-.678c.452-.452.578-.895.578-1.527 0-.633-.126-1.076-.578-1.528a2.222 2.222 0 0 0-1.627-.677z"/></g></g></svg>