<svg xmlns="http://www.w3.org/2000/svg" width="35" height="22" viewBox="0 0 35 22"><defs><mask id="j149b" width="2" height="2" x="-1" y="-1"><path fill="#fff" d="M2 0h31v18H2z"/><path d="M17.17 17.915h1.853s.56-.062.846-.376c.263-.288.255-.828.255-.828s-.036-2.53 1.118-2.903c1.138-.368 2.6 2.446 4.148 3.527 1.172.818 2.062.64 2.062.64l4.141-.06s2.167-.136 1.14-1.869c-.085-.141-.599-1.282-3.08-3.625-2.597-2.452-2.25-2.055.88-6.297 1.904-2.583 2.666-4.16 2.428-4.836-.227-.643-1.628-.473-1.628-.473L26.67.844s-.346-.048-.603.108c-.25.153-.411.51-.411.51s-.738 1.998-1.723 3.699c-2.076 3.586-2.906 3.776-3.246 3.553-.79-.52-.592-2.085-.592-3.198 0-3.477.518-4.926-1.01-5.301-.506-.125-.88-.207-2.176-.22-1.664-.018-3.072.005-3.87.402-.53.264-.94.853-.69.887.308.042 1.006.192 1.376.704.478.662.461 2.147.461 2.147s.275 4.093-.64 4.6c-.63.35-1.492-.363-3.343-3.617-.948-1.667-1.664-3.51-1.664-3.51s-.138-.344-.385-.529C7.855.856 7.438.785 7.438.785l-4.432.03s-.665.018-.909.313c-.217.262-.017.803-.017.803S5.549 10.19 9.477 14.35c3.602 3.816 7.693 3.565 7.693 3.565z"/></mask><filter id="j149a" width="55" height="44" x="-10" y="-12" filterUnits="userSpaceOnUse"><feOffset dy="2" in="SourceGraphic" result="FeOffset1151Out"/><feGaussianBlur in="FeOffset1151Out" result="FeGaussianBlur1152Out" stdDeviation="0.8 0.8"/></filter><linearGradient id="j149c" x1="17.01" x2="18" y1="17.99" y2="-.01" gradientUnits="userSpaceOnUse"><stop offset="0" stop-color="#ccc"/><stop offset=".15" stop-color="#dbdbdb"/><stop offset=".65" stop-color="#fff"/><stop offset="1" stop-color="#fff"/></linearGradient><clipPath id="j149d"><path fill="#fff" d="M17.17 17.915h1.853s.56-.062.846-.376c.263-.288.255-.828.255-.828s-.036-2.53 1.118-2.903c1.138-.368 2.6 2.446 4.148 3.527 1.172.818 2.062.64 2.062.64l4.141-.06s2.167-.136 1.14-1.869c-.085-.141-.599-1.282-3.08-3.625-2.597-2.452-2.25-2.055.88-6.297 1.904-2.583 2.666-4.16 2.428-4.836-.227-.643-1.628-.473-1.628-.473L26.67.844s-.346-.048-.603.108c-.25.153-.411.51-.411.51s-.738 1.998-1.723 3.699c-2.076 3.586-2.906 3.776-3.246 3.553-.79-.52-.592-2.085-.592-3.198 0-3.477.518-4.926-1.01-5.301-.506-.125-.88-.207-2.176-.22-1.664-.018-3.072.005-3.87.402-.53.264-.94.853-.69.887.308.042 1.006.192 1.376.704.478.662.461 2.147.461 2.147s.275 4.093-.64 4.6c-.63.35-1.492-.363-3.343-3.617-.948-1.667-1.664-3.51-1.664-3.51s-.138-.344-.385-.529C7.855.856 7.438.785 7.438.785l-4.432.03s-.665.018-.909.313c-.217.262-.017.803-.017.803S5.549 10.19 9.477 14.35c3.602 3.816 7.693 3.565 7.693 3.565z"/></clipPath></defs><g><g><g filter="url(#j149a)"><path fill="none" d="M17.17 17.915h1.853s.56-.062.846-.376c.263-.288.255-.828.255-.828s-.036-2.53 1.118-2.903c1.138-.368 2.6 2.446 4.148 3.527 1.172.818 2.062.64 2.062.64l4.141-.06s2.167-.136 1.14-1.869c-.085-.141-.599-1.282-3.08-3.625-2.597-2.452-2.25-2.055.88-6.297 1.904-2.583 2.666-4.16 2.428-4.836-.227-.643-1.628-.473-1.628-.473L26.67.844s-.346-.048-.603.108c-.25.153-.411.51-.411.51s-.738 1.998-1.723 3.699c-2.076 3.586-2.906 3.776-3.246 3.553-.79-.52-.592-2.085-.592-3.198 0-3.477.518-4.926-1.01-5.301-.506-.125-.88-.207-2.176-.22-1.664-.018-3.072.005-3.87.402-.53.264-.94.853-.69.887.308.042 1.006.192 1.376.704.478.662.461 2.147.461 2.147s.275 4.093-.64 4.6c-.63.35-1.492-.363-3.343-3.617-.948-1.667-1.664-3.51-1.664-3.51s-.138-.344-.385-.529C7.855.856 7.438.785 7.438.785l-4.432.03s-.665.018-.909.313c-.217.262-.017.803-.017.803S5.549 10.19 9.477 14.35c3.602 3.816 7.693 3.565 7.693 3.565z" mask="url(&quot;#j149b&quot;)"/><path fill="#090c12" fill-opacity=".32" d="M17.17 17.915h1.853s.56-.062.846-.376c.263-.288.255-.828.255-.828s-.036-2.53 1.118-2.903c1.138-.368 2.6 2.446 4.148 3.527 1.172.818 2.062.64 2.062.64l4.141-.06s2.167-.136 1.14-1.869c-.085-.141-.599-1.282-3.08-3.625-2.597-2.452-2.25-2.055.88-6.297 1.904-2.583 2.666-4.16 2.428-4.836-.227-.643-1.628-.473-1.628-.473L26.67.844s-.346-.048-.603.108c-.25.153-.411.51-.411.51s-.738 1.998-1.723 3.699c-2.076 3.586-2.906 3.776-3.246 3.553-.79-.52-.592-2.085-.592-3.198 0-3.477.518-4.926-1.01-5.301-.506-.125-.88-.207-2.176-.22-1.664-.018-3.072.005-3.87.402-.53.264-.94.853-.69.887.308.042 1.006.192 1.376.704.478.662.461 2.147.461 2.147s.275 4.093-.64 4.6c-.63.35-1.492-.363-3.343-3.617-.948-1.667-1.664-3.51-1.664-3.51s-.138-.344-.385-.529C7.855.856 7.438.785 7.438.785l-4.432.03s-.665.018-.909.313c-.217.262-.017.803-.017.803S5.549 10.19 9.477 14.35c3.602 3.816 7.693 3.565 7.693 3.565z"/></g><path fill="#fff" d="M17.17 17.915h1.853s.56-.062.846-.376c.263-.288.255-.828.255-.828s-.036-2.53 1.118-2.903c1.138-.368 2.6 2.446 4.148 3.527 1.172.818 2.062.64 2.062.64l4.141-.06s2.167-.136 1.14-1.869c-.085-.141-.599-1.282-3.08-3.625-2.597-2.452-2.25-2.055.88-6.297 1.904-2.583 2.666-4.16 2.428-4.836-.227-.643-1.628-.473-1.628-.473L26.67.844s-.346-.048-.603.108c-.25.153-.411.51-.411.51s-.738 1.998-1.723 3.699c-2.076 3.586-2.906 3.776-3.246 3.553-.79-.52-.592-2.085-.592-3.198 0-3.477.518-4.926-1.01-5.301-.506-.125-.88-.207-2.176-.22-1.664-.018-3.072.005-3.87.402-.53.264-.94.853-.69.887.308.042 1.006.192 1.376.704.478.662.461 2.147.461 2.147s.275 4.093-.64 4.6c-.63.35-1.492-.363-3.343-3.617-.948-1.667-1.664-3.51-1.664-3.51s-.138-.344-.385-.529C7.855.856 7.438.785 7.438.785l-4.432.03s-.665.018-.909.313c-.217.262-.017.803-.017.803S5.549 10.19 9.477 14.35c3.602 3.816 7.693 3.565 7.693 3.565z"/><path fill="url(#j149c)" d="M17.17 17.915h1.853s.56-.062.846-.376c.263-.288.255-.828.255-.828s-.036-2.53 1.118-2.903c1.138-.368 2.6 2.446 4.148 3.527 1.172.818 2.062.64 2.062.64l4.141-.06s2.167-.136 1.14-1.869c-.085-.141-.599-1.282-3.08-3.625-2.597-2.452-2.25-2.055.88-6.297 1.904-2.583 2.666-4.16 2.428-4.836-.227-.643-1.628-.473-1.628-.473L26.67.844s-.346-.048-.603.108c-.25.153-.411.51-.411.51s-.738 1.998-1.723 3.699c-2.076 3.586-2.906 3.776-3.246 3.553-.79-.52-.592-2.085-.592-3.198 0-3.477.518-4.926-1.01-5.301-.506-.125-.88-.207-2.176-.22-1.664-.018-3.072.005-3.87.402-.53.264-.94.853-.69.887.308.042 1.006.192 1.376.704.478.662.461 2.147.461 2.147s.275 4.093-.64 4.6c-.63.35-1.492-.363-3.343-3.617-.948-1.667-1.664-3.51-1.664-3.51s-.138-.344-.385-.529C7.855.856 7.438.785 7.438.785l-4.432.03s-.665.018-.909.313c-.217.262-.017.803-.017.803S5.549 10.19 9.477 14.35c3.602 3.816 7.693 3.565 7.693 3.565z"/><path fill="none" stroke="#e3e3e3" stroke-linecap="round" stroke-linejoin="round" stroke-miterlimit="20" stroke-width="2" d="M17.17 17.915v0h1.853v0s.56-.062.846-.376c.263-.288.255-.828.255-.828v0s-.036-2.53 1.118-2.903c1.138-.368 2.6 2.446 4.148 3.527 1.172.818 2.062.64 2.062.64v0l4.141-.06v0s2.167-.136 1.14-1.869c-.085-.141-.599-1.282-3.08-3.625-2.597-2.452-2.25-2.055.88-6.297 1.904-2.583 2.666-4.16 2.428-4.836-.227-.643-1.628-.473-1.628-.473v0L26.67.844v0s-.346-.048-.603.108c-.25.153-.411.51-.411.51v0s-.738 1.998-1.723 3.699c-2.076 3.586-2.906 3.776-3.246 3.553-.79-.52-.592-2.085-.592-3.198 0-3.477.518-4.926-1.01-5.301-.506-.125-.88-.207-2.176-.22-1.664-.018-3.072.005-3.87.402-.53.264-.94.853-.69.887.308.042 1.006.192 1.376.704.478.662.461 2.147.461 2.147v0s.275 4.093-.64 4.6c-.63.35-1.492-.363-3.343-3.617-.948-1.667-1.664-3.51-1.664-3.51v0s-.138-.344-.385-.529C7.855.856 7.438.785 7.438.785v0l-4.432.03v0s-.665.018-.909.313c-.217.262-.017.803-.017.803v0S5.549 10.19 9.477 14.35c3.602 3.816 7.693 3.565 7.693 3.565z" clip-path="url(&quot;#j149d&quot;)"/></g></g></svg>