<svg xmlns="http://www.w3.org/2000/svg" width="60" height="36" viewBox="0 0 60 36"><defs><clipPath id="jj00a"><path fill="#fff" d="M0 35.998V.002h60v35.996zm59-2.155l-2.513.085-1.325.059-1.559-.005c-.555.006-1.15-.105-1.774-.158-.156-.016-.314-.035-.473-.052l-.483-.145c-.162-.054-.328-.083-.493-.162-.166-.085-.334-.174-.503-.262-.677-.347-1.377-.889-2.103-1.436-.727-.547-1.476-1.15-2.265-1.559-.197-.098-.397-.217-.596-.3l-.6-.176c-.103-.028-.197-.064-.308-.084a41.087 41.087 0 0 1-.306-.028l-.618-.057c-.414-.061-.832-.023-1.254-.01-.423-.002-.848.058-1.277.12-1.715.234-3.48.777-5.267 1.403-.447.16-.895.318-1.345.478a15.85 15.85 0 0 0-1.355.537c-.904.423-1.799.984-2.698 1.327-.893.386-1.804.387-2.716.439l-1.36.06c-.453.028-.9-.022-1.347-.03a2.951 2.951 0 0 1-.672-.087l-.67-.13c-.11-.025-.228-.035-.33-.072l-.327-.134c-.109-.048-.218-.084-.327-.138l-.324-.195c-.865-.521-1.71-1.295-2.548-2.03-.838-.735-1.667-1.447-2.497-1.825a5.79 5.79 0 0 0-2.432-.503c-.79-.005-1.555.14-2.292.3-.367.063-.733.206-1.09.332-.353.192-.7.364-1.036.613-1.345.937-2.541 2.099-3.647 2.51-1.102.468-2.067.764-2.865.826-.796.061-1.43-.082-1.844-.489a1.855 1.855 0 0 1-.444-.71l-.055-.168-.033-.145-.027-.117a19.613 19.613 0 0 0 .058.267l.054.174c.086.256.235.54.443.758.415.445 1.05.665 1.85.65.802-.006 1.773-.236 2.879-.626.28-.114.561-.22.854-.378.293-.171.595-.342.9-.563.611-.413 1.247-.94 1.916-1.361.334-.233.677-.388 1.027-.563.352-.108.707-.234 1.077-.28.737-.13 1.497-.24 2.28-.202a5.852 5.852 0 0 1 2.397.596c.811.416 1.632 1.113 2.464 1.86.835.745 1.687 1.538 2.568 2.082l.33.203c.112.058.224.098.336.148l.336.141c.12.043.225.052.339.08l.67.139c.224.05.448.099.675.098.453.014.91.071 1.363.05l1.364-.042c.908-.039 1.83-.024 2.748-.406.913-.357 1.81-.938 2.704-1.368a15.41 15.41 0 0 1 1.345-.55l1.343-.497c1.784-.653 3.541-1.218 5.247-1.474.427-.068.85-.133 1.27-.138.419-.014.834-.065 1.245-.025l.614.03c.102.004.203.01.304.015.091.012.2.047.298.069l.6.15c.197.074.39.183.583.27.773.367 1.525.936 2.252 1.452.729.516 1.434 1.031 2.12 1.353l.508.245c.168.07.336.093.5.141l.49.126.476.024c.626.009 1.218.08 1.776.033l1.561-.105c.482-.054.924-.106 1.324-.15l2.51-.307zm-5.347-3.066c.244.139.496.229.743.345-.243-.14-.491-.253-.729-.412l-.353-.26c-.117-.086-.236-.166-.347-.276l-.338-.308a3.465 3.465 0 0 1-.331-.327l-.324-.35a3.909 3.909 0 0 1-.316-.366l-.308-.388-.153-.194-.145-.211-.289-.425-.144-.214-.132-.23c-.175-.311-.36-.591-.517-.948l-.244-.51c-.072-.151-.15-.346-.224-.518a61.877 61.877 0 0 1-.436-1.078 38.687 38.687 0 0 1-.977-2.8 25.852 25.852 0 0 1-.473-1.761l-.132-.6-.114-.606c-.034-.203-.061-.406-.094-.609-.028-.202-.043-.408-.066-.612-.017-.204-.02-.407-.03-.61 0-.202.012-.4.016-.602l.024-1.231-.453.905c-.685 1.368-1.198 2.903-1.83 4.209-.316.646-.676 1.244-1.058 1.717-.097.118-.218.249-.31.353l-.325.34c-.216.225-.432.447-.651.652-.437.415-.885.787-1.347 1.045-.46.254-.94.375-1.387.242-.115-.017-.218-.096-.326-.149-.106-.06-.19-.157-.288-.227l-.155-.19-.078-.097-.038-.046-.003-.006-.016-.026-.26-.43a13.718 13.718 0 0 1-.89-2.016c-.27-.721-.51-1.485-.754-2.251-.242-.776-.496-1.544-.746-2.298a101.861 101.861 0 0 1-1.392-4.638 80.302 80.302 0 0 1-.609-2.385 60.927 60.927 0 0 1-.532-2.433c-.082-.41-.155-.823-.23-1.235-.063-.417-.141-.828-.194-1.249a33.92 33.92 0 0 1-.267-2.526l-.07-.94-.357.705c-.275.54-.481 1.143-.66 1.75a38.504 38.504 0 0 0-.475 1.84c-.147.612-.29 1.221-.446 1.808a19.52 19.52 0 0 1-.247.851c-.043.137-.097.283-.144.424l-.154.404-.63 1.648c-.21.55-.417 1.102-.632 1.648l-1.322 3.246-1.326 3.222-1.385 3.168c-.11.234-.242.488-.361.73-.123.244-.258.469-.386.704-.131.231-.273.444-.409.669-.14.216-.285.423-.427.635-.294.414-.594.817-.898 1.217-.26.34-.518.685-.776 1.032l-.415-.46-.55-.639-.54-.66-.528-.684-.516-.71-.5-.74-.482-.772-.462-.805-.438-.842-.41-.877-.38-.917-.345-.952c-.101-.33-.207-.658-.306-.99-.087-.341-.179-.68-.263-1.022l-.219-1.053-.171-1.078-.147-.924-.295.783-.533 1.413-.51 1.427-.504 1.423c-.175.463-.336.945-.52 1.393-.186.448-.356.916-.556 1.34-.195.43-.377.884-.587 1.28l-.305.617a2.852 2.852 0 0 1-.164.3l-.173.292-.347.585-.08.135-.09.138-.181.274a36.91 36.91 0 0 1-1.496 2.098c-.127.168-.257.331-.388.492-.13.163-.261.324-.395.477-.264.315-.535.614-.81.902a14.533 14.533 0 0 1-1.71 1.543l-.446.319-.455.282-.464.243-.472.2.478-.155.473-.198.467-.24.46-.276c.305-.2.606-.412.901-.65.294-.24.586-.491.87-.762.287-.269.569-.55.845-.847.14-.145.277-.296.412-.452.137-.15.273-.305.407-.466a34.91 34.91 0 0 0 1.57-2.001l.19-.264.096-.131.097-.15.362-.556.181-.28c.061-.09.12-.184.177-.293l.342-.627c.239-.41.434-.863.637-1.31.209-.443.377-.926.564-1.389l.064-.17-.145 2.231 1.008-2.839-.006 4.965.77-4.894.566 2.232.195-2.348.275.273-.211-1.248.118.377c.118.335.24.666.361 1l.397.957.428.914.454.873.477.832.497.796.514.76.528.728.54.7.55.67.56.65.565.629.145.16.139-.187c.3-.404.603-.807.909-1.207.306-.402.611-.812.912-1.238.148-.22.299-.433.444-.66.142-.233.29-.456.427-.698.135-.246.276-.482.405-.737.128-.261.254-.501.385-.782l1.385-3.167 1.338-3.25 1.322-3.247c.216-.548.425-1.107.638-1.66l.593-1.553-.452 2.24.851-2.085.528 3.826.018-3.747 1.424 6.327-.502-6.73.892 2.07.096-1.969c.032.141.062.284.096.423a81.949 81.949 0 0 0 1.299 4.792c.233.784.48 1.555.728 2.325.255.766.504 1.52.744 2.288.245.768.489 1.546.769 2.3.271.757.586 1.488.954 2.153l.292.48.018.03.005.009c-.012-.017.021.03.02.026l.01.013.038.047.078.096.156.191c.132.113.266.253.402.331.135.07.27.164.41.188.56.166 1.117.01 1.622-.269.508-.283.98-.68 1.435-1.109.227-.214.449-.442.668-.668l.327-.343c.121-.136.216-.239.327-.372.068-.084.13-.172.194-.259l-.351 1.502.95-1.116.353 3.43.453-2.471.86 2.903.122-4.125.78 1.757-.074-2.058.469.451.005.016a36.71 36.71 0 0 0 .875 2.207c.154.357.31.709.47 1.057.085.175.155.34.25.524l.258.49c.162.336.37.63.559.938l.145.227.153.207.306.41.154.206.161.184.323.37c.106.128.217.24.331.345l.338.326c.11.113.228.206.345.297l.351.28c.115.099.238.169.358.245z"/></clipPath><clipPath id="jj00b"><path fill="#fff" d="M59 33.843l-2.513.085-1.325.059-1.559-.005c-.555.006-1.15-.105-1.774-.158-.156-.016-.314-.035-.473-.052l-.483-.145c-.162-.054-.328-.083-.493-.162-.166-.085-.334-.174-.503-.262-.677-.347-1.377-.889-2.103-1.436-.727-.547-1.476-1.15-2.265-1.559-.197-.098-.397-.217-.596-.3l-.6-.176c-.103-.028-.197-.064-.308-.084a41.087 41.087 0 0 1-.306-.028l-.618-.057c-.414-.061-.832-.023-1.254-.01-.423-.002-.848.058-1.277.12-1.715.234-3.48.777-5.267 1.403-.447.16-.895.318-1.345.478a15.85 15.85 0 0 0-1.355.537c-.904.423-1.799.984-2.698 1.327-.893.386-1.804.387-2.716.439l-1.36.06c-.453.028-.9-.022-1.347-.03a2.951 2.951 0 0 1-.672-.087l-.67-.13c-.11-.025-.228-.035-.33-.072l-.327-.134c-.109-.048-.218-.084-.327-.138l-.324-.195c-.865-.521-1.71-1.295-2.548-2.03-.838-.735-1.667-1.447-2.497-1.825a5.79 5.79 0 0 0-2.432-.503c-.79-.005-1.555.14-2.292.3-.367.063-.733.206-1.09.332-.353.192-.7.364-1.036.613-1.345.937-2.541 2.099-3.647 2.51-1.102.468-2.067.764-2.865.826-.796.061-1.43-.082-1.844-.489a1.855 1.855 0 0 1-.444-.71l-.055-.168-.033-.145-.027-.117a19.613 19.613 0 0 0 .058.267l.054.174c.086.256.235.54.443.758.415.445 1.05.665 1.85.65.802-.006 1.773-.236 2.879-.626.28-.114.561-.22.854-.378.293-.171.595-.342.9-.563.611-.413 1.247-.94 1.916-1.361.334-.233.677-.388 1.027-.563.352-.108.707-.234 1.077-.28.737-.13 1.497-.24 2.28-.202a5.852 5.852 0 0 1 2.397.596c.811.416 1.632 1.113 2.464 1.86.835.745 1.687 1.538 2.568 2.082l.33.203c.112.058.224.098.336.148l.336.141c.12.043.225.052.339.08l.67.139c.224.05.448.099.675.098.453.014.91.071 1.363.05l1.364-.042c.908-.039 1.83-.024 2.748-.406.913-.357 1.81-.938 2.704-1.368a15.41 15.41 0 0 1 1.345-.55l1.343-.497c1.784-.653 3.541-1.218 5.247-1.474.427-.068.85-.133 1.27-.138.419-.014.834-.065 1.245-.025l.614.03c.102.004.203.01.304.015.091.012.2.047.298.069l.6.15c.197.074.39.183.583.27.773.367 1.525.936 2.252 1.452.729.516 1.434 1.031 2.12 1.353l.508.245c.168.07.336.093.5.141l.49.126.476.024c.626.009 1.218.08 1.776.033l1.561-.105c.482-.054.924-.106 1.324-.15l2.51-.307zm-5.347-3.066c.244.139.496.229.743.345-.243-.14-.491-.253-.729-.412l-.353-.26c-.117-.086-.236-.166-.347-.276l-.338-.308a3.465 3.465 0 0 1-.331-.327l-.324-.35a3.909 3.909 0 0 1-.316-.366l-.308-.388-.153-.194-.145-.211-.289-.425-.144-.214-.132-.23c-.175-.311-.36-.591-.517-.948l-.244-.51c-.072-.151-.15-.346-.224-.518a61.877 61.877 0 0 1-.436-1.078 38.687 38.687 0 0 1-.977-2.8 25.852 25.852 0 0 1-.473-1.761l-.132-.6-.114-.606c-.034-.203-.061-.406-.094-.609-.028-.202-.043-.408-.066-.612-.017-.204-.02-.407-.03-.61 0-.202.012-.4.016-.602l.024-1.231-.453.905c-.685 1.368-1.198 2.903-1.83 4.209-.316.646-.676 1.244-1.058 1.717-.097.118-.218.249-.31.353l-.325.34c-.216.225-.432.447-.651.652-.437.415-.885.787-1.347 1.045-.46.254-.94.375-1.387.242-.115-.017-.218-.096-.326-.149-.106-.06-.19-.157-.288-.227l-.155-.19-.078-.097-.038-.046-.003-.006-.016-.026-.26-.43a13.718 13.718 0 0 1-.89-2.016c-.27-.721-.51-1.485-.754-2.251-.242-.776-.496-1.544-.746-2.298a101.861 101.861 0 0 1-1.392-4.638 80.302 80.302 0 0 1-.609-2.385 60.927 60.927 0 0 1-.532-2.433c-.082-.41-.155-.823-.23-1.235-.063-.417-.141-.828-.194-1.249a33.92 33.92 0 0 1-.267-2.526l-.07-.94-.357.705c-.275.54-.481 1.143-.66 1.75a38.504 38.504 0 0 0-.475 1.84c-.147.612-.29 1.221-.446 1.808a19.52 19.52 0 0 1-.247.851c-.043.137-.097.283-.144.424l-.154.404-.63 1.648c-.21.55-.417 1.102-.632 1.648l-1.322 3.246-1.326 3.222-1.385 3.168c-.11.234-.242.488-.361.73-.123.244-.258.469-.386.704-.131.231-.273.444-.409.669-.14.216-.285.423-.427.635-.294.414-.594.817-.898 1.217-.26.34-.518.685-.776 1.032l-.415-.46-.55-.639-.54-.66-.528-.684-.516-.71-.5-.74-.482-.772-.462-.805-.438-.842-.41-.877-.38-.917-.345-.952c-.101-.33-.207-.658-.306-.99-.087-.341-.179-.68-.263-1.022l-.219-1.053-.171-1.078-.147-.924-.295.783-.533 1.413-.51 1.427-.504 1.423c-.175.463-.336.945-.52 1.393-.186.448-.356.916-.556 1.34-.195.43-.377.884-.587 1.28l-.305.617a2.852 2.852 0 0 1-.164.3l-.173.292-.347.585-.08.135-.09.138-.181.274a36.91 36.91 0 0 1-1.496 2.098c-.127.168-.257.331-.388.492-.13.163-.261.324-.395.477-.264.315-.535.614-.81.902a14.533 14.533 0 0 1-1.71 1.543l-.446.319-.455.282-.464.243-.472.2.478-.155.473-.198.467-.24.46-.276c.305-.2.606-.412.901-.65.294-.24.586-.491.87-.762.287-.269.569-.55.845-.847.14-.145.277-.296.412-.452.137-.15.273-.305.407-.466a34.91 34.91 0 0 0 1.57-2.001l.19-.264.096-.131.097-.15.362-.556.181-.28c.061-.09.12-.184.177-.293l.342-.627c.239-.41.434-.863.637-1.31.209-.443.377-.926.564-1.389l.064-.17-.145 2.231 1.008-2.839-.006 4.965.77-4.894.566 2.232.195-2.348.275.273-.211-1.248.118.377c.118.335.24.666.361 1l.397.957.428.914.454.873.477.832.497.796.514.76.528.728.54.7.55.67.56.65.565.629.145.16.139-.187c.3-.404.603-.807.909-1.207.306-.402.611-.812.912-1.238.148-.22.299-.433.444-.66.142-.233.29-.456.427-.698.135-.246.276-.482.405-.737.128-.261.254-.501.385-.782l1.385-3.167 1.338-3.25 1.322-3.247c.216-.548.425-1.107.638-1.66l.593-1.553-.452 2.24.851-2.085.528 3.826.018-3.747 1.424 6.327-.502-6.73.892 2.07.096-1.969c.032.141.062.284.096.423a81.949 81.949 0 0 0 1.299 4.792c.233.784.48 1.555.728 2.325.255.766.504 1.52.744 2.288.245.768.489 1.546.769 2.3.271.757.586 1.488.954 2.153l.292.48.018.03.005.009c-.012-.017.021.03.02.026l.01.013.038.047.078.096.156.191c.132.113.266.253.402.331.135.07.27.164.41.188.56.166 1.117.01 1.622-.269.508-.283.98-.68 1.435-1.109.227-.214.449-.442.668-.668l.327-.343c.121-.136.216-.239.327-.372.068-.084.13-.172.194-.259l-.351 1.502.95-1.116.353 3.43.453-2.471.86 2.903.122-4.125.78 1.757-.074-2.058.469.451.005.016a36.71 36.71 0 0 0 .875 2.207c.154.357.31.709.47 1.057.085.175.155.34.25.524l.258.49c.162.336.37.63.559.938l.145.227.153.207.306.41.154.206.161.184.323.37c.106.128.217.24.331.345l.338.326c.11.113.228.206.345.297l.351.28c.115.099.238.169.358.245z"/></clipPath></defs><g><g><path fill="#fff" d="M59 33.843l-2.513.085-1.325.059-1.559-.005c-.555.006-1.15-.105-1.774-.158-.156-.016-.314-.035-.473-.052l-.483-.145c-.162-.054-.328-.083-.493-.162-.166-.085-.334-.174-.503-.262-.677-.347-1.377-.889-2.103-1.436-.727-.547-1.476-1.15-2.265-1.559-.197-.098-.397-.217-.596-.3l-.6-.176c-.103-.028-.197-.064-.308-.084a41.087 41.087 0 0 1-.306-.028l-.618-.057c-.414-.061-.832-.023-1.254-.01-.423-.002-.848.058-1.277.12-1.715.234-3.48.777-5.267 1.403-.447.16-.895.318-1.345.478a15.85 15.85 0 0 0-1.355.537c-.904.423-1.799.984-2.698 1.327-.893.386-1.804.387-2.716.439l-1.36.06c-.453.028-.9-.022-1.347-.03a2.951 2.951 0 0 1-.672-.087l-.67-.13c-.11-.025-.228-.035-.33-.072l-.327-.134c-.109-.048-.218-.084-.327-.138l-.324-.195c-.865-.521-1.71-1.295-2.548-2.03-.838-.735-1.667-1.447-2.497-1.825a5.79 5.79 0 0 0-2.432-.503c-.79-.005-1.555.14-2.292.3-.367.063-.733.206-1.09.332-.353.192-.7.364-1.036.613-1.345.937-2.541 2.099-3.647 2.51-1.102.468-2.067.764-2.865.826-.796.061-1.43-.082-1.844-.489a1.855 1.855 0 0 1-.444-.71l-.055-.168-.033-.145-.027-.117a19.613 19.613 0 0 0 .058.267l.054.174c.086.256.235.54.443.758.415.445 1.05.665 1.85.65.802-.006 1.773-.236 2.879-.626.28-.114.561-.22.854-.378.293-.171.595-.342.9-.563.611-.413 1.247-.94 1.916-1.361.334-.233.677-.388 1.027-.563.352-.108.707-.234 1.077-.28.737-.13 1.497-.24 2.28-.202a5.852 5.852 0 0 1 2.397.596c.811.416 1.632 1.113 2.464 1.86.835.745 1.687 1.538 2.568 2.082l.33.203c.112.058.224.098.336.148l.336.141c.12.043.225.052.339.08l.67.139c.224.05.448.099.675.098.453.014.91.071 1.363.05l1.364-.042c.908-.039 1.83-.024 2.748-.406.913-.357 1.81-.938 2.704-1.368a15.41 15.41 0 0 1 1.345-.55l1.343-.497c1.784-.653 3.541-1.218 5.247-1.474.427-.068.85-.133 1.27-.138.419-.014.834-.065 1.245-.025l.614.03c.102.004.203.01.304.015.091.012.2.047.298.069l.6.15c.197.074.39.183.583.27.773.367 1.525.936 2.252 1.452.729.516 1.434 1.031 2.12 1.353l.508.245c.168.07.336.093.5.141l.49.126.476.024c.626.009 1.218.08 1.776.033l1.561-.105c.482-.054.924-.106 1.324-.15l2.51-.307zm-5.347-3.066c.244.139.496.229.743.345-.243-.14-.491-.253-.729-.412l-.353-.26c-.117-.086-.236-.166-.347-.276l-.338-.308a3.465 3.465 0 0 1-.331-.327l-.324-.35a3.909 3.909 0 0 1-.316-.366l-.308-.388-.153-.194-.145-.211-.289-.425-.144-.214-.132-.23c-.175-.311-.36-.591-.517-.948l-.244-.51c-.072-.151-.15-.346-.224-.518a61.877 61.877 0 0 1-.436-1.078 38.687 38.687 0 0 1-.977-2.8 25.852 25.852 0 0 1-.473-1.761l-.132-.6-.114-.606c-.034-.203-.061-.406-.094-.609-.028-.202-.043-.408-.066-.612-.017-.204-.02-.407-.03-.61 0-.202.012-.4.016-.602l.024-1.231-.453.905c-.685 1.368-1.198 2.903-1.83 4.209-.316.646-.676 1.244-1.058 1.717-.097.118-.218.249-.31.353l-.325.34c-.216.225-.432.447-.651.652-.437.415-.885.787-1.347 1.045-.46.254-.94.375-1.387.242-.115-.017-.218-.096-.326-.149-.106-.06-.19-.157-.288-.227l-.155-.19-.078-.097-.038-.046-.003-.006-.016-.026-.26-.43a13.718 13.718 0 0 1-.89-2.016c-.27-.721-.51-1.485-.754-2.251-.242-.776-.496-1.544-.746-2.298a101.861 101.861 0 0 1-1.392-4.638 80.302 80.302 0 0 1-.609-2.385 60.927 60.927 0 0 1-.532-2.433c-.082-.41-.155-.823-.23-1.235-.063-.417-.141-.828-.194-1.249a33.92 33.92 0 0 1-.267-2.526l-.07-.94-.357.705c-.275.54-.481 1.143-.66 1.75a38.504 38.504 0 0 0-.475 1.84c-.147.612-.29 1.221-.446 1.808a19.52 19.52 0 0 1-.247.851c-.043.137-.097.283-.144.424l-.154.404-.63 1.648c-.21.55-.417 1.102-.632 1.648l-1.322 3.246-1.326 3.222-1.385 3.168c-.11.234-.242.488-.361.73-.123.244-.258.469-.386.704-.131.231-.273.444-.409.669-.14.216-.285.423-.427.635-.294.414-.594.817-.898 1.217-.26.34-.518.685-.776 1.032l-.415-.46-.55-.639-.54-.66-.528-.684-.516-.71-.5-.74-.482-.772-.462-.805-.438-.842-.41-.877-.38-.917-.345-.952c-.101-.33-.207-.658-.306-.99-.087-.341-.179-.68-.263-1.022l-.219-1.053-.171-1.078-.147-.924-.295.783-.533 1.413-.51 1.427-.504 1.423c-.175.463-.336.945-.52 1.393-.186.448-.356.916-.556 1.34-.195.43-.377.884-.587 1.28l-.305.617a2.852 2.852 0 0 1-.164.3l-.173.292-.347.585-.08.135-.09.138-.181.274a36.91 36.91 0 0 1-1.496 2.098c-.127.168-.257.331-.388.492-.13.163-.261.324-.395.477-.264.315-.535.614-.81.902a14.533 14.533 0 0 1-1.71 1.543l-.446.319-.455.282-.464.243-.472.2.478-.155.473-.198.467-.24.46-.276c.305-.2.606-.412.901-.65.294-.24.586-.491.87-.762.287-.269.569-.55.845-.847.14-.145.277-.296.412-.452.137-.15.273-.305.407-.466a34.91 34.91 0 0 0 1.57-2.001l.19-.264.096-.131.097-.15.362-.556.181-.28c.061-.09.12-.184.177-.293l.342-.627c.239-.41.434-.863.637-1.31.209-.443.377-.926.564-1.389l.064-.17-.145 2.231 1.008-2.839-.006 4.965.77-4.894.566 2.232.195-2.348.275.273-.211-1.248.118.377c.118.335.24.666.361 1l.397.957.428.914.454.873.477.832.497.796.514.76.528.728.54.7.55.67.56.65.565.629.145.16.139-.187c.3-.404.603-.807.909-1.207.306-.402.611-.812.912-1.238.148-.22.299-.433.444-.66.142-.233.29-.456.427-.698.135-.246.276-.482.405-.737.128-.261.254-.501.385-.782l1.385-3.167 1.338-3.25 1.322-3.247c.216-.548.425-1.107.638-1.66l.593-1.553-.452 2.24.851-2.085.528 3.826.018-3.747 1.424 6.327-.502-6.73.892 2.07.096-1.969c.032.141.062.284.096.423a81.949 81.949 0 0 0 1.299 4.792c.233.784.48 1.555.728 2.325.255.766.504 1.52.744 2.288.245.768.489 1.546.769 2.3.271.757.586 1.488.954 2.153l.292.48.018.03.005.009c-.012-.017.021.03.02.026l.01.013.038.047.078.096.156.191c.132.113.266.253.402.331.135.07.27.164.41.188.56.166 1.117.01 1.622-.269.508-.283.98-.68 1.435-1.109.227-.214.449-.442.668-.668l.327-.343c.121-.136.216-.239.327-.372.068-.084.13-.172.194-.259l-.351 1.502.95-1.116.353 3.43.453-2.471.86 2.903.122-4.125.78 1.757-.074-2.058.469.451.005.016a36.71 36.71 0 0 0 .875 2.207c.154.357.31.709.47 1.057.085.175.155.34.25.524l.258.49c.162.336.37.63.559.938l.145.227.153.207.306.41.154.206.161.184.323.37c.106.128.217.24.331.345l.338.326c.11.113.228.206.345.297l.351.28c.115.099.238.169.358.245z"/><path fill="none" stroke="#fff" stroke-linecap="round" stroke-linejoin="round" stroke-miterlimit="20" stroke-opacity=".57" stroke-width="2" d="M59 33.843l-2.513.085-1.325.059-1.559-.005c-.555.006-1.15-.105-1.774-.158-.156-.016-.314-.035-.473-.052l-.483-.145c-.162-.054-.328-.083-.493-.162-.166-.085-.334-.174-.503-.262-.677-.347-1.377-.889-2.103-1.436-.727-.547-1.476-1.15-2.265-1.559-.197-.098-.397-.217-.596-.3l-.6-.176c-.103-.028-.197-.064-.308-.084a41.087 41.087 0 0 1-.306-.028l-.618-.057c-.414-.061-.832-.023-1.254-.01-.423-.002-.848.058-1.277.12-1.715.234-3.48.777-5.267 1.403-.447.16-.895.318-1.345.478a15.85 15.85 0 0 0-1.355.537c-.904.423-1.799.984-2.698 1.327-.893.386-1.804.387-2.716.439l-1.36.06c-.453.028-.9-.022-1.347-.03a2.951 2.951 0 0 1-.672-.087l-.67-.13c-.11-.025-.228-.035-.33-.072l-.327-.134c-.109-.048-.218-.084-.327-.138l-.324-.195c-.865-.521-1.71-1.295-2.548-2.03-.838-.735-1.667-1.447-2.497-1.825a5.79 5.79 0 0 0-2.432-.503c-.79-.005-1.555.14-2.292.3-.367.063-.733.206-1.09.332-.353.192-.7.364-1.036.613-1.345.937-2.541 2.099-3.647 2.51-1.102.468-2.067.764-2.865.826-.796.061-1.43-.082-1.844-.489a1.855 1.855 0 0 1-.444-.71l-.055-.168-.033-.145-.027-.117a19.613 19.613 0 0 0 .058.267l.054.174c.086.256.235.54.443.758.415.445 1.05.665 1.85.65.802-.006 1.773-.236 2.879-.626.28-.114.561-.22.854-.378.293-.171.595-.342.9-.563.611-.413 1.247-.94 1.916-1.361.334-.233.677-.388 1.027-.563.352-.108.707-.234 1.077-.28.737-.13 1.497-.24 2.28-.202a5.852 5.852 0 0 1 2.397.596c.811.416 1.632 1.113 2.464 1.86.835.745 1.687 1.538 2.568 2.082l.33.203c.112.058.224.098.336.148l.336.141c.12.043.225.052.339.08l.67.139c.224.05.448.099.675.098.453.014.91.071 1.363.05l1.364-.042c.908-.039 1.83-.024 2.748-.406.913-.357 1.81-.938 2.704-1.368a15.41 15.41 0 0 1 1.345-.55l1.343-.497c1.784-.653 3.541-1.218 5.247-1.474.427-.068.85-.133 1.27-.138.419-.014.834-.065 1.245-.025l.614.03c.102.004.203.01.304.015.091.012.2.047.298.069l.6.15c.197.074.39.183.583.27.773.367 1.525.936 2.252 1.452.729.516 1.434 1.031 2.12 1.353l.508.245c.168.07.336.093.5.141l.49.126.476.024c.626.009 1.218.08 1.776.033l1.561-.105c.482-.054.924-.106 1.324-.15l2.51-.307zm-5.347-3.066c.244.139.496.229.743.345-.243-.14-.491-.253-.729-.412l-.353-.26c-.117-.086-.236-.166-.347-.276l-.338-.308a3.465 3.465 0 0 1-.331-.327l-.324-.35a3.909 3.909 0 0 1-.316-.366l-.308-.388-.153-.194-.145-.211-.289-.425-.144-.214-.132-.23c-.175-.311-.36-.591-.517-.948l-.244-.51c-.072-.151-.15-.346-.224-.518a61.877 61.877 0 0 1-.436-1.078 38.687 38.687 0 0 1-.977-2.8 25.852 25.852 0 0 1-.473-1.761l-.132-.6-.114-.606c-.034-.203-.061-.406-.094-.609-.028-.202-.043-.408-.066-.612-.017-.204-.02-.407-.03-.61 0-.202.012-.4.016-.602l.024-1.231-.453.905c-.685 1.368-1.198 2.903-1.83 4.209-.316.646-.676 1.244-1.058 1.717-.097.118-.218.249-.31.353l-.325.34c-.216.225-.432.447-.651.652-.437.415-.885.787-1.347 1.045-.46.254-.94.375-1.387.242-.115-.017-.218-.096-.326-.149-.106-.06-.19-.157-.288-.227l-.155-.19-.078-.097-.038-.046-.003-.006-.016-.026-.26-.43a13.718 13.718 0 0 1-.89-2.016c-.27-.721-.51-1.485-.754-2.251-.242-.776-.496-1.544-.746-2.298a101.861 101.861 0 0 1-1.392-4.638 80.302 80.302 0 0 1-.609-2.385 60.927 60.927 0 0 1-.532-2.433c-.082-.41-.155-.823-.23-1.235-.063-.417-.141-.828-.194-1.249a33.92 33.92 0 0 1-.267-2.526l-.07-.94-.357.705c-.275.54-.481 1.143-.66 1.75a38.504 38.504 0 0 0-.475 1.84c-.147.612-.29 1.221-.446 1.808a19.52 19.52 0 0 1-.247.851c-.043.137-.097.283-.144.424l-.154.404-.63 1.648c-.21.55-.417 1.102-.632 1.648l-1.322 3.246-1.326 3.222-1.385 3.168c-.11.234-.242.488-.361.73-.123.244-.258.469-.386.704-.131.231-.273.444-.409.669-.14.216-.285.423-.427.635-.294.414-.594.817-.898 1.217-.26.34-.518.685-.776 1.032l-.415-.46-.55-.639-.54-.66-.528-.684-.516-.71-.5-.74-.482-.772-.462-.805-.438-.842-.41-.877-.38-.917-.345-.952c-.101-.33-.207-.658-.306-.99-.087-.341-.179-.68-.263-1.022l-.219-1.053-.171-1.078-.147-.924-.295.783-.533 1.413-.51 1.427-.504 1.423c-.175.463-.336.945-.52 1.393-.186.448-.356.916-.556 1.34-.195.43-.377.884-.587 1.28l-.305.617a2.852 2.852 0 0 1-.164.3l-.173.292-.347.585-.08.135-.09.138-.181.274a36.91 36.91 0 0 1-1.496 2.098c-.127.168-.257.331-.388.492-.13.163-.261.324-.395.477-.264.315-.535.614-.81.902a14.533 14.533 0 0 1-1.71 1.543l-.446.319-.455.282-.464.243-.472.2.478-.155.473-.198.467-.24.46-.276c.305-.2.606-.412.901-.65.294-.24.586-.491.87-.762.287-.269.569-.55.845-.847.14-.145.277-.296.412-.452.137-.15.273-.305.407-.466a34.91 34.91 0 0 0 1.57-2.001l.19-.264.096-.131.097-.15.362-.556.181-.28c.061-.09.12-.184.177-.293l.342-.627c.239-.41.434-.863.637-1.31.209-.443.377-.926.564-1.389l.064-.17-.145 2.231 1.008-2.839-.006 4.965.77-4.894.566 2.232.195-2.348.275.273-.211-1.248.118.377c.118.335.24.666.361 1l.397.957.428.914.454.873.477.832.497.796.514.76.528.728.54.7.55.67.56.65.565.629.145.16.139-.187c.3-.404.603-.807.909-1.207.306-.402.611-.812.912-1.238.148-.22.299-.433.444-.66.142-.233.29-.456.427-.698.135-.246.276-.482.405-.737.128-.261.254-.501.385-.782l1.385-3.167 1.338-3.25 1.322-3.247c.216-.548.425-1.107.638-1.66l.593-1.553-.452 2.24.851-2.085.528 3.826.018-3.747 1.424 6.327-.502-6.73.892 2.07.096-1.969c.032.141.062.284.096.423a81.949 81.949 0 0 0 1.299 4.792c.233.784.48 1.555.728 2.325.255.766.504 1.52.744 2.288.245.768.489 1.546.769 2.3.271.757.586 1.488.954 2.153l.292.48.018.03.005.009c-.012-.017.021.03.02.026l.01.013.038.047.078.096.156.191c.132.113.266.253.402.331.135.07.27.164.41.188.56.166 1.117.01 1.622-.269.508-.283.98-.68 1.435-1.109.227-.214.449-.442.668-.668l.327-.343c.121-.136.216-.239.327-.372.068-.084.13-.172.194-.259l-.351 1.502.95-1.116.353 3.43.453-2.471.86 2.903.122-4.125.78 1.757-.074-2.058.469.451.005.016a36.71 36.71 0 0 0 .875 2.207c.154.357.31.709.47 1.057.085.175.155.34.25.524l.258.49c.162.336.37.63.559.938l.145.227.153.207.306.41.154.206.161.184.323.37c.106.128.217.24.331.345l.338.326c.11.113.228.206.345.297l.351.28c.115.099.238.169.358.245z" clip-path="url(&quot;#jj00a&quot;)"/><path fill="none" stroke="#fff" stroke-miterlimit="20" stroke-width="4" d="M59 33.843l-2.513.085-1.325.059-1.559-.005c-.555.006-1.15-.105-1.774-.158-.156-.016-.314-.035-.473-.052l-.483-.145c-.162-.054-.328-.083-.493-.162-.166-.085-.334-.174-.503-.262-.677-.347-1.377-.889-2.103-1.436-.727-.547-1.476-1.15-2.265-1.559-.197-.098-.397-.217-.596-.3l-.6-.176c-.103-.028-.197-.064-.308-.084a41.087 41.087 0 0 1-.306-.028l-.618-.057c-.414-.061-.832-.023-1.254-.01-.423-.002-.848.058-1.277.12-1.715.234-3.48.777-5.267 1.403-.447.16-.895.318-1.345.478a15.85 15.85 0 0 0-1.355.537c-.904.423-1.799.984-2.698 1.327-.893.386-1.804.387-2.716.439l-1.36.06c-.453.028-.9-.022-1.347-.03a2.951 2.951 0 0 1-.672-.087l-.67-.13c-.11-.025-.228-.035-.33-.072l-.327-.134c-.109-.048-.218-.084-.327-.138l-.324-.195c-.865-.521-1.71-1.295-2.548-2.03-.838-.735-1.667-1.447-2.497-1.825a5.79 5.79 0 0 0-2.432-.503c-.79-.005-1.555.14-2.292.3-.367.063-.733.206-1.09.332-.353.192-.7.364-1.036.613-1.345.937-2.541 2.099-3.647 2.51-1.102.468-2.067.764-2.865.826-.796.061-1.43-.082-1.844-.489a1.855 1.855 0 0 1-.444-.71l-.055-.168-.033-.145-.027-.117a19.613 19.613 0 0 0 .058.267l.054.174c.086.256.235.54.443.758.415.445 1.05.665 1.85.65.802-.006 1.773-.236 2.879-.626.28-.114.561-.22.854-.378.293-.171.595-.342.9-.563.611-.413 1.247-.94 1.916-1.361.334-.233.677-.388 1.027-.563.352-.108.707-.234 1.077-.28.737-.13 1.497-.24 2.28-.202a5.852 5.852 0 0 1 2.397.596c.811.416 1.632 1.113 2.464 1.86.835.745 1.687 1.538 2.568 2.082l.33.203c.112.058.224.098.336.148l.336.141c.12.043.225.052.339.08l.67.139c.224.05.448.099.675.098.453.014.91.071 1.363.05l1.364-.042c.908-.039 1.83-.024 2.748-.406.913-.357 1.81-.938 2.704-1.368a15.41 15.41 0 0 1 1.345-.55l1.343-.497c1.784-.653 3.541-1.218 5.247-1.474.427-.068.85-.133 1.27-.138.419-.014.834-.065 1.245-.025l.614.03c.102.004.203.01.304.015.091.012.2.047.298.069l.6.15c.197.074.39.183.583.27.773.367 1.525.936 2.252 1.452.729.516 1.434 1.031 2.12 1.353l.508.245c.168.07.336.093.5.141l.49.126.476.024c.626.009 1.218.08 1.776.033l1.561-.105c.482-.054.924-.106 1.324-.15l2.51-.307zm-5.347-3.066c.244.139.496.229.743.345-.243-.14-.491-.253-.729-.412l-.353-.26c-.117-.086-.236-.166-.347-.276l-.338-.308a3.465 3.465 0 0 1-.331-.327l-.324-.35a3.909 3.909 0 0 1-.316-.366l-.308-.388-.153-.194-.145-.211-.289-.425-.144-.214-.132-.23c-.175-.311-.36-.591-.517-.948l-.244-.51c-.072-.151-.15-.346-.224-.518a61.877 61.877 0 0 1-.436-1.078 38.687 38.687 0 0 1-.977-2.8 25.852 25.852 0 0 1-.473-1.761l-.132-.6-.114-.606c-.034-.203-.061-.406-.094-.609-.028-.202-.043-.408-.066-.612-.017-.204-.02-.407-.03-.61 0-.202.012-.4.016-.602l.024-1.231-.453.905c-.685 1.368-1.198 2.903-1.83 4.209-.316.646-.676 1.244-1.058 1.717-.097.118-.218.249-.31.353l-.325.34c-.216.225-.432.447-.651.652-.437.415-.885.787-1.347 1.045-.46.254-.94.375-1.387.242-.115-.017-.218-.096-.326-.149-.106-.06-.19-.157-.288-.227l-.155-.19-.078-.097-.038-.046-.003-.006-.016-.026-.26-.43a13.718 13.718 0 0 1-.89-2.016c-.27-.721-.51-1.485-.754-2.251-.242-.776-.496-1.544-.746-2.298a101.861 101.861 0 0 1-1.392-4.638 80.302 80.302 0 0 1-.609-2.385 60.927 60.927 0 0 1-.532-2.433c-.082-.41-.155-.823-.23-1.235-.063-.417-.141-.828-.194-1.249a33.92 33.92 0 0 1-.267-2.526l-.07-.94-.357.705c-.275.54-.481 1.143-.66 1.75a38.504 38.504 0 0 0-.475 1.84c-.147.612-.29 1.221-.446 1.808a19.52 19.52 0 0 1-.247.851c-.043.137-.097.283-.144.424l-.154.404-.63 1.648c-.21.55-.417 1.102-.632 1.648l-1.322 3.246-1.326 3.222-1.385 3.168c-.11.234-.242.488-.361.73-.123.244-.258.469-.386.704-.131.231-.273.444-.409.669-.14.216-.285.423-.427.635-.294.414-.594.817-.898 1.217-.26.34-.518.685-.776 1.032l-.415-.46-.55-.639-.54-.66-.528-.684-.516-.71-.5-.74-.482-.772-.462-.805-.438-.842-.41-.877-.38-.917-.345-.952c-.101-.33-.207-.658-.306-.99-.087-.341-.179-.68-.263-1.022l-.219-1.053-.171-1.078-.147-.924-.295.783-.533 1.413-.51 1.427-.504 1.423c-.175.463-.336.945-.52 1.393-.186.448-.356.916-.556 1.34-.195.43-.377.884-.587 1.28l-.305.617a2.852 2.852 0 0 1-.164.3l-.173.292-.347.585-.08.135-.09.138-.181.274a36.91 36.91 0 0 1-1.496 2.098c-.127.168-.257.331-.388.492-.13.163-.261.324-.395.477-.264.315-.535.614-.81.902a14.533 14.533 0 0 1-1.71 1.543l-.446.319-.455.282-.464.243-.472.2.478-.155.473-.198.467-.24.46-.276c.305-.2.606-.412.901-.65.294-.24.586-.491.87-.762.287-.269.569-.55.845-.847.14-.145.277-.296.412-.452.137-.15.273-.305.407-.466a34.91 34.91 0 0 0 1.57-2.001l.19-.264.096-.131.097-.15.362-.556.181-.28c.061-.09.12-.184.177-.293l.342-.627c.239-.41.434-.863.637-1.31.209-.443.377-.926.564-1.389l.064-.17-.145 2.231 1.008-2.839-.006 4.965.77-4.894.566 2.232.195-2.348.275.273-.211-1.248.118.377c.118.335.24.666.361 1l.397.957.428.914.454.873.477.832.497.796.514.76.528.728.54.7.55.67.56.65.565.629.145.16.139-.187c.3-.404.603-.807.909-1.207.306-.402.611-.812.912-1.238.148-.22.299-.433.444-.66.142-.233.29-.456.427-.698.135-.246.276-.482.405-.737.128-.261.254-.501.385-.782l1.385-3.167 1.338-3.25 1.322-3.247c.216-.548.425-1.107.638-1.66l.593-1.553-.452 2.24.851-2.085.528 3.826.018-3.747 1.424 6.327-.502-6.73.892 2.07.096-1.969c.032.141.062.284.096.423a81.949 81.949 0 0 0 1.299 4.792c.233.784.48 1.555.728 2.325.255.766.504 1.52.744 2.288.245.768.489 1.546.769 2.3.271.757.586 1.488.954 2.153l.292.48.018.03.005.009c-.012-.017.021.03.02.026l.01.013.038.047.078.096.156.191c.132.113.266.253.402.331.135.07.27.164.41.188.56.166 1.117.01 1.622-.269.508-.283.98-.68 1.435-1.109.227-.214.449-.442.668-.668l.327-.343c.121-.136.216-.239.327-.372.068-.084.13-.172.194-.259l-.351 1.502.95-1.116.353 3.43.453-2.471.86 2.903.122-4.125.78 1.757-.074-2.058.469.451.005.016a36.71 36.71 0 0 0 .875 2.207c.154.357.31.709.47 1.057.085.175.155.34.25.524l.258.49c.162.336.37.63.559.938l.145.227.153.207.306.41.154.206.161.184.323.37c.106.128.217.24.331.345l.338.326c.11.113.228.206.345.297l.351.28c.115.099.238.169.358.245z" clip-path="url(&quot;#jj00b&quot;)"/></g></g></svg>