<svg xmlns="http://www.w3.org/2000/svg" width="31" height="41" viewBox="0 0 31 41"><g><g><path fill="#137893" d="M30.804 17.636c-.083.552-.22 1.082-.36 1.612-.066.254-.126.506-.202.76-.093.289-.185.574-.294.854C26.495 30.86 15.5 41 15.5 41S4.877 31.21 1.23 21.384c-.025-.06-.038-.124-.063-.184a21.784 21.784 0 0 1-.615-1.966c-.115-.437-.22-.872-.295-1.322C.104 17.056 0 16.207 0 15.375 0 6.883 6.94 0 15.5 0 24.06 0 31 6.883 31 15.375c0 .743-.073 1.499-.196 2.261zM15.5 7.687c-4.28 0-7.75 3.442-7.75 7.688 0 4.245 3.47 7.687 7.75 7.687 4.28 0 7.75-3.442 7.75-7.687 0-4.246-3.47-7.688-7.75-7.688z"/></g></g></svg>