<?xml version="1.0" standalone="no"?>
<!DOCTYPE svg PUBLIC "-//W3C//DTD SVG 1.1//EN" "http://www.w3.org/Graphics/SVG/1.1/DTD/svg11.dtd" >
<svg xmlns="http://www.w3.org/2000/svg" xmlns:xlink="http://www.w3.org/1999/xlink" version="1.1">
<metadata>
Created by FontForge 20170731 at Wed Nov  9 19:42:40 2016
 By Aleksey,,,
</metadata>
<defs>
<font id="M.Video-Regular" horiz-adv-x="1024" >
  <font-face 
    font-family="MVideo"
    font-weight="400"
    font-stretch="normal"
    units-per-em="2048"
    panose-1="2 0 0 0 0 0 0 0 0 0"
    ascent="1536"
    descent="-512"
    x-height="991"
    cap-height="1346"
    bbox="-89.3881 -539 2146 1695.74"
    underline-thickness="102"
    underline-position="-306"
    unicode-range="U+000D-25FC"
  />
<missing-glyph horiz-adv-x="483" 
 />
    <glyph glyph-name=".notdef" horiz-adv-x="483" 
 />
    <glyph glyph-name=".null" horiz-adv-x="0" 
 />
    <glyph glyph-name="nonmarkingreturn" horiz-adv-x="682" 
 />
    <glyph glyph-name="NULL" horiz-adv-x="0" 
 />
    <glyph glyph-name="NULL" horiz-adv-x="0" 
 />
    <glyph glyph-name="CR" unicode="&#xd;" horiz-adv-x="483" 
 />
    <glyph glyph-name="space" unicode=" " horiz-adv-x="483" 
 />
    <glyph glyph-name="exclam" unicode="!" horiz-adv-x="546" 
d="M160 72q0 53 33 83.5t79 30.5q45 0 80 -28.5t35 -77.5q0 -53 -34.5 -83t-80.5 -32q-46 0 -79 28t-33 79zM174 1337q-2 45 22 73.5t76 29.5q53 -1 77.5 -30t21.5 -73l-45 -868q-1 -21 -10 -28t-29 -9h-29q-13 1 -20 3.5t-12.5 10.5t-6.5 23z" />
    <glyph glyph-name="quotedbl" unicode="&#x22;" horiz-adv-x="722" 
d="M125 918l18 374q0 56 60 54h78q55 0 43 -62l-84 -366q-6 -24 -16.5 -31.5t-33.5 -7.5h-24q-23 0 -32 8.5t-9 30.5zM418 918l18 374q0 56 60 54h77q55 0 43 -62l-84 -366q-6 -24 -16 -31.5t-33 -7.5h-24q-23 0 -32 8.5t-9 30.5z" />
    <glyph glyph-name="numbersign" unicode="#" horiz-adv-x="1421" 
d="M113 379v24q0 26 9 37t36 11h190l68 270h-219q-28 0 -36.5 10.5t-8.5 36.5v25q0 25 8.5 36t36.5 11h247l74 295q11 32 49 32h56q44 0 32 -45l-69 -282h379l73 295q11 32 49 32h56q45 0 33 -45l-70 -282h151q28 0 37 -10.5t9 -36.5v-25q0 -25 -9 -36t-37 -11h-182
l-67 -270h211q28 0 36.5 -10.5t8.5 -37.5v-24q0 -25 -8.5 -36t-36.5 -11h-240l-74 -297q-9 -35 -49 -35h-57q-42 0 -31 45l70 287h-379l-74 -297q-9 -35 -49 -35h-57q-42 0 -31 45l69 287h-159q-28 0 -36.5 10.5t-8.5 36.5zM487 451h381l68 270h-381z" />
    <glyph glyph-name="dollar" unicode="$" horiz-adv-x="1198" 
d="M297 911q3 152 93.5 240.5t230.5 110.5v131q0 28 14 36.5t49 8.5h16q34 0 49 -9t15 -36v-129q69 -6 130 -25t103.5 -54.5t42.5 -80.5q0 -39 -22 -64q-14 -14 -29 -6q-147 94 -289 94q-99 0 -173 -52t-74 -148q0 -53 36 -95t93.5 -71t127.5 -57t139.5 -62t127 -76.5
t93.5 -109.5t36 -152q0 -138 -96 -228t-246 -108v-141q0 -28 -14.5 -36.5t-49.5 -8.5h-16q-34 0 -48.5 9t-14.5 36v143q-54 7 -105 20t-100 35t-79 57t-30 77q0 47 35 65q12 7 23 0q175 -112 346 -112q44 0 83.5 9.5t74.5 30.5t56 59t21 89q0 63 -36 110t-93 77t-126 56.5
t-138.5 56.5t-126.5 67.5t-93 99.5t-36 143z" />
    <glyph glyph-name="percent" unicode="%" horiz-adv-x="1544" 
d="M102 993q0 58 17 110t50.5 95t92 68.5t133.5 25.5q145 0 219 -87.5t74 -211.5q0 -81 -29.5 -146t-97.5 -108t-166 -43t-166 43t-97.5 108t-29.5 146zM246 987q0 -90 45 -134t108 -44q68 0 107 54.5t39 123.5q0 94 -43.5 144.5t-106.5 50.5q-62 0 -105.5 -50t-43.5 -145z
M284.5 14q-6.5 14 4.5 29l819 1198q18 26 35.5 34.5t48.5 8.5h59q23 0 29.5 -13t-4.5 -30l-815 -1198q-17 -26 -34.5 -34.5t-49.5 -8.5h-64q-22 0 -28.5 14zM866 270q0 58 17 110t50.5 95t92 68.5t133.5 25.5q145 0 219 -87.5t74 -211.5q0 -81 -29.5 -146t-97.5 -108
t-166 -43t-166 43t-97.5 108t-29.5 146zM1010 264q0 -90 45 -134t108 -44q68 0 107 54.5t39 123.5q0 94 -43.5 144.5t-106.5 50.5q-62 0 -105.5 -50t-43.5 -145z" />
    <glyph glyph-name="ampersand" unicode="&#x26;" horiz-adv-x="1259" 
d="M72 459q0 152 84 260t245 151q-81 35 -126.5 103t-45.5 149q0 133 100.5 207t252.5 74q70 0 141 -18.5t120.5 -53t49.5 -74.5q0 -19 -13 -44t-34 -25q-8 0 -17 6q-51 32 -123 53t-135 21q-89 0 -136.5 -45.5t-47.5 -116.5q0 -82 61.5 -139.5t153.5 -57.5h39q27 0 34 -7.5
t7 -33.5v-37q0 -25 -5 -30.5t-32 -5.5h-76q-84 -4 -149 -33t-103.5 -76t-57.5 -103t-19 -118q0 -75 22.5 -136t60 -101t89 -67.5t106.5 -39.5t115 -12q166 0 275.5 91.5t109.5 260.5q0 130 -78 211q-108 -48 -138 -68q-73 -48 -73 -119q0 -9 3 -25t3 -24q0 -16 -33 -16
q-43 0 -66.5 30t-23.5 74q0 32 9.5 61t21.5 50t39 43.5t43.5 34.5t55.5 30.5t55 25.5t61 25q18 7 27 11q209 77 209 190q0 8 -4.5 23.5t-4.5 23.5q0 19 33 19q45 -3 68.5 -33t23.5 -74q0 -86 -63 -147t-150 -92q123 -112 123 -303q0 -194 -148 -316.5t-390 -122.5
q-107 0 -202.5 28.5t-174.5 85t-125.5 152.5t-46.5 220z" />
    <glyph glyph-name="quotesingle" unicode="'" horiz-adv-x="444" 
d="M125 918l8 374q0 56 60 54h77q55 0 43 -62l-73 -366q-6 -24 -16.5 -31.5t-33.5 -7.5h-24q-23 0 -32 8.5t-9 30.5z" />
    <glyph glyph-name="parenleft" unicode="(" horiz-adv-x="649" 
d="M94 555q0 196 58 381t180.5 344t292.5 246q25 11 37 -15l26 -61q12 -26 -14 -41q-194 -113 -307 -342.5t-113 -497.5q0 -282 114.5 -514.5t305.5 -345.5q21 -13 10 -41l-27 -53q-13 -24 -41 -12q-162 85 -281.5 237.5t-180 336.5t-60.5 378z" />
    <glyph glyph-name="parenright" unicode=")" horiz-adv-x="657" 
d="M-31 1450l27 61q12 26 37 15q128 -66 230.5 -173.5t167 -236.5t98.5 -272.5t34 -288.5q0 -194 -60.5 -378t-180 -336.5t-281.5 -237.5q-28 -12 -41 12l-27 53q-11 27 11 41q191 113 305 345.5t114 514.5q0 176 -49.5 339.5t-145 294.5t-224.5 206q-26 15 -15 41z" />
    <glyph glyph-name="asterisk" unicode="*" horiz-adv-x="950" 
d="M94 1374q11 31 43.5 44.5t63.5 -1.5l239 -123l-43 267q-5 36 16.5 60t61.5 24t60.5 -24t15.5 -60l-41 -267l240 123q31 15 63 1.5t43 -44.5q14 -35 -1.5 -68.5t-51.5 -39.5l-266 -43l188 -189q27 -31 20.5 -62.5t-36.5 -53.5q-29 -21 -63.5 -16t-51.5 38l-119 238
l-119 -238q-17 -33 -51 -38t-63 16q-30 22 -37 53.5t20 62.5l189 189l-267 43q-36 6 -51.5 39.5t-1.5 68.5z" />
    <glyph glyph-name="plus" unicode="+" horiz-adv-x="1046" 
d="M111 610v27q0 29 9 42t36 13h299v324q0 28 12.5 36.5t42.5 8.5h27q29 0 42 -9t13 -36v-324h299q28 0 36.5 -12.5t8.5 -42.5v-27q0 -29 -9 -42t-36 -13h-299v-324q0 -28 -12.5 -36.5t-42.5 -8.5h-27q-29 0 -42 9t-13 36v324h-299q-28 0 -36.5 12.5t-8.5 42.5z" />
    <glyph glyph-name="comma" unicode="," horiz-adv-x="481" 
d="M104 -250q109 109 109 201q0 73 -61 123q-15 11 -9 26q42 86 123 86q59 0 86 -40t27 -93q0 -159 -207 -352q-13 -13 -27 -2l-39 29q-14 10 -2 22z" />
    <glyph glyph-name="hyphen" unicode="-" horiz-adv-x="944" 
d="M156 489v37q0 29 9 41.5t36 12.5h542q27 0 36 -12.5t9 -41.5v-37q0 -29 -8.5 -41t-36.5 -12h-542q-28 0 -36.5 12t-8.5 41z" />
    <glyph glyph-name="period" unicode="." horiz-adv-x="442" 
d="M113 72q0 53 33 83.5t79 30.5q45 0 80 -28.5t35 -77.5q0 -53 -34.5 -83t-80.5 -32q-46 0 -79 28t-33 79z" />
    <glyph glyph-name="slash" unicode="/" horiz-adv-x="843" 
d="M-84 -162l721 1467q11 23 22 32t33 9h76q49 0 29 -48l-721 -1466q-11 -23 -22.5 -31t-35.5 -8h-73q-48 0 -29 45z" />
    <glyph glyph-name="zero" unicode="0" horiz-adv-x="1175" 
d="M102 647q0 106 13.5 197t48 176.5t88.5 145.5t140.5 96t197.5 36q113 0 199.5 -39.5t138.5 -102.5t84.5 -153.5t44.5 -181t12 -196.5q0 -107 -13.5 -197.5t-48 -176.5t-88.5 -146t-140 -96t-197 -36q-113 0 -199.5 39.5t-138.5 102.5t-85 153.5t-45 181.5t-12 197z
M260 618q0 -499 326 -499q68 0 121 20.5t87.5 60t58.5 87.5t36 111.5t17 123.5t5 133q0 500 -325 500q-81 0 -141 -31t-94.5 -80.5t-55.5 -122.5t-28 -144t-7 -159z" />
    <glyph glyph-name="one" unicode="1" horiz-adv-x="700" 
d="M42.5 1014q0.5 14 20.5 28l285 220q26 20 62 20h34q34 0 48 -8.5t14 -36.5v-1192q0 -27 -14 -36t-46 -9h-34q-34 0 -48 8.5t-14 36.5v1038l-207 -149q-37 -25 -59 6l-27 39q-15 21 -14.5 35z" />
    <glyph glyph-name="two" unicode="2" horiz-adv-x="968" 
d="M66 88q0 90 34 165t88.5 127.5t120 99t131 91t120 92t88.5 113t34 144.5q0 103 -57 166t-185 63q-144 0 -303 -92q-11 -7 -22 4q-11 9 -20 29.5t-9 35.5q0 50 59.5 91t137.5 61t149 20q185 0 296.5 -93.5t117.5 -289.5q1 -70 -25 -137.5t-65 -117.5t-100 -104.5
t-110.5 -90t-117 -83t-100.5 -73.5q-84 -69 -97 -157h586q28 0 36.5 -13t8.5 -45v-35q0 -33 -8.5 -46t-36.5 -13h-700q-8 0 -15 1.5t-12 5.5t-8.5 7t-6 11t-4 11t-2.5 13t-1.5 12.5t-1 14t-0.5 12.5z" />
    <glyph glyph-name="three" unicode="3" horiz-adv-x="933" 
d="M51 145q0 24 9.5 45t25.5 21q7 0 27 -8q149 -80 303 -80q146 0 212 69.5t66 178.5q0 76 -29.5 128.5t-83.5 79t-115.5 37.5t-141.5 11h-17q-37 0 -37 37v22q0 30 23 59l303 385h-471q-28 0 -36.5 13.5t-8.5 46.5v37q0 32 8.5 44.5t36.5 12.5h651q28 0 36.5 -12.5
t8.5 -44.5v-19q0 -22 -35 -65l-335 -406q102 0 180 -28t125.5 -78t71.5 -115t24 -143q0 -180 -114.5 -290t-336.5 -110q-44 0 -98.5 8.5t-113.5 27t-98.5 54t-39.5 82.5z" />
    <glyph glyph-name="four" unicode="4" horiz-adv-x="1052" 
d="M49 352v41q0 61 45 123l490 715q36 51 112 51h88q37 0 52.5 -12t15.5 -45v-791h115q28 0 36.5 -11.5t8.5 -41.5v-33q0 -31 -8.5 -43t-36.5 -12h-115v-248q0 -28 -13.5 -36.5t-45.5 -8.5h-35q-34 0 -48 8.5t-14 36.5v248h-581q-66 0 -66 59zM205 434h491v717z" />
    <glyph glyph-name="five" unicode="5" horiz-adv-x="997" 
d="M113 160q0 36 20 59q11 11 23 4q172 -102 305 -102q127 0 208 72t81 223q0 115 -72 185.5t-197 70.5q-105 0 -233 -60q-27 -14 -45 -6l-33 15q-13 7 -18.5 10.5t-9.5 16t-1 32.5l62 547q4 36 12.5 46.5t32.5 10.5h594q28 0 36.5 -12.5t8.5 -44.5v-37q0 -33 -8.5 -46.5
t-36.5 -13.5h-506l-43 -376q109 53 219 53q97 0 174 -33t124.5 -89t72 -127t24.5 -150q0 -93 -25.5 -168.5t-68 -124t-100 -81.5t-118.5 -47t-128 -14q-44 0 -95.5 7.5t-114 25.5t-103.5 58t-41 96z" />
    <glyph glyph-name="six" unicode="6" horiz-adv-x="1083" 
d="M123 512q0 141 30 260t83 203t122.5 147.5t153.5 101.5t170 56t176 18q16 0 25.5 -9.5t9.5 -22.5v-78q0 -12 -8.5 -21.5t-20.5 -9.5q-99 0 -191 -28.5t-171.5 -86t-136.5 -153t-78 -219.5h4q50 73 140.5 113t186.5 40q88 0 160 -34t118.5 -91t71.5 -131t25 -155
q0 -189 -119 -314t-317 -125q-203 0 -318.5 145t-115.5 394zM285 471q0 -168 73.5 -266.5t210.5 -98.5q128 0 199.5 82t71.5 220q-4 135 -71.5 207.5t-178.5 72.5q-93 0 -177.5 -59t-127.5 -158z" />
    <glyph glyph-name="seven" unicode="7" horiz-adv-x="856" 
d="M41 1190v35q0 32 8.5 44.5t36.5 12.5h694q28 0 36.5 -12.5t8.5 -44.5v-72q0 -28 -12 -55l-508 -1071q-13 -27 -41 -27h-112q-15 0 -21 9.5t0 23.5l535 1097h-580q-28 0 -36.5 13.5t-8.5 46.5z" />
    <glyph glyph-name="eight" unicode="8" horiz-adv-x="1091" 
d="M119 305q0 117 69 210t199 155q-229 132 -229 319q0 130 108 218.5t293 88.5q167 -3 276 -90.5t109 -216.5q0 -208 -264 -323q139 -79 216 -169t77 -208q0 -101 -60 -174.5t-151 -107.5t-197 -34q-69 0 -132.5 11.5t-121 37.5t-100 64t-67.5 94t-25 125zM283 307
q0 -96 79 -149.5t185 -53.5q107 0 188.5 51.5t81.5 137.5q0 40 -16.5 76.5t-40.5 65t-67.5 60t-80.5 53.5t-96 54q-110 -51 -171.5 -128.5t-61.5 -166.5zM317 989q0 -45 20.5 -85.5t59 -73t76.5 -56t90 -49.5q116 58 172 120.5t56 139.5q0 82 -64.5 132t-173.5 50
q-58 0 -109 -16.5t-89 -58.5t-38 -103z" />
    <glyph glyph-name="nine" unicode="9" horiz-adv-x="1062" 
d="M90 860q0 189 116 313.5t308 124.5q198 0 312 -145t114 -393q0 -168 -42.5 -304.5t-112.5 -224.5t-164.5 -147.5t-194 -85t-205.5 -25.5q-14 0 -23.5 10t-9.5 23v78q0 12 8.5 21.5t18.5 9.5q97 0 186 28.5t167 86t133 153t75 219.5h-4q-49 -73 -136.5 -113t-180.5 -40
q-114 0 -198.5 58.5t-125.5 150.5t-41 202zM244 864q4 -136 67.5 -208t171.5 -72q89 0 171 59t124 158q0 168 -71 266t-205 98q-124 0 -191 -81.5t-67 -219.5z" />
    <glyph glyph-name="colon" unicode=":" horiz-adv-x="442" 
d="M113 72q0 53 33 83.5t79 30.5q45 0 80 -28.5t35 -77.5q0 -53 -34.5 -83t-80.5 -32q-46 0 -79 28t-33 79zM113 872q0 53 33 84t79 31q45 0 80 -28.5t35 -77.5q0 -53 -34.5 -83t-80.5 -32q-46 0 -79 27.5t-33 78.5z" />
    <glyph glyph-name="semicolon" unicode=";" horiz-adv-x="481" 
d="M104 -250q109 109 109 201q0 73 -61 123q-15 11 -9 26q42 86 123 86q59 0 86 -40t27 -93q0 -159 -207 -352q-13 -13 -27 -2l-39 29q-14 10 -2 22zM135 872q0 53 33.5 84t79.5 31q45 0 79.5 -28.5t34.5 -77.5q0 -53 -34 -83t-80 -32q-46 0 -79.5 27.5t-33.5 78.5z" />
    <glyph glyph-name="less" unicode="&#x3c;" horiz-adv-x="950" 
d="M86 514v70q0 37 51 65l592 328q26 13 40.5 0.5t14.5 -39.5v-49q0 -32 -11 -50t-38 -32l-385 -209l-127 -49l127 -49l385 -209q27 -14 38 -32t11 -50v-49q0 -27 -14.5 -39.5t-40.5 0.5l-592 328q-51 28 -51 65z" />
    <glyph glyph-name="equal" unicode="=" horiz-adv-x="1155" 
d="M141 446v27q0 29 9 42t36 13h781q28 0 36.5 -12.5t8.5 -42.5v-27q0 -29 -9 -42t-36 -13h-781q-28 0 -36.5 12.5t-8.5 42.5zM141 766v27q0 29 9 42t36 13h781q28 0 36.5 -12.5t8.5 -42.5v-27q0 -29 -9 -42t-36 -13h-781q-28 0 -36.5 12.5t-8.5 42.5z" />
    <glyph glyph-name="greater" unicode="&#x3e;" horiz-adv-x="950" 
d="M166 160v49q0 32 11 50t38 32l385 209l127 49l-127 49l-385 209q-27 14 -38 32t-11 50v49q0 27 14.5 39.5t40.5 -0.5l592 -328q51 -28 51 -65v-70q0 -37 -51 -65l-592 -328q-26 -13 -40.5 -0.5t-14.5 39.5z" />
    <glyph glyph-name="question" unicode="?" horiz-adv-x="864" 
d="M100 1288q0 41 33.5 72.5t86 48t107 25t105.5 8.5q165 0 251.5 -81t88.5 -200q0 -72 -37.5 -138.5t-91 -117.5t-107 -98.5t-91 -99.5t-37.5 -103q0 -83 90 -112q28 -7 16 -41q-27 -48 -92 -48q-77 0 -117.5 55t-40.5 136q2 60 22.5 112.5t51.5 91t68 73t73.5 65t66.5 61
t49 68t19 78.5q0 153 -202 153q-68 0 -139.5 -18.5t-116.5 -44.5q-19 -9 -31 0q-25 22 -25 55zM309 72q0 53 33.5 83.5t79.5 30.5q45 0 80 -28.5t35 -77.5q0 -53 -34.5 -83t-80.5 -32q-46 0 -79.5 28t-33.5 79z" />
    <glyph glyph-name="at" unicode="@" horiz-adv-x="2000" 
d="M195 428q0 199 69 362t188 270.5t277.5 165.5t339.5 58q237 0 419.5 -98t282 -273.5t99.5 -402.5q0 -105 -24 -199t-70.5 -171t-124 -122t-176.5 -45q-70 0 -130 31.5t-85 93.5q-134 -125 -328 -125q-125 0 -193.5 66t-68.5 168q0 136 99.5 211.5t277.5 75.5
q77 0 174 -19v117q0 73 -53 106t-136 33q-131 0 -266 -57q-6 -2 -14 -2q-15 0 -28 22t-13 43q0 36 33.5 63t86 41t104.5 20.5t101 6.5q92 0 157 -20.5t102 -60t53 -89.5t16 -116v-357q8 -125 131 -125q65 0 112 38.5t71 102.5t35 131t11 140q0 298 -180.5 470.5
t-476.5 172.5q-166 0 -303.5 -54.5t-230 -151t-143 -231t-50.5 -292.5q0 -144 37.5 -263t104.5 -203.5t160 -142t203.5 -84t235.5 -24.5q101 3 234 27q56 11 59 -43v-37q0 -45 -45 -57q-145 -33 -260 -33q-165 -3 -305 36t-244.5 114.5t-177.5 182t-110 240.5t-37 289z
M799 225q0 -61 40 -93t113 -32q84 0 159 34.5t110 76.5v147q-81 19 -185 19q-119 0 -178 -43.5t-59 -108.5z" />
    <glyph glyph-name="A" unicode="A" horiz-adv-x="1216" 
d="M-4 45l551 1292q16 37 45 37h33q29 0 45 -37l551 -1292q5 -10 5 -19q0 -8 -6 -14q-11 -12 -36 -12h-62q-30 0 -48 9.5t-32 41.5l-112 271h-645l-111 -271q-14 -32 -32 -41.5t-48 -9.5h-61q-25 0 -36 12q-6 6 -6 14q0 9 5 19zM346 469h524l-174 422l-88 239l-88 -239z" />
    <glyph glyph-name="B" unicode="B" horiz-adv-x="1243" 
d="M199 51v1243q0 52 67 52h350q102 0 182 -17.5t132.5 -47t87 -71.5t49 -89t14.5 -101q0 -104 -53.5 -190.5t-150.5 -131.5v-6q134 -35 199 -119t65 -200q0 -171 -129.5 -272t-388.5 -101h-357q-41 0 -54 14t-13 37zM358 147h310q150 0 225.5 66.5t75.5 175.5
q0 106 -71 161.5t-212 55.5h-328v-459zM358 754h279q122 0 198 64t76 163q0 219 -297 219h-256v-446z" />
    <glyph glyph-name="C" unicode="C" horiz-adv-x="1220" 
d="M90 664q0 334 178 522t492 188h16q78 0 162 -17q92 -19 161.5 -63t69.5 -102q0 -38 -28 -66q-16 -16 -37 -4q-158 105 -334 105q-105 0 -195 -32t-162 -96.5t-114 -174t-43 -252.5q0 -142 38.5 -249.5t106.5 -171t153 -95t185 -31.5q193 0 379 108q28 14 41 -8l35 -63
q4 -8 4 -16q0 -14 -14 -25q-95 -72 -217.5 -110t-247.5 -38q-102 0 -193.5 25t-172 79t-138.5 133.5t-91.5 195.5t-33.5 258z" />
    <glyph glyph-name="D" unicode="D" horiz-adv-x="1341" 
d="M199 49v1251q0 24 11.5 34t35.5 12h172q149 0 270.5 -18t234.5 -64t189.5 -119t122 -190.5t45.5 -272.5q0 -147 -38.5 -264t-106.5 -197t-166 -133.5t-212.5 -77.5t-250.5 -24q-184 0 -242 13q-65 15 -65 50zM362 145q64 -10 152 -10q286 0 444 131.5t158 403.5
q0 102 -23.5 183t-60.5 136.5t-97 95t-119.5 62t-142 35.5t-151.5 16.5t-160 3.5v-1057z" />
    <glyph glyph-name="E" unicode="E" horiz-adv-x="1093" 
d="M199 45v1255q0 27 14 36.5t45 9.5h721q23 0 31 -13.5t8 -44.5v-39q0 -30 -8 -42.5t-31 -12.5h-617v-430h500q24 0 31.5 -13t7.5 -44v-39q0 -30 -8 -43t-31 -13h-500v-460h617q23 0 31 -13.5t8 -44.5v-39q0 -30 -8 -42.5t-31 -12.5h-721q-31 0 -45 9t-14 36z" />
    <glyph glyph-name="F" unicode="F" horiz-adv-x="1034" 
d="M199 45v1255q0 27 14 36.5t45 9.5h731q23 0 31 -13.5t8 -44.5v-39q0 -30 -8 -42.5t-31 -12.5h-627v-459h494q24 0 31.5 -13t7.5 -44v-39q0 -30 -8 -42.5t-31 -12.5h-494v-539q0 -28 -14 -36.5t-47 -8.5h-43q-31 0 -45 9t-14 36z" />
    <glyph glyph-name="G" unicode="G" horiz-adv-x="1353" 
d="M90 670q9 344 187 524t493 180q71 0 144 -11t140 -32t109.5 -58.5t42.5 -84.5q0 -40 -24 -64q-12 -10 -41 2q-178 101 -373 101q-108 0 -198 -32t-160.5 -96.5t-111 -172t-42.5 -250.5v-13q0 -130 39 -233q41 -109 112.5 -174t160 -98t188.5 -33q195 0 344 119v301h-328
q-22 0 -29.5 12.5t-7.5 40.5v37q0 30 7.5 42.5t29.5 12.5h426q31 0 42 -8.5t11 -36.5v-416q-3 -43 -34 -77q-93 -98 -225.5 -138.5t-262.5 -40.5q-101 0 -193.5 26t-174 81.5t-141.5 136t-95 197t-35 256.5z" />
    <glyph glyph-name="H" unicode="H" horiz-adv-x="1468" 
d="M199 45v1255q0 28 13.5 37t45.5 9h45q31 0 44 -9t13 -37v-536h746v536q0 28 13.5 37t45.5 9h45q31 0 44.5 -9t13.5 -37v-1255q0 -28 -13 -36.5t-45 -8.5h-45q-32 0 -45.5 8.5t-13.5 36.5v567h-746v-567q0 -28 -12.5 -36.5t-44.5 -8.5h-45q-32 0 -45.5 8.5t-13.5 36.5z
" />
    <glyph glyph-name="I" unicode="I" horiz-adv-x="552" 
d="M195 45v1255q0 28 13.5 37t45.5 9h45q31 0 44 -9t13 -37v-1255q0 -28 -12.5 -36.5t-44.5 -8.5h-45q-32 0 -45.5 8.5t-13.5 36.5z" />
    <glyph glyph-name="J" unicode="J" horiz-adv-x="569" 
d="M-13 -194q2 12 13 18q44 29 78 61t56 59.5t37.5 65.5t23 64.5t11.5 71.5t4.5 71t0.5 78v1005q0 28 13.5 37t45.5 9h45q31 0 44.5 -9t13.5 -37v-948q0 -99 -4.5 -166.5t-21.5 -144.5t-47.5 -132t-85 -108.5t-132.5 -95.5q-8 -4 -15 -4q-12 0 -20 12l-55 70q-5 9 -5 18v5z
" />
    <glyph glyph-name="K" unicode="K" horiz-adv-x="1216" 
d="M199 45v1255q0 28 13.5 37t45.5 9h45q31 0 44 -9t13 -37v-542h240l356 538q17 27 34 38.5t50 11.5h74q20 0 28 -15.5t-3 -34.5l-398 -596l459 -651q6 -9 6 -18q0 -7 -3 -14q-8 -17 -27 -17h-89q-57 0 -88 43l-348 506q-50 69 -106 69h-185v-573q0 -28 -12.5 -36.5
t-44.5 -8.5h-45q-32 0 -45.5 8.5t-13.5 36.5z" />
    <glyph glyph-name="L" unicode="L" horiz-adv-x="1032" 
d="M199 45v1255q0 28 13.5 37t45.5 9h45q31 0 44 -9t13 -37v-1136h641q28 0 37 -13.5t9 -44.5v-47q0 -32 -9 -45.5t-37 -13.5h-743q-32 0 -45.5 8.5t-13.5 36.5z" />
    <glyph glyph-name="M" unicode="M" horiz-adv-x="1757" 
d="M199 45l49 1255q0 28 15 37t48 9h103q50 0 67 -48l410 -1093l395 1093q17 48 68 48h106q34 0 49 -9.5t15 -36.5l49 -1255q0 -27 -14.5 -36t-47.5 -9h-38q-34 0 -48 8.5t-14 36.5l-33 856l2 250l-82 -248l-321 -854q-8 -20 -19.5 -28.5t-33.5 -8.5h-74q-22 0 -33.5 8.5
t-19.5 28.5l-324 854l-82 248l2 -250l-33 -856q0 -28 -14 -36.5t-47 -8.5h-39q-32 0 -46.5 9t-14.5 36z" />
    <glyph glyph-name="N" unicode="N" horiz-adv-x="1452" 
d="M199 45v1255q0 27 14.5 36.5t46.5 9.5h49q37 0 68 -48l584 -819l159 -254l-20 258v817q0 28 14 37t47 9h29q32 0 46.5 -9.5t14.5 -36.5v-1255q0 -27 -14.5 -36t-46.5 -9h-51q-35 0 -68 47l-594 838l-145 231l18 -227v-844q0 -28 -14 -36.5t-47 -8.5h-29q-32 0 -46.5 9
t-14.5 36z" />
    <glyph glyph-name="O" unicode="O" horiz-adv-x="1536" 
d="M90 674q0 142 48 269t134 223t214.5 152t281.5 56q201 0 356.5 -91.5t238.5 -250t83 -358.5q0 -142 -48 -269.5t-134 -223.5t-214.5 -152t-281.5 -56q-201 0 -356.5 91.5t-238.5 250.5t-83 359zM256 686q0 -116 33.5 -217t96 -178.5t161.5 -122.5t221 -45q159 0 277 74
t176.5 195t58.5 272q0 116 -33.5 217t-96 178.5t-161.5 122.5t-221 45q-159 0 -277 -74t-176.5 -195t-58.5 -272z" />
    <glyph glyph-name="P" unicode="P" horiz-adv-x="1163" 
d="M199 45v1255q0 28 13.5 37t45.5 9h328q117 0 208.5 -22t151.5 -59.5t99.5 -91.5t56 -115.5t16.5 -133.5q0 -206 -138 -327t-427 -124q-109 0 -193 8v-436q0 -28 -12.5 -36.5t-44.5 -8.5h-45q-32 0 -45.5 8.5t-13.5 36.5zM360 631q83 -13 170 -13q222 0 326.5 82.5
t104.5 217.5q0 131 -92 205.5t-281 74.5h-228v-567z" />
    <glyph glyph-name="Q" unicode="Q" horiz-adv-x="1523" 
d="M90 668q0 140 47.5 267.5t133 225t214.5 155.5t281 58q201 0 355.5 -90t236.5 -247t82 -357q0 -259 -150 -454.5t-381 -235.5q63 -73 205.5 -138t257.5 -65q84 0 152 47q19 11 30 -8q17 -39 17 -66q0 -47 -34 -78t-80 -42t-101 -11q-160 0 -307 83.5t-263 215.5
q-43 43 -124 54q-259 34 -415.5 222t-156.5 464zM256 686q0 -116 33 -217t95 -178.5t160.5 -122.5t221.5 -45q159 0 276 73.5t174.5 194t57.5 271.5q0 92 -20.5 175.5t-62 155t-101 123.5t-143 81.5t-181.5 29.5q-160 0 -277.5 -74t-175 -195t-57.5 -272z" />
    <glyph glyph-name="R" unicode="R" horiz-adv-x="1214" 
d="M199 45v1255q0 28 13.5 37t45.5 9h322q267 0 399.5 -111.5t132.5 -298.5q0 -137 -76 -229.5t-207 -137.5l328 -520q6 -9 6 -18q0 -7 -3 -14q-8 -17 -27 -17h-76q-40 0 -58 8.5t-30 30.5l-254 426q-41 70 -105 70h-250v-490q0 -28 -12.5 -36.5t-44.5 -8.5h-45
q-32 0 -45.5 8.5t-13.5 36.5zM360 678h240q180 0 267 68t87 190q0 132 -97 197t-306 65h-191v-520z" />
    <glyph glyph-name="S" unicode="S" horiz-adv-x="1093" 
d="M113 158q0 55 41 75q15 6 28 -2q73 -43 171 -71.5t198 -28.5q51 0 100.5 11.5t93 34.5t70.5 63t27 92q0 67 -40.5 120t-105.5 88t-143.5 67t-156.5 67.5t-142 78.5t-104 111q-38 64 -37 146v8q2 77 27.5 138.5t67.5 101.5t99 66.5t118.5 38t129.5 11.5q162 0 288 -55.5
t126 -128.5q0 -19 -13 -41t-36 -35q-13 -6 -31 6q-69 43 -156.5 74t-173.5 31q-76 0 -138 -18.5t-104.5 -63t-42.5 -109.5q0 -51 31.5 -93t83.5 -71t118.5 -60t135.5 -58t135.5 -67t118.5 -85.5t83.5 -114.5t31.5 -153q0 -161 -123.5 -260t-366.5 -99q-97 0 -189 21
t-156 64.5t-64 99.5z" />
    <glyph glyph-name="T" unicode="T" horiz-adv-x="1036" 
d="M-10 1251v37q0 31 8 44.5t31 13.5h979q23 0 31 -13.5t8 -44.5v-37q0 -30 -8 -42.5t-31 -12.5h-408v-1151q0 -28 -12.5 -36.5t-44.5 -8.5h-45q-32 0 -46 9t-14 36v1151h-409q-23 0 -31 12.5t-8 42.5z" />
    <glyph glyph-name="U" unicode="U" horiz-adv-x="1431" 
d="M190 670v630q0 27 14.5 36.5t45.5 9.5h39q33 0 47 -9t14 -37v-649q0 -276 91.5 -399t271.5 -123q65 0 118.5 16t100.5 54t79 96t50 145t18 199v661q0 28 14.5 37t47.5 9h39q31 0 45 -9.5t14 -36.5v-630q0 -353 -131 -525t-401 -172q-260 0 -388.5 172.5t-128.5 524.5z
" />
    <glyph glyph-name="V" unicode="V" horiz-adv-x="1196" 
d="M45 1300q-3 10 -3 18q0 28 32 28h90q46 0 59 -37l387 -1159l373 1159q13 37 59 37h82q32 0 32 -28q0 -8 -3 -18l-434 -1255q-15 -45 -64 -45h-106q-49 0 -64 45z" />
    <glyph glyph-name="W" unicode="W" horiz-adv-x="1871" 
d="M66 1300q-3 11 -3 19q0 27 31 27h88q47 0 60 -37l299 -1159l282 1142q14 54 62 54h114q50 0 62 -54l278 -1142l301 1159q13 37 60 37h80q31 0 31 -27q0 -8 -3 -19l-362 -1247q-16 -53 -62 -53h-108q-14 0 -23.5 2.5t-21.5 15t-19 35.5l-239 938l-33 217l-43 -217
l-240 -938q-11 -33 -26 -43t-37 -10h-119q-45 0 -61 53z" />
    <glyph glyph-name="X" unicode="X" horiz-adv-x="1183" 
d="M52 12q-4 6 -3 13q0 8 4 18l436 657l-403 603q-11 13 -4.5 28t29.5 15h84q31 0 49.5 -6.5t34.5 -30.5l329 -490l312 486q17 26 29 33.5t34 7.5h100q18 0 25.5 -12t-0.5 -31l-410 -619l432 -641q7 -8 7 -18q0 -5 -2 -10q-6 -15 -29 -15h-84q-31 0 -49.5 6.5t-34.5 30.5
l-358 530l-338 -526q-17 -26 -29.5 -33.5t-34.5 -7.5h-100q-18 0 -26 12z" />
    <glyph glyph-name="Y" unicode="Y" horiz-adv-x="1071" 
d="M2 1330q7 16 29 16h102q33 0 53 -33l357 -596l352 596q20 33 53 33h103q22 0 28 -16q2 -7 2 -13q0 -10 -6 -19l-452 -741v-512q0 -27 -14 -36t-46 -9h-45q-32 0 -45.5 8.5t-13.5 36.5v512l-453 741q-6 9 -6 19q0 6 2 13z" />
    <glyph glyph-name="Z" unicode="Z" horiz-adv-x="1120" 
d="M102 37v100q0 44 29 84l717 971h-707q-23 0 -31 12.5t-8 42.5v41q0 31 8 44.5t31 13.5h846q12 0 21.5 -11.5t9.5 -25.5v-101q0 -44 -29 -86l-717 -968h752q23 0 31 -13t8 -43v-41q0 -31 -7.5 -44t-31.5 -13h-891q-12 0 -21.5 11.5t-9.5 25.5z" />
    <glyph glyph-name="bracketleft" unicode="[" horiz-adv-x="679" 
d="M184 -313v1749q0 30 8.5 42.5t36.5 12.5h328q28 0 36.5 -12.5t8.5 -42.5v-25q0 -29 -9 -42t-36 -13h-227v-1589h227q27 0 36 -13.5t9 -42.5v-24q0 -30 -8.5 -43t-36.5 -13h-328q-28 0 -36.5 13t-8.5 43z" />
    <glyph glyph-name="backslash" unicode="\" horiz-adv-x="845" 
d="M47 1298q-20 48 29 48h82q22 0 33 -9t22 -32l721 -1467q19 -45 -29 -45h-80q-24 0 -35 8t-22 31z" />
    <glyph glyph-name="bracketright" unicode="]" horiz-adv-x="679" 
d="M78 -289q0 29 9 42.5t36 13.5h227v1589h-227q-27 0 -36 13t-9 42v25q0 30 8.5 42.5t36.5 12.5h328q28 0 36.5 -12.5t8.5 -42.5v-1749q0 -30 -8.5 -43t-36.5 -13h-328q-28 0 -36.5 13t-8.5 43v24z" />
    <glyph glyph-name="asciicircum" unicode="^" horiz-adv-x="851" 
d="M3.5 931q-7.5 16 8.5 38l363 493q22 26 52 26t50 -26l363 -493q16 -22 8.5 -38t-35.5 -16h-74q-20 2 -33 9.5t-28 27.5l-174 232l-78 143l-78 -143l-174 -232q-15 -20 -28 -27.5t-33 -9.5h-74q-28 0 -35.5 16z" />
    <glyph glyph-name="underscore" unicode="_" horiz-adv-x="1007" 
d="M43 -340q0 29 13 42t53 13h790q39 0 52.5 -12.5t13.5 -42.5v-27q0 -29 -13.5 -42t-52.5 -13h-790q-40 0 -53 12.5t-13 42.5v27z" />
    <glyph glyph-name="grave" unicode="`" horiz-adv-x="604" 
d="M88 1407q0 27 29 27h127q25 0 38.5 -9t24.5 -30l129 -248q6 -12 1.5 -19.5t-15.5 -7.5h-62q-19 0 -34 15l-220 233q-18 22 -18 39z" />
    <glyph glyph-name="a" unicode="a" horiz-adv-x="1030" 
d="M102 256q0 163 119.5 247.5t315.5 84.5q113 0 235 -27v135q0 48 -21 82.5t-58.5 51.5t-77.5 24.5t-87 7.5q-143 0 -321 -78q-22 -7 -33 11q-22 33 -22 61q0 41 40.5 73.5t102.5 50t125 26t119 8.5q389 0 389 -332v-637q0 -28 -14.5 -36.5t-49.5 -8.5h-18q-33 0 -45.5 8
t-16.5 37l-10 90q-66 -76 -160.5 -119t-197.5 -43q-155 0 -234.5 82.5t-79.5 200.5zM260 262q0 -67 44.5 -108t131.5 -41q101 0 198.5 56t137.5 128v123q-37 15 -111 25t-137 10q-264 0 -264 -193z" />
    <glyph glyph-name="b" unicode="b" horiz-adv-x="1157" 
d="M170 86v1339q0 27 14.5 36t48.5 9h31q35 0 49.5 -8.5t14.5 -36.5v-499q130 92 305 92q144 0 253 -67.5t164.5 -179.5t55.5 -251q0 -247 -161 -397t-413 -150q-182 0 -339 74q-9 4 -12 6.5t-7 10.5t-4 22zM328 160q101 -35 213 -35q177 0 287 105.5t110 291.5
q0 173 -84 261.5t-231 88.5q-83 0 -160.5 -29t-134.5 -81v-602z" />
    <glyph glyph-name="c" unicode="c" horiz-adv-x="972" 
d="M115 496q0 248 137.5 385t378.5 137q48 0 102 -8.5t109 -25.5t91 -50t36 -76q0 -25 -15 -55q-12 -20 -32 -10q-154 77 -297 77q-169 0 -257.5 -100.5t-88.5 -273.5q0 -174 93.5 -276.5t256.5 -102.5q136 0 270 82q25 15 45 -9l33 -43q9 -12 9 -23q0 -18 -21 -36
q-144 -115 -349 -115q-239 0 -370 139.5t-131 383.5z" />
    <glyph glyph-name="d" unicode="d" horiz-adv-x="1181" 
d="M115 473q0 254 148 399.5t386 145.5q128 0 266 -53v460q0 28 14.5 36.5t49.5 8.5h29q34 0 48.5 -9t14.5 -36v-1380q0 -28 -14 -36.5t-49 -8.5h-19q-33 0 -45 8t-16 37l-13 107q-142 -179 -372 -179q-90 0 -165.5 29.5t-135 88.5t-93 157t-34.5 225zM283 453
q0 -150 73.5 -241t225.5 -91q104 3 192.5 71t140.5 164v461q-145 57 -256 57q-169 0 -272.5 -105t-103.5 -316z" />
    <glyph glyph-name="e" unicode="e" horiz-adv-x="1085" 
d="M115 485q0 154 54 272.5t166 189t269 71.5h4q201 0 311 -108q111 -108 111 -287q0 -72 -16 -144q-4 -17 -14.5 -22.5t-30.5 -5.5h-693q2 -85 32 -150.5t79 -103.5t108.5 -57t127.5 -19q138 0 295 61q31 11 45 -24l20 -47q14 -34 -18 -50q-168 -88 -365 -88q-98 0 -184 31
t-154 92t-107.5 161t-39.5 228zM276 590h605v45q0 113 -77 178.5t-196 65.5q-135 0 -222 -72t-110 -217z" />
    <glyph glyph-name="f" unicode="f" horiz-adv-x="690" 
d="M88 901v37q0 12 8.5 22t20.5 11l151 20v58q1 206 104.5 317t289.5 111q182 0 182 -111v-18q0 -12 -8 -18.5t-19 -4.5q-94 8 -127 8q-266 0 -266 -284v-58h270q12 0 20.5 -8t8.5 -20v-74q0 -12 -8.5 -20.5t-20.5 -8.5h-270v-815q0 -27 -15 -36t-49 -9h-28q-35 0 -49.5 8.5
t-14.5 36.5v815l-151 10q-12 0 -20.5 9.5t-8.5 21.5z" />
    <glyph glyph-name="g" unicode="g" horiz-adv-x="1134" 
d="M154 -236q0 69 35.5 136.5t97.5 101.5q-80 64 -80 154q0 61 33.5 116t91.5 80q-82 46 -126 123.5t-44 175.5q0 164 118 265.5t316 101.5q209 0 330 -111q24 63 66.5 108.5t101.5 45.5q39 0 68 -26.5t32 -63.5q0 -15 -18 -21q-116 -33 -183 -129q41 -74 41 -170
q0 -162 -119 -262t-319 -100q-85 0 -152 18q-46 -13 -70 -44.5t-24 -65.5q0 -37 26 -60.5t70.5 -35t101.5 -17.5t120.5 -11.5t127 -13t120.5 -26t101.5 -47t70.5 -78.5t26 -119q-3 -156 -135.5 -242t-339.5 -86q-96 0 -180 17t-154 52t-110.5 95t-40.5 139zM305 -209
q0 -95 90 -144.5t238 -49.5q146 0 237 51t91 131q0 49 -38 81t-106 46t-136.5 21.5t-154.5 15.5t-137 20q-40 -33 -62 -79.5t-22 -92.5zM322 651q0 -110 73 -175.5t201 -65.5q131 0 206 66.5t75 174.5q0 115 -74 180.5t-207 65.5q-130 0 -202 -66t-72 -180z" />
    <glyph glyph-name="h" unicode="h" horiz-adv-x="1171" 
d="M170 45v1380q0 28 14 36.5t49 8.5h31q34 0 49 -9t15 -36v-540q77 62 169.5 97.5t182.5 35.5q102 0 178 -30.5t119 -83.5t63.5 -116t20.5 -137v-606q0 -28 -14.5 -36.5t-49.5 -8.5h-30q-34 0 -48 8.5t-14 36.5v561q0 53 -11 98t-36 84.5t-72.5 62.5t-113.5 23
q-182 0 -344 -137v-692q0 -28 -14.5 -36.5t-49.5 -8.5h-31q-34 0 -48.5 9t-14.5 36z" />
    <glyph glyph-name="i" unicode="i" horiz-adv-x="514" 
d="M170 1241q0 54 35 85.5t82 31.5t81.5 -29.5t34.5 -83.5q0 -55 -34.5 -85t-81.5 -32q-48 0 -82.5 29.5t-34.5 83.5zM211 45v901q0 28 13 36.5t46 8.5h37q32 0 46 -9t14 -36v-901q0 -27 -14 -36t-46 -9h-37q-33 0 -46 8.5t-13 36.5z" />
    <glyph glyph-name="j" unicode="j" horiz-adv-x="509" 
d="M-41 -424q0 21 27 18l24 -2q65 2 106 19t61.5 53t27 77.5t6.5 108.5v1096q0 28 13 36.5t46 8.5h37q32 0 46 -9t14 -36v-1075q0 -75 -5.5 -130.5t-23 -111t-47 -89.5t-80.5 -55q-49 -20 -115 -20h-6q-56 2 -93.5 29.5t-37.5 81.5zM170 1241q0 54 35 85.5t82 31.5
t81.5 -29.5t34.5 -83.5q0 -55 -34.5 -85t-81.5 -32q-48 0 -82.5 29.5t-34.5 83.5z" />
    <glyph glyph-name="k" unicode="k" horiz-adv-x="993" 
d="M170 45v1380q0 28 14 36.5t49 8.5h31q34 0 49 -9t15 -36v-839h176l289 370q16 20 29 27.5t34 7.5h102q19 0 21 -15t-10 -30l-330 -422l244 -325q4 -6 14.5 -20.5t14.5 -19.5t12.5 -16t12.5 -16t11.5 -14t13.5 -14.5t14 -12.5t17 -14q20 -16 20 -30q0 -11 -12 -26
q-33 -26 -88 -26q-91 0 -170 112l-241 347h-174v-404q0 -28 -14.5 -36.5t-49.5 -8.5h-31q-34 0 -48.5 9t-14.5 36z" />
    <glyph glyph-name="l" unicode="l" horiz-adv-x="600" 
d="M172 369v1056q0 28 14.5 36.5t49.5 8.5h30q34 0 49 -9t15 -36v-1058q3 -149 31.5 -198t111.5 -52h8q41 0 105 18q41 10 41 -22v-68q0 -20 -15 -29q-60 -43 -159 -43q-55 0 -98.5 12t-72.5 31.5t-50 52t-32.5 63.5t-18 75.5t-8 79t-1.5 82.5z" />
    <glyph glyph-name="m" unicode="m" horiz-adv-x="1681" 
d="M172 946q-2 5 -2 10q0 11 10 19q26 20 68 20q75 0 98 -114q68 65 151.5 101t170.5 36q170 0 252 -152q89 85 175.5 118.5t182.5 33.5q55 0 104.5 -18.5t93 -57t69.5 -110t26 -166.5v-621q0 -28 -14.5 -36.5t-49.5 -8.5h-30q-34 0 -48 8.5t-14 36.5v576q0 133 -42 193
t-132 60q-73 0 -148 -38.5t-132 -98.5v-692q0 -28 -14.5 -36.5t-49.5 -8.5h-31q-33 0 -47 8.5t-14 36.5v576q0 133 -42 193t-132 60q-73 0 -148.5 -38.5t-132.5 -98.5v-692q0 -28 -14 -36.5t-49 -8.5h-31q-34 0 -48.5 9t-14.5 36v709q0 116 -21 192z" />
    <glyph glyph-name="n" unicode="n" horiz-adv-x="1193" 
d="M172 946q-2 5 -2 10q0 11 10 19q26 20 68 20q75 0 98 -114q77 63 170.5 100t185.5 37q102 0 178 -30.5t119 -83.5t63.5 -116t20.5 -137v-606q0 -28 -14 -36.5t-49 -8.5h-31q-33 0 -47 8.5t-14 36.5v561q0 53 -11 98t-36.5 84.5t-73 62.5t-113.5 23q-182 0 -344 -137v-692
q0 -28 -14 -36.5t-49 -8.5h-31q-34 0 -48.5 9t-14.5 36v709q0 116 -21 192z" />
    <glyph glyph-name="o" unicode="o" horiz-adv-x="1189" 
d="M115 496q0 236 138.5 379t373.5 143q234 0 373 -143t139 -379t-138.5 -379.5t-373.5 -143.5q-234 0 -373 143.5t-139 379.5zM279 496q0 -174 93 -276.5t255 -102.5q164 0 256 102.5t92 276.5t-93 276t-255 102q-164 0 -256 -102t-92 -276z" />
    <glyph glyph-name="p" unicode="p" horiz-adv-x="1181" 
d="M168 946q-2 5 -2 10q0 11 10 19q26 20 68 20q76 0 98 -106q75 61 168.5 95t187.5 34q193 0 312.5 -133t119.5 -365q0 -130 -43 -235t-117 -172.5t-170.5 -103.5t-205.5 -36q-136 0 -246 52v-508q0 -27 -14.5 -36t-46.5 -9h-35q-35 0 -49.5 8.5t-14.5 36.5v1237
q0 120 -20 192zM348 170q93 -53 246 -53q121 0 206 56t124 145.5t39 203.5q0 178 -79 265t-210 87q-86 0 -175 -36.5t-151 -92.5v-575z" />
    <glyph glyph-name="q" unicode="q" horiz-adv-x="1148" 
d="M115 483q3 161 75.5 283t199.5 187t290 65q179 0 336 -74q22 -10 22 -39v-1388q0 -27 -14.5 -36t-48.5 -9h-33q-35 0 -49 8.5t-14 36.5v594q-138 -138 -336 -138q-91 0 -167.5 30t-135.5 90t-92 159.5t-33 230.5zM283 469q0 -160 73.5 -252.5t225.5 -93.5
q88 3 164.5 50.5t132.5 123.5v534q-101 35 -207 35q-177 0 -283 -105t-106 -292z" />
    <glyph glyph-name="r" unicode="r" horiz-adv-x="729" 
d="M172 946q-2 5 -2 10q0 11 10 19q26 20 68 20q84 0 100 -153q43 73 121 119.5t160 46.5q52 0 94.5 -23t42.5 -63q0 -34 -31 -80q-10 -13 -26 -8q-49 18 -99 18q-92 0 -164 -59.5t-98 -155.5v-592q0 -28 -13.5 -36.5t-45.5 -8.5h-37q-33 0 -46 8.5t-13 36.5v709
q0 116 -21 192z" />
    <glyph glyph-name="s" unicode="s" horiz-adv-x="884" 
d="M123 123q0 44 31 57q7 4 14 0q164 -59 278 -59q44 0 77 3.5t73 15.5t62.5 41t23.5 73q0 43 -30 77t-78 59t-106.5 48t-117 50.5t-106.5 60t-78 82.5q-29 48 -29 108q-1 96 55 161q54 64 134.5 91t177.5 27q108 0 207.5 -37t105.5 -100q0 -20 -12.5 -44.5t-26.5 -25.5
q-8 0 -12 2q-59 24 -142.5 45t-156.5 21q-82 0 -129 -32t-47 -87q0 -36 30.5 -67t78.5 -56t107 -50t117.5 -55t107 -65t79.5 -85.5t31 -114.5q0 -149 -114 -221q-116 -74 -304 -73q-71 1 -137 16.5t-115 50.5t-49 83z" />
    <glyph glyph-name="t" unicode="t" horiz-adv-x="782" 
d="M80 901v37q0 12 8.5 22t20.5 11l124 20l31 262q0 12 9.5 20.5t21.5 8.5h76q12 0 20 -8.5t8 -20.5v-262h281q12 0 20.5 -8t8.5 -20v-74q0 -12 -8.5 -20.5t-20.5 -8.5h-281v-479q4 -109 19.5 -165t47 -77.5t91.5 -21.5t158 35q13 5 25 0.5t12 -17.5v-69q0 -18 -13 -31
q-83 -62 -194 -62q-94 0 -154.5 25t-92.5 80t-44 125.5t-12 179.5v477l-133 10q-12 0 -20.5 9.5t-8.5 21.5z" />
    <glyph glyph-name="u" unicode="u" horiz-adv-x="1128" 
d="M170 473v473q0 28 14 36.5t49 8.5h31q34 0 48 -8.5t14 -36.5v-467q0 -186 47.5 -273t156.5 -87q88 0 180 60t150 171v596q0 28 14.5 36.5t49.5 8.5h30q34 0 49 -9t15 -36v-901q0 -28 -14.5 -36.5t-49.5 -8.5h-18q-33 0 -45.5 8t-16.5 37l-12 119q-88 -106 -164.5 -148.5
t-187.5 -42.5q-170 0 -255 115.5t-85 384.5z" />
    <glyph glyph-name="v" unicode="v" horiz-adv-x="983" 
d="M72 948q-2 6 -2 11q0 9 6 18q10 14 26 14h82q22 0 39 -12.5t23 -32.5l280 -799l287 799q6 20 22.5 32.5t38.5 12.5h68q17 0 27 -14q6 -9 6 -18q0 -5 -2 -11l-348 -905q-16 -43 -64 -43h-88q-47 0 -63 43z" />
    <glyph glyph-name="w" unicode="w" horiz-adv-x="1460" 
d="M96 948q-3 7 -3 14q0 9 5 16q9 13 21 13h102q15 0 29 -12.5t18 -32.5l207 -790l211 792q6 19 20.5 31t30.5 12h82q16 0 30.5 -12t20.5 -31l203 -792l209 790q4 20 18 32.5t29 12.5h84q12 0 21 -13q5 -7 5 -16q0 -7 -3 -14l-267 -905q-12 -43 -49 -43h-110q-40 0 -52 43
l-167 645l-21 156l-25 -156l-172 -645q-12 -43 -51 -43h-106q-37 0 -49 43z" />
    <glyph glyph-name="x" unicode="x" horiz-adv-x="937" 
d="M70 11q-1 2 -1 5q0 10 9 25l330 465l-308 446q-9 15 -5 27t16 12h110q39 0 62 -33l227 -337l219 337q20 33 62 33h96q12 0 15.5 -12t-5.5 -27l-301 -452l326 -459q7 -11 7 -21q-1 -4 -1 -7q-4 -13 -15 -13h-110q-42 0 -62 33l-249 352l-244 -352q-13 -20 -26 -26.5
t-36 -6.5h-100q-13 0 -16 11z" />
    <glyph glyph-name="y" unicode="y" horiz-adv-x="989" 
d="M86 948q-2 6 -2 11q0 10 6 19q10 13 27 13h82q46 0 61 -45l277 -852h4l299 852q15 45 61 45h72q17 0 27 -13q6 -9 6 -19q0 -5 -2 -11l-379 -1052q-20 -55 -32 -87t-34.5 -84.5t-41 -84t-47.5 -70t-57.5 -59t-66.5 -34.5q-33 -12 -70 -12h-10q-53 2 -89.5 30.5t-39.5 88.5
q0 26 8 45q6 21 29 9q40 -19 74 -19q46 0 88.5 34t70.5 81t52 108l55 158h-45q-29 0 -46.5 5.5t-25.5 25.5z" />
    <glyph glyph-name="z" unicode="z" horiz-adv-x="888" 
d="M92 41v70q0 41 27 71l551 660h-533q-28 0 -36.5 14t-8.5 47v29q0 32 8.5 45.5t36.5 13.5h682q17 0 29 -12t12 -29v-69q0 -43 -26 -72l-551 -659h567q27 0 36 -14t9 -46v-29q0 -33 -8.5 -47t-36.5 -14h-717q-17 0 -29 12t-12 29z" />
    <glyph glyph-name="braceleft" unicode="{" horiz-adv-x="710" 
d="M37 532v64q0 28 26 33q62 13 103.5 40t62 68.5t28 85t7.5 103.5q0 42 -5 124t-5 117q0 163 91 256.5t261 67.5q31 -6 31 -31v-53q0 -29 -27 -29q-53 0 -89.5 -11t-59 -31t-35 -56t-16.5 -77.5t-4 -104.5q0 -36 4 -113t4 -115q0 -106 -50 -187t-151 -118v-4
q102 -39 151.5 -120.5t49.5 -186.5q0 -41 -4 -117.5t-4 -111.5q0 -165 43.5 -223t160.5 -58q27 0 27 -29v-53q0 -27 -31 -31q-166 -27 -259 64t-93 262q0 45 4 134.5t4 129.5q0 46 -4 81t-16.5 70.5t-33.5 60t-57 43.5t-85 26q-29 4 -29 30z" />
    <glyph glyph-name="bar" unicode="|" horiz-adv-x="501" 
d="M184 -369v1821q0 28 13.5 36.5t46.5 8.5h14q32 0 45.5 -8.5t13.5 -36.5v-1821q0 -28 -13 -36.5t-46 -8.5h-14q-32 0 -46 9t-14 36z" />
    <glyph glyph-name="braceright" unicode="}" horiz-adv-x="710" 
d="M74 -285q0 29 26 29q117 0 161 58t44 223q0 35 -4 111.5t-4 117.5q0 105 49.5 186.5t151.5 120.5v4q-101 37 -151 118t-50 187q0 38 4 115t4 113q0 79 -7 127t-28.5 85t-62.5 52.5t-107 15.5q-26 0 -26 29v53q0 25 30 31q170 26 261.5 -67.5t91.5 -256.5q0 -35 -5.5 -117
t-5.5 -124q0 -60 7.5 -103.5t28 -85t62 -68.5t103.5 -40q27 -5 27 -33v-64q0 -26 -29 -30q-49 -7 -85 -26t-57 -43.5t-33.5 -60t-16.5 -70.5t-4 -81q0 -40 4 -129.5t4 -134.5q0 -170 -93.5 -261.5t-259.5 -64.5q-30 4 -30 31v53z" />
    <glyph glyph-name="asciitilde" unicode="~" horiz-adv-x="1263" 
d="M120 501q-2 19 7 34q44 66 114.5 104.5t145.5 38.5q65 0 154 -33t175 -65.5t144 -32.5q50 0 91 24.5t83 77.5q25 32 49 13l45 -41q14 -12 17 -24.5t0.5 -20.5t-10.5 -23q-115 -156 -277 -156q-53 0 -116 19t-112 42.5t-110 42.5t-110 19q-112 0 -174 -88
q-12 -17 -28.5 -19.5t-29.5 11.5l-43 45q-13 13 -15 32z" />
    <glyph glyph-name="uni00A0" unicode="&#xa0;" horiz-adv-x="483" 
 />
    <glyph glyph-name="cent" unicode="&#xa2;" horiz-adv-x="1257" 
d="M287 469q0 215 107 342t302 152v133q0 26 11 34.5t38 8.5h48q26 0 37.5 -8.5t11.5 -34.5v-131q111 -9 194.5 -44.5t83.5 -95.5q0 -21 -18 -53q-12 -17 -33 -10q-112 51 -240 63v-716q114 9 203 67q34 20 51 10q6 -3 11 -10l30 -39q26 -32 -10 -57q-116 -87 -272 -107
v-155q0 -26 -11 -34.5t-38 -8.5h-48q-26 0 -37.5 8.5t-11.5 34.5v155q-198 22 -303.5 151.5t-105.5 344.5zM444 469q0 -149 70 -242.5t201 -115.5v712q-135 -20 -203 -111.5t-68 -242.5z" />
    <glyph glyph-name="currency" unicode="&#xa4;" horiz-adv-x="1300" 
d="M287 260v27q0 27 9 39t36 12h94v131h-94q-28 0 -36.5 11.5t-8.5 39.5v27q0 27 9 39t36 12h94v631q0 26 13 34.5t42 8.5h307q106 0 188.5 -23.5t134.5 -61.5t85.5 -92.5t47 -111t13.5 -121.5q0 -172 -120 -282.5t-336 -110.5h-221v-131h378q28 0 37 -11.5t9 -39.5v-27
q0 -27 -9 -39t-37 -12h-378v-166q0 -26 -13 -34.5t-43 -8.5h-43q-29 0 -42 8.5t-13 34.5v166h-94q-28 0 -36.5 11.5t-8.5 39.5zM580 598h213q155 0 234.5 70.5t82.5 199.5q0 133 -79.5 206t-237.5 73h-213v-549z" />
    <glyph glyph-name="section" unicode="&#xa7;" horiz-adv-x="1105" 
d="M121 995q0 167 127 274t362 107q108 0 193 -18q29 -6 26 -35l-10 -80q0 -9 -8.5 -14t-19.5 -2q-65 20 -119 20q-84 0 -122 -41.5t-38 -109.5q0 -59 29 -122.5t72 -117.5t93.5 -117t93.5 -120t72 -127t29 -138q0 -169 -131.5 -276t-374.5 -107q-99 0 -176 21q-29 7 -26 35
l8 73q2 9 10 14.5t18 2.5q70 -17 111 -17q87 0 126.5 41.5t39.5 108.5q0 51 -21 105t-55 102.5t-75 99t-82.5 102.5t-75.5 104t-55 112.5t-21 119.5zM266 1006q0 -70 39 -147.5t94.5 -147t111.5 -139.5t95 -148.5t39 -149.5q0 -108 -74 -176q91 22 138 92t47 154
q0 69 -39.5 145.5t-96 146t-112.5 139t-95.5 147t-39.5 147.5q0 124 98 184q-101 -18 -153 -87.5t-52 -159.5z" />
    <glyph glyph-name="copyright" unicode="&#xa9;" horiz-adv-x="1591" 
d="M104 682q0 149 47 278t134 225t219 151t293 55q214 0 373 -95t239 -254.5t80 -359.5q0 -149 -46.5 -277.5t-133 -225t-218.5 -151.5t-294 -55q-161 0 -293 55t-219 151.5t-134 225t-47 277.5zM229 682q0 -261 152 -425.5t416 -164.5q177 0 307 77t196 209.5t66 303.5
q0 173 -66 306t-196 209.5t-307 76.5q-176 0 -306 -76.5t-196 -209.5t-66 -306zM453 686q0 185 104 295.5t272 110.5q94 0 166 -30t72 -81q0 -25 -20 -55q-10 -13 -27 -6q-111 49 -193 49q-114 0 -177.5 -75.5t-63.5 -207.5q0 -131 60.5 -203.5t174.5 -72.5q85 0 176 51
q27 17 45 -6l21 -27q18 -31 -4 -53q-45 -39 -117 -63.5t-127 -24.5q-177 0 -269.5 105.5t-92.5 293.5z" />
    <glyph glyph-name="guillemotleft" unicode="&#xab;" horiz-adv-x="1011" 
d="M64 507.5q0 13.5 8 22.5l334 390q18 22 38 2l62 -54q21 -21 2 -43l-277 -317l277 -318q8 -9 7.5 -21.5t-9.5 -21.5l-62 -53q-7 -8 -19 -7.5t-19 9.5l-334 389q-8 9 -8 22.5zM472 512q0 14 7 23l293 339q7 9 19.5 10t19.5 -7l61 -54q21 -21 2 -43l-235 -268l256 -291
q8 -9 7.5 -21.5t-9.5 -21.5l-62 -53q-8 -8 -18.5 -8t-19.5 10l-314 362q-7 9 -7 23z" />
    <glyph glyph-name="logicalnot" unicode="&#xac;" horiz-adv-x="1214" 
d="M170 600v27q0 29 9 42t36 13h780q28 0 36.5 -12.5t8.5 -42.5v-287q0 -23 -10 -30t-37 -7h-32q-26 0 -37 7t-11 30v205h-698q-28 0 -36.5 12.5t-8.5 42.5z" />
    <glyph glyph-name="uni00AD" unicode="&#xad;" horiz-adv-x="944" 
d="M156 489v37q0 29 9 41.5t36 12.5h542q27 0 36 -12.5t9 -41.5v-37q0 -29 -8.5 -41t-36.5 -12h-542q-28 0 -36.5 12t-8.5 41z" />
    <glyph glyph-name="registered" unicode="&#xae;" horiz-adv-x="1071" 
d="M113 1040q0 184 115 307t309 123q129 0 226 -58t146 -155t49 -217q0 -118 -49 -214t-146 -155t-226 -59q-193 0 -308.5 123.5t-115.5 304.5zM217 1040q0 -141 83 -233t237 -92t236.5 92t82.5 233q0 142 -82.5 237t-236.5 95t-237 -95t-83 -237zM383 840q0 -19 8 -25
t25 -6h16q19 0 26 6t7 25v149h86l88 -164q11 -16 25 -16h43q12 0 16 11t-2 20l-90 166q86 31 86 133q0 58 -43.5 99.5t-126.5 41.5h-129q-35 0 -35 -25v-415zM465 1063v141h82q47 0 68.5 -18.5t21.5 -46.5q0 -76 -90 -76h-82z" />
    <glyph glyph-name="degree" unicode="&#xb0;" horiz-adv-x="800" 
d="M102 1190q0 58 17 110t51.5 95t93.5 68.5t135 25.5t135 -25.5t94 -68.5t52.5 -95t17.5 -110q0 -59 -18 -111.5t-53 -94.5t-93.5 -66.5t-134.5 -24.5q-146 0 -221.5 85.5t-75.5 211.5zM229 1190q0 -79 43 -132.5t127 -53.5t127 53.5t43 132.5q0 76 -43.5 131t-126.5 55
q-85 0 -127.5 -54.5t-42.5 -131.5z" />
    <glyph glyph-name="plusminus" unicode="&#xb1;" horiz-adv-x="1144" 
d="M160 141v27q0 29 9 42t36 13h735q28 0 36.5 -12.5t8.5 -42.5v-27q0 -29 -9 -42t-36 -13h-735q-28 0 -36.5 12.5t-8.5 42.5zM160 600v27q0 29 9 42t36 13h299v324q0 28 12.5 36.5t42.5 8.5h27q29 0 42 -9t13 -36v-324h299q28 0 36.5 -12.5t8.5 -42.5v-27q0 -29 -9 -42
t-36 -13h-299v-223q0 -28 -12.5 -37t-42.5 -9h-27q-29 0 -42 9.5t-13 36.5v223h-299q-28 0 -36.5 12.5t-8.5 42.5z" />
    <glyph glyph-name="paragraph" unicode="&#xb6;" horiz-adv-x="1105" 
d="M104 956q0 80 23 148.5t70 123.5t127.5 86.5t185.5 31.5h108q12 0 20.5 -9.5t8.5 -21.5v-858q0 -149 -32.5 -256t-120.5 -162q51 8 92 31.5t68.5 53.5t47.5 72t31 81.5t17.5 89t8 86.5t1.5 82v780q0 12 8 21.5t20 9.5h78q12 0 20.5 -9.5t8.5 -21.5l2 -785
q0 -295 -127.5 -452.5t-382.5 -157.5q-96 0 -194 25q-28 7 -25 37l8 79q1 13 10 18.5t21 0.5q61 -21 108 -21q195 0 195 344v162q-105 0 -185.5 31.5t-127.5 87t-70 124t-23 148.5zM238 956q3 -125 71 -192.5t201 -67.5v521q-133 0 -201 -68t-71 -193z" />
    <glyph glyph-name="guillemotright" unicode="&#xbb;" horiz-adv-x="1056" 
d="M154.5 199.5q-0.5 12.5 7.5 21.5l256 291l-236 268q-19 22 2 43l62 54q7 8 19.5 7t19.5 -10l293 -339q8 -9 8 -23t-8 -23l-314 -362q-9 -10 -20 -10t-19 8l-61 53q-9 9 -9.5 21.5zM541.5 168.5q-0.5 12.5 7.5 21.5l276 318l-276 317q-19 22 2 43l61 54q20 20 39 -2
l334 -390q7 -9 7 -22.5t-7 -22.5l-334 -389q-7 -9 -19.5 -9.5t-19.5 7.5l-61 53q-9 9 -9.5 21.5z" />
    <glyph glyph-name="onequarter" unicode="&#xbc;" horiz-adv-x="1898" 
d="M207 1108l26 -39q18 -24 48 -8l100 61v-489q0 -27 11.5 -36t41.5 -9h33q30 0 41.5 9t11.5 36v606q0 26 -11.5 34.5t-41.5 8.5h-29q-28 0 -55 -16l-168 -107q-27 -20 -8 -51zM416 76l831 1192q25 36 64 12l41 -25q40 -21 16 -57l-833 -1192q-25 -36 -64 -12l-39 24
q-41 21 -16 58zM1102 207q0 -49 49 -49h326v-113q0 -27 11.5 -36t41.5 -9h26q30 0 42 9t12 36v113h63q27 0 35 10t8 39v24q0 28 -8 38t-35 10h-63v417q0 27 -12 36t-42 9h-59q-34 0 -53 -10t-37 -35l-274 -381q-31 -45 -31 -79v-29zM1245 279l232 317v-317h-232z" />
    <glyph glyph-name="onehalf" unicode="&#xbd;" horiz-adv-x="1806" 
d="M207 1108l26 -39q18 -24 48 -8l100 61v-489q0 -27 11.5 -36t41.5 -9h33q30 0 41.5 9t11.5 36v606q0 26 -11.5 34.5t-41.5 8.5h-29q-28 0 -55 -16l-168 -107q-27 -20 -8 -51zM416 76l831 1192q25 36 64 12l41 -25q40 -21 16 -57l-833 -1192q-25 -36 -64 -12l-39 24
q-41 21 -16 58zM1155 53q0 -30 13 -41.5t40 -11.5h416q27 0 35 10t8 39v31q0 27 -8 37t-35 10h-326q6 23 36 48.5t69.5 48t85 54.5t83 66t62.5 84t25 107q0 116 -73.5 171.5t-188.5 55.5q-50 0 -98.5 -10.5t-88 -39.5t-39.5 -71q0 -38 35 -55q12 -5 29 6q70 47 162 47
q116 0 121 -111q0 -54 -37.5 -96.5t-91 -74t-106.5 -66t-90.5 -90.5t-37.5 -129v-19z" />
    <glyph glyph-name="multiply" unicode="&#xd7;" horiz-adv-x="1042" 
d="M154 299q-26 29 2 57l268 273l-266 272q-28 28 -2 57l41 46q12 13 27.5 12.5t27.5 -12.5l266 -279l273 279q12 12 27.5 12.5t27.5 -12.5l41 -46q26 -29 -2 -57l-269 -270l271 -275q28 -28 2 -57l-41 -45q-12 -13 -27.5 -12.5t-27.5 12.5l-275 281l-268 -281
q-12 -12 -27.5 -12.5t-27.5 12.5z" />
    <glyph glyph-name="divide" unicode="&#xf7;" horiz-adv-x="1146" 
d="M137 600v27q0 29 9 42t36 13h781q28 0 36.5 -12.5t8.5 -42.5v-27q0 -29 -9 -42t-36 -13h-781q-28 0 -36.5 12.5t-8.5 42.5zM449 221q0 49 36.5 84t87.5 35q54 0 91.5 -34.5t37.5 -84.5q0 -52 -37.5 -86.5t-91.5 -34.5q-52 0 -88 34.5t-36 86.5zM449 987q0 52 36 86.5
t88 34.5q54 0 91.5 -34.5t37.5 -86.5q0 -50 -37.5 -84.5t-91.5 -34.5q-51 0 -87.5 35t-36.5 84z" />
    <glyph glyph-name="Delta" unicode="&#x394;" horiz-adv-x="1275" 
d="M67 24q-12 24 7 64l538 1190q8 17 15 24t20 7h31q20 0 35 -31l538 -1190q19 -40 7 -64t-50 -24h-1091q-38 0 -50 24zM260 141h805l-326 721q-41 111 -75 230q-31 -107 -76 -230z" />
    <glyph glyph-name="afii10023" unicode="&#x401;" horiz-adv-x="1093" 
d="M199 45v1255q0 27 14 36.5t45 9.5h721q23 0 31 -13.5t8 -44.5v-39q0 -30 -8 -42.5t-31 -12.5h-617v-430h500q24 0 31.5 -13t7.5 -44v-39q0 -30 -8 -43t-31 -13h-500v-460h617q23 0 31 -13.5t8 -44.5v-39q0 -30 -8 -42.5t-31 -12.5h-721q-31 0 -45 9t-14 36zM266 1561
q0 48 28 77t75 29q51 0 82.5 -29.5t31.5 -76.5t-31.5 -76t-82.5 -29q-47 0 -75 29t-28 76zM709 1561q0 48 29 77t79 29q48 0 79.5 -29.5t31.5 -76.5t-31.5 -76t-79.5 -29q-50 0 -79 28.5t-29 76.5z" />
    <glyph glyph-name="afii10017" unicode="&#x410;" horiz-adv-x="1216" 
d="M-4 45l551 1292q16 37 45 37h33q29 0 45 -37l551 -1292q10 -22 -1 -33.5t-36 -11.5h-62q-30 0 -48 9.5t-32 41.5l-112 271h-645l-111 -271q-14 -32 -32 -41.5t-48 -9.5h-61q-25 0 -36 11.5t-1 33.5zM346 469h524l-174 422l-88 239l-88 -239z" />
    <glyph glyph-name="afii10018" unicode="&#x411;" horiz-adv-x="1206" 
d="M199 51v1243q0 52 67 52h729q23 0 31 -13.5t8 -44.5v-37q0 -30 -8 -42.5t-31 -12.5h-637l4 -385q128 14 224 14q524 0 524 -385q0 -211 -131.5 -325.5t-376.5 -114.5h-336q-41 0 -54 14t-13 37zM362 668l7 -523h221q169 0 264.5 73t95.5 212q0 72 -30.5 123t-85 77.5
t-115.5 38t-135 11.5q-104 0 -222 -12z" />
    <glyph glyph-name="afii10019" unicode="&#x412;" horiz-adv-x="1243" 
d="M199 51v1243q0 52 67 52h350q102 0 182 -17.5t132.5 -47t87 -71.5t49 -89t14.5 -101q0 -104 -53.5 -190.5t-150.5 -131.5v-6q134 -35 199 -119t65 -200q0 -171 -129.5 -272t-388.5 -101h-357q-41 0 -54 14t-13 37zM358 147h310q150 0 225.5 66.5t75.5 175.5
q0 106 -71 161.5t-212 55.5h-328v-459zM358 754h279q122 0 198 64t76 163q0 219 -297 219h-256v-446z" />
    <glyph glyph-name="afii10020" unicode="&#x413;" horiz-adv-x="970" 
d="M199 45v1243q0 31 8 44.5t31 13.5h694q23 0 31 -13.5t8 -44.5v-37q0 -30 -8 -42.5t-31 -12.5h-572v-1151q0 -28 -12.5 -36.5t-44.5 -8.5h-45q-32 0 -45.5 8.5t-13.5 36.5z" />
    <glyph glyph-name="afii10021" unicode="&#x414;" horiz-adv-x="1400" 
d="M18 104q0 28 13.5 37t44.5 9h78q64 88 104.5 189t64 245.5t33.5 305t15 410.5q0 27 14 36.5t45 9.5h694q31 0 44.5 -9t13.5 -37v-1150h96q31 0 44 -9t13 -37v-409q0 -28 -12.5 -36.5t-44.5 -8.5h-35q-32 0 -45.5 8.5t-13.5 36.5v305h-1014v-305q0 -28 -13.5 -36.5
t-45.5 -8.5h-35q-32 0 -45 8.5t-13 36.5v409zM334 150h686v1044h-500q0 -386 -46 -640t-140 -404z" />
    <glyph glyph-name="afii10022" unicode="&#x415;" horiz-adv-x="1093" 
d="M199 45v1255q0 27 14 36.5t45 9.5h721q23 0 31 -13.5t8 -44.5v-39q0 -30 -8 -42.5t-31 -12.5h-617v-430h500q24 0 31.5 -13t7.5 -44v-39q0 -30 -8 -43t-31 -13h-500v-460h617q23 0 31 -13.5t8 -44.5v-39q0 -30 -8 -42.5t-31 -12.5h-721q-31 0 -45 9t-14 36z" />
    <glyph glyph-name="afii10024" unicode="&#x416;" horiz-adv-x="1753" 
d="M13.5 17q-8.5 17 2.5 32l441 651l-379 596q-11 19 -3.5 34.5t27.5 15.5h74q33 0 50 -11.5t34 -38.5l338 -538h195v542q0 28 13 37t44 9h45q32 0 45.5 -9t13.5 -37v-542h199l338 538q17 27 34 38.5t50 11.5h74q20 0 27.5 -15.5t-3.5 -34.5l-379 -596l441 -651
q11 -15 2.5 -32t-27.5 -17h-88q-57 0 -88 43l-330 506q-50 69 -106 69h-144v-573q0 -28 -13.5 -36.5t-45.5 -8.5h-45q-32 0 -44.5 8.5t-12.5 36.5v573h-140q-56 0 -106 -69l-330 -506q-31 -43 -88 -43h-88q-19 0 -27.5 17z" />
    <glyph glyph-name="afii10025" unicode="&#x417;" horiz-adv-x="1017" 
d="M31 145l30 62q15 29 48 16q106 -46 183 -67t159 -21q148 0 226.5 66.5t78.5 171.5q0 125 -86 180t-260 55h-111q-20 0 -25.5 7t-5.5 32v62q0 26 5.5 34.5t25.5 8.5h125q82 0 143 20.5t94 56t48.5 77t15.5 89.5q0 63 -24 108.5t-65 70t-88.5 36t-103.5 11.5
q-84 0 -167 -23t-144 -57q-27 -9 -41 10q-24 40 -24 63q0 50 64 88t153 55t184 17q85 0 159 -20t135.5 -60.5t97.5 -110t36 -161.5q0 -114 -70 -209t-194 -121q148 -19 223.5 -110t75.5 -217q0 -98 -36 -174t-100.5 -123t-149 -71t-185.5 -24q-231 0 -420 127q-23 17 -10 45
z" />
    <glyph glyph-name="afii10026" unicode="&#x418;" horiz-adv-x="1478" 
d="M199 45v1255q0 27 14.5 36.5t46.5 9.5h39q33 0 47 -9t14 -37v-841l-20 -258l158 254l594 843q31 48 67 48h58q32 0 46.5 -9.5t14.5 -36.5v-1255q0 -27 -14.5 -36t-46.5 -9h-39q-34 0 -48 8.5t-14 36.5v862l19 228l-144 -232l-604 -856q-33 -47 -68 -47h-59q-32 0 -46.5 9
t-14.5 36z" />
    <glyph glyph-name="afii10027" unicode="&#x419;" horiz-adv-x="1478" 
d="M199 45q0 -27 14.5 -36t46.5 -9h59q35 0 68 47l604 856l144 232l-19 -228v-862q0 -28 14 -36.5t48 -8.5h39q32 0 46.5 9t14.5 36v1255q0 27 -14.5 36.5t-46.5 9.5h-58q-36 0 -67 -48l-594 -843l-158 -254l20 258v841q0 28 -14 37t-47 9h-39q-32 0 -46.5 -9.5t-14.5 -36.5
v-1255zM391 1589q-26 48 17 74l45 25q36 21 61 -15q96 -145 223 -145q128 0 224 145q25 36 61 15l45 -25q43 -26 16 -74q-57 -97 -150 -150t-196 -53t-195.5 52t-150.5 151z" />
    <glyph glyph-name="afii10028" unicode="&#x41a;" horiz-adv-x="1216" 
d="M199 45v1255q0 28 13.5 37t45.5 9h45q31 0 44 -9t13 -37v-542h240l356 538q17 27 34 38.5t50 11.5h74q20 0 28 -15.5t-3 -34.5l-398 -596l459 -651q11 -15 3 -32t-27 -17h-89q-57 0 -88 43l-348 506q-50 69 -106 69h-185v-573q0 -28 -12.5 -36.5t-44.5 -8.5h-45
q-32 0 -45.5 8.5t-13.5 36.5z" />
    <glyph glyph-name="afii10029" unicode="&#x41b;" horiz-adv-x="1370" 
d="M14 41l15 86q3 16 11.5 21t29.5 4q52 0 89.5 27t72 100.5t56.5 201t37.5 331.5t20.5 488q1 28 15.5 37t44.5 9h706q31 0 44 -9t13 -37v-1255q0 -28 -12.5 -36.5t-44.5 -8.5h-45q-32 0 -45.5 8.5t-13.5 36.5v1149h-504q-9 -219 -21 -380.5t-32 -302.5t-48.5 -234.5
t-69 -160.5t-94.5 -97.5t-124 -30.5q-42 0 -80 12q-9 2 -16.5 12t-4.5 29z" />
    <glyph glyph-name="afii10030" unicode="&#x41c;" horiz-adv-x="1757" 
d="M199 45l49 1255q0 28 15 37t48 9h103q50 0 67 -48l410 -1093l395 1093q17 48 68 48h106q34 0 49 -9.5t15 -36.5l49 -1255q0 -27 -14.5 -36t-47.5 -9h-38q-34 0 -48 8.5t-14 36.5l-33 856l2 250l-82 -248l-321 -854q-8 -20 -19.5 -28.5t-33.5 -8.5h-74q-22 0 -33.5 8.5
t-19.5 28.5l-324 854l-82 248l2 -250l-33 -856q0 -28 -14 -36.5t-47 -8.5h-39q-32 0 -46.5 9t-14.5 36z" />
    <glyph glyph-name="afii10031" unicode="&#x41d;" horiz-adv-x="1468" 
d="M199 45v1255q0 28 13.5 37t45.5 9h45q31 0 44 -9t13 -37v-536h746v536q0 28 13.5 37t45.5 9h45q31 0 44.5 -9t13.5 -37v-1255q0 -28 -13 -36.5t-45 -8.5h-45q-32 0 -45.5 8.5t-13.5 36.5v567h-746v-567q0 -28 -12.5 -36.5t-44.5 -8.5h-45q-32 0 -45.5 8.5t-13.5 36.5z
" />
    <glyph glyph-name="afii10032" unicode="&#x41e;" horiz-adv-x="1536" 
d="M90 674q0 142 48 269t134 223t214.5 152t281.5 56q201 0 356.5 -91.5t238.5 -250t83 -358.5q0 -142 -48 -269.5t-134 -223.5t-214.5 -152t-281.5 -56q-201 0 -356.5 91.5t-238.5 250.5t-83 359zM256 686q0 -116 33.5 -217t96 -178.5t161.5 -122.5t221 -45q159 0 277 74
t176.5 195t58.5 272q0 116 -33.5 217t-96 178.5t-161.5 122.5t-221 45q-159 0 -277 -74t-176.5 -195t-58.5 -272z" />
    <glyph glyph-name="afii10033" unicode="&#x41f;" horiz-adv-x="1456" 
d="M199 45v1255q0 27 14 36.5t45 9.5h940q31 0 44 -9t13 -37v-1255q0 -28 -12.5 -36.5t-44.5 -8.5h-45q-32 0 -45.5 8.5t-13.5 36.5v1149h-732v-1149q0 -28 -14 -36.5t-47 -8.5h-43q-31 0 -45 9t-14 36z" />
    <glyph glyph-name="afii10034" unicode="&#x420;" horiz-adv-x="1163" 
d="M199 45v1255q0 28 13.5 37t45.5 9h328q117 0 208.5 -22t151.5 -59.5t99.5 -91.5t56 -115.5t16.5 -133.5q0 -206 -138 -327t-427 -124q-109 0 -193 8v-436q0 -28 -12.5 -36.5t-44.5 -8.5h-45q-32 0 -45.5 8.5t-13.5 36.5zM360 631q83 -13 170 -13q222 0 326.5 82.5
t104.5 217.5q0 131 -92 205.5t-281 74.5h-228v-567z" />
    <glyph glyph-name="afii10035" unicode="&#x421;" horiz-adv-x="1220" 
d="M90 664q0 334 178 522t492 188q86 2 178 -17t161.5 -63t69.5 -102q0 -38 -28 -66q-16 -16 -37 -4q-158 105 -334 105q-105 0 -195 -32t-162 -96.5t-114 -174t-43 -252.5q0 -142 38.5 -249.5t106.5 -171t153 -95t185 -31.5q193 0 379 108q28 14 41 -8l35 -63
q12 -24 -10 -41q-95 -72 -217.5 -110t-247.5 -38q-102 0 -193.5 25t-172 79t-138.5 133.5t-91.5 195.5t-33.5 258z" />
    <glyph glyph-name="afii10036" unicode="&#x422;" horiz-adv-x="1036" 
d="M-10 1251v37q0 31 8 44.5t31 13.5h979q23 0 31 -13.5t8 -44.5v-37q0 -30 -8 -42.5t-31 -12.5h-408v-1151q0 -28 -12.5 -36.5t-44.5 -8.5h-45q-32 0 -46 9t-14 36v1151h-409q-23 0 -31 12.5t-8 42.5z" />
    <glyph glyph-name="afii10037" unicode="&#x423;" horiz-adv-x="1122" 
d="M31.5 1329.5q5.5 16.5 27.5 16.5h113q37 0 53 -33l373 -791l326 791q14 33 53 33h94q21 0 27 -16.5t-2 -31.5l-361 -841q-25 -60 -39 -93t-35.5 -80.5t-34.5 -72.5t-32.5 -59.5t-34.5 -52t-35.5 -40t-39 -32.5t-42.5 -21t-49 -14.5t-55 -3.5q-84 0 -145 28q-25 12 -15 50
l21 73q10 33 47 25q106 -24 170.5 21.5t99.5 156.5l-481 956q-9 15 -3.5 31.5z" />
    <glyph glyph-name="afii10038" unicode="&#x424;" horiz-adv-x="1564" 
d="M92 737q0 242 155 386t453 151v121q0 27 14 36t46 9h45q32 0 44.5 -8.5t12.5 -36.5v-121q157 0 277 -43.5t191.5 -119.5t107 -172t35.5 -208q0 -243 -156 -386.5t-455 -149.5v-152q0 -28 -12.5 -36.5t-44.5 -8.5h-45q-32 0 -46 9t-14 36v152q-126 0 -228.5 28.5
t-172.5 78.5t-117 119t-68.5 148t-21.5 168zM250 745q0 -189 117 -301t333 -112v805q-121 -1 -210 -32.5t-140 -86.5t-75.5 -123t-24.5 -150zM862 332q121 1 210.5 31.5t141.5 85.5t76.5 123t24.5 151q0 189 -118 301.5t-335 112.5v-805z" />
    <glyph glyph-name="afii10039" unicode="&#x425;" horiz-adv-x="1183" 
d="M52.5 12q-7.5 12 0.5 31l436 657l-403 603q-11 13 -4.5 28t29.5 15h84q31 0 49.5 -6.5t34.5 -30.5l329 -490l312 486q17 26 29 33.5t34 7.5h100q18 0 25.5 -12t-0.5 -31l-410 -619l432 -641q11 -13 5 -28t-29 -15h-84q-31 0 -49.5 6.5t-34.5 30.5l-358 530l-338 -526
q-17 -26 -29.5 -33.5t-34.5 -7.5h-100q-18 0 -25.5 12z" />
    <glyph glyph-name="afii10040" unicode="&#x426;" horiz-adv-x="1449" 
d="M199 45v1255q0 28 13.5 37t45.5 9h45q31 0 44 -9t13 -37v-1148h705v1148q0 28 13.5 37t45.5 9h45q31 0 44.5 -9t13.5 -37v-1148h100q31 0 44 -9t13 -37v-411q0 -28 -12.5 -36.5t-44.5 -8.5h-41q-32 0 -45.5 8.5t-13.5 36.5v305h-969q-32 0 -45.5 8.5t-13.5 36.5z" />
    <glyph glyph-name="afii10041" unicode="&#x427;" horiz-adv-x="1236" 
d="M94 838v462q0 28 14 37t46 9h45q31 0 44 -9t13 -37v-395q0 -162 59 -227.5t181 -65.5q119 0 219.5 29t158.5 64v595q0 28 14 37t46 9h45q31 0 44 -9t13 -37v-1255q0 -28 -12.5 -36.5t-44.5 -8.5h-45q-32 0 -46 9t-14 36v504q-91 -46 -203.5 -74.5t-217.5 -28.5
q-78 0 -140 20t-112.5 64t-78.5 122t-28 186z" />
    <glyph glyph-name="afii10042" unicode="&#x428;" horiz-adv-x="1861" 
d="M199 45v1255q0 28 13.5 37t45.5 9h45q31 0 44 -9t13 -37v-1148h490v1148q0 28 13.5 37t45.5 9h45q31 0 44.5 -9t13.5 -37v-1148h487v1148q0 28 14 37t46 9h45q31 0 44 -9t13 -37v-1255q0 -28 -12.5 -36.5t-44.5 -8.5h-1346q-32 0 -45.5 8.5t-13.5 36.5z" />
    <glyph glyph-name="afii10043" unicode="&#x429;" horiz-adv-x="1884" 
d="M199 45v1255q0 28 13.5 37t45.5 9h45q31 0 44 -9t13 -37v-1148h490v1148q0 28 13.5 37t45.5 9h45q31 0 44.5 -9t13.5 -37v-1148h487v1148q0 28 14 37t46 9h45q31 0 44 -9t13 -37v-1148h100q31 0 44.5 -9t13.5 -37v-411q0 -28 -13 -36.5t-45 -8.5h-41q-32 0 -45.5 8.5
t-13.5 36.5v305h-1403q-32 0 -45.5 8.5t-13.5 36.5z" />
    <glyph glyph-name="afii10044" unicode="&#x42a;" horiz-adv-x="1327" 
d="M0 1251v37q0 31 8 44.5t31 13.5h420q31 0 44 -9t13 -37v-460q91 14 211 14q520 0 520 -399q0 -218 -130.5 -336.5t-373.5 -118.5h-329q-32 0 -46 9t-14 36v1151h-315q-23 0 -31 12.5t-8 42.5zM516 150h215q168 0 263.5 75.5t95.5 218.5q0 75 -31 128.5t-85 81t-115 39.5
t-134 12q-128 0 -209 -15v-540z" />
    <glyph glyph-name="afii10045" unicode="&#x42b;" horiz-adv-x="1615" 
d="M199 45v1255q0 28 13.5 37t45.5 9h45q31 0 44 -9t13 -37v-460q91 14 199 14q520 0 520 -399q0 -218 -130.5 -336.5t-373.5 -118.5h-317q-32 0 -45.5 8.5t-13.5 36.5zM360 150h203q168 0 263.5 75.5t95.5 218.5q0 75 -31 128.5t-85 81t-115 39.5t-134 12q-116 0 -197 -15
v-540zM1253 45v1255q0 28 14 37t46 9h45q31 0 44 -9t13 -37v-1255q0 -28 -12.5 -36.5t-44.5 -8.5h-45q-32 0 -46 9t-14 36z" />
    <glyph glyph-name="afii10046" unicode="&#x42c;" horiz-adv-x="1171" 
d="M199 45v1255q0 28 13.5 37t45.5 9h45q31 0 44 -9t13 -37v-460q91 14 211 14q521 0 521 -399q0 -218 -130.5 -336.5t-373.5 -118.5h-330q-32 0 -45.5 8.5t-13.5 36.5zM360 150h215q168 0 263.5 75.5t95.5 218.5q0 75 -31 128.5t-85 81t-115 39.5t-134 12q-128 0 -209 -15
v-540z" />
    <glyph glyph-name="afii10047" unicode="&#x42d;" horiz-adv-x="1193" 
d="M55 147l29 56q11 23 37 12q188 -90 358 -90q84 0 160.5 29.5t140.5 87.5t105.5 154.5t50.5 221.5h-633q-23 0 -31 13t-8 43v37q0 31 7.5 44t31.5 13h631q-12 130 -52.5 221t-107.5 141.5t-147 72.5t-183 22q-162 0 -317 -76q-18 -9 -29 2q-22 26 -22 61q0 48 45 82.5
t114 50.5t126.5 22.5t105.5 6.5q146 0 261.5 -41t200 -125t130 -219t45.5 -315q0 -141 -34 -258.5t-92.5 -198t-136.5 -136.5t-165 -82t-180 -26q-117 0 -232.5 32t-200.5 99q-20 14 -8 43z" />
    <glyph glyph-name="afii10048" unicode="&#x42e;" horiz-adv-x="1978" 
d="M199 45v1255q0 28 13.5 37t45.5 9h45q31 0 44 -9t13 -37v-536h256q18 176 96 312.5t217.5 217t321.5 80.5q142 0 261.5 -52t201.5 -144t128 -220.5t46 -277.5q0 -200 -73.5 -358.5t-220 -253.5t-343.5 -95q-181 0 -322.5 82t-222.5 226.5t-92 330.5h-254v-567
q0 -28 -12.5 -36.5t-44.5 -8.5h-45q-32 0 -45.5 8.5t-13.5 36.5zM776 684q0 -116 30 -216.5t87.5 -178t149.5 -122t208 -44.5q114 0 205 42.5t149 116t88.5 170.5t30.5 210q0 116 -29.5 217t-86.5 179.5t-149 123.5t-208 45q-114 0 -205 -43t-149.5 -117.5t-89.5 -172.5
t-31 -210z" />
    <glyph glyph-name="afii10049" unicode="&#x42f;" horiz-adv-x="1232" 
d="M83.5 17q-8.5 17 2.5 32l305 512q-129 45 -197.5 144t-68.5 231q0 93 30.5 165t80.5 117.5t122 75t148 41t164 11.5h307q31 0 44 -9t13 -37v-1255q0 -28 -12.5 -36.5t-44.5 -8.5h-45q-32 0 -46 9t-14 36v483h-286q-48 -12 -70 -53l-242 -436q-12 -22 -30 -30.5t-58 -8.5
h-75q-19 0 -27.5 17zM285 930q0 -134 101 -197t276 -63h210v530h-202q-385 0 -385 -270z" />
    <glyph glyph-name="afii10065" unicode="&#x430;" horiz-adv-x="1030" 
d="M102 256q0 163 119.5 247.5t315.5 84.5q113 0 235 -27v135q0 48 -21 82.5t-58.5 51.5t-77.5 24.5t-87 7.5q-143 0 -321 -78q-22 -7 -33 11q-22 33 -22 61q0 41 40.5 73.5t102.5 50t125 26t119 8.5q389 0 389 -332v-637q0 -28 -14.5 -36.5t-49.5 -8.5h-18q-33 0 -45.5 8
t-16.5 37l-10 90q-66 -76 -160.5 -119t-197.5 -43q-155 0 -234.5 82.5t-79.5 200.5zM260 262q0 -67 44.5 -108t131.5 -41q101 0 198.5 56t137.5 128v123q-37 15 -111 25t-137 10q-264 0 -264 -193z" />
    <glyph glyph-name="afii10066" unicode="&#x431;" horiz-adv-x="1169" 
d="M147 578q0 147 24 263t66 197.5t107.5 142t140 98t172.5 64.5q10 3 56.5 15t67.5 18.5t57.5 18t61 23t42.5 24.5q30 20 45 0q21 -35 21 -74q0 -20 -7.5 -37.5t-18 -30.5t-31.5 -25.5t-38.5 -20.5t-48 -17.5t-51.5 -15t-58 -15.5t-59 -16q-191 -53 -283 -159.5
t-120 -305.5h4q55 116 154 173.5t223 59.5q107 1 193 -38t140 -105.5t82.5 -151t28.5 -178.5q0 -144 -54.5 -258.5t-165.5 -184t-263 -69.5q-242 0 -365 155t-123 450zM317 459q0 -154 85.5 -248t232.5 -94q149 0 234 97t85 253q0 158 -81.5 255t-233.5 97
q-141 0 -231.5 -101t-90.5 -259z" />
    <glyph glyph-name="afii10067" unicode="&#x432;" horiz-adv-x="1007" 
d="M170 45v901q0 28 13 36.5t46 8.5h349q167 0 258.5 -71t91.5 -181q0 -70 -43 -130.5t-129 -88.5v-6q209 -42 209 -221q0 -128 -99.5 -210.5t-259.5 -82.5h-377q-33 0 -46 8.5t-13 36.5zM326 137h268q100 0 150.5 44.5t50.5 117.5q0 143 -187 143h-282v-305zM326 573h258
q77 0 125.5 41t48.5 103q0 139 -189 139h-243v-283z" />
    <glyph glyph-name="afii10068" unicode="&#x433;" horiz-adv-x="770" 
d="M170 45v893q0 29 14.5 41t46.5 12h551q28 0 36.5 -14t8.5 -47v-21q0 -33 -8.5 -47t-36.5 -14h-454v-803q0 -27 -14 -36t-46 -9h-37q-33 0 -47 8.5t-14 36.5z" />
    <glyph glyph-name="afii10069" unicode="&#x434;" horiz-adv-x="1146" 
d="M18 96q0 28 14 36.5t48 8.5h53q66 80 103.5 213.5t48 268.5t10.5 323q0 28 13 36.5t46 8.5h566q33 0 46 -8.5t13 -36.5v-805h76q33 0 47 -8.5t14 -36.5v-358q0 -28 -14 -36.5t-47 -8.5h-29q-33 0 -46 8.5t-13 36.5v262h-799v-262q0 -28 -13 -36.5t-46 -8.5h-29
q-34 0 -48 8.5t-14 36.5v358zM309 141h514v707h-385q-2 -243 -28 -414t-101 -293z" />
    <glyph glyph-name="afii10070" unicode="&#x435;" horiz-adv-x="1085" 
d="M115 485q0 154 54 272.5t166 189t269 71.5q204 1 315 -107.5t111 -287.5q0 -72 -16 -144q-4 -17 -14.5 -22.5t-30.5 -5.5h-693q2 -85 32 -150.5t79 -103.5t108.5 -57t127.5 -19q138 0 295 61q31 11 45 -24l20 -47q14 -34 -18 -50q-168 -88 -365 -88q-98 0 -184 31
t-154 92t-107.5 161t-39.5 228zM276 590h605v45q0 113 -77 178.5t-196 65.5q-135 0 -222 -72t-110 -217z" />
    <glyph glyph-name="afii10072" unicode="&#x436;" horiz-adv-x="1495" 
d="M53 16q-28 28 8 56q13 11 23.5 21t21 23t17.5 22.5t20.5 29t22.5 31.5l213 323l-283 424q-13 22 -9.5 33.5t17.5 11.5h99q40 0 65 -35l242 -374h188v364q0 27 15 36t49 9h33q35 0 49 -8.5t14 -36.5v-364h189l241 374q25 35 66 35h98q14 0 17.5 -11.5t-9.5 -33.5
l-282 -424l213 -323q10 -13 27.5 -38t25 -35t21.5 -25.5t30 -28.5q36 -28 8 -56q-31 -26 -88 -26q-85 0 -155 112l-216 347h-186v-404q0 -28 -14 -36.5t-49 -8.5h-33q-34 0 -49 9t-15 36v404h-186l-215 -347q-70 -112 -156 -112q-57 0 -88 26z" />
    <glyph glyph-name="afii10073" unicode="&#x437;" horiz-adv-x="872" 
d="M60 78q-6 12 3 37l21 47q12 28 29 28t65 -22q3 -2 5 -3t5.5 -2.5t6.5 -2.5q108 -45 231 -45q109 0 168 44t59 122q0 40 -14.5 69t-36 45.5t-57 26t-68.5 12t-78 2.5h-112q-26 0 -32.5 7t-6.5 34v43q0 27 6.5 35t32.5 8h123q57 0 98.5 13t63.5 31t34.5 42.5t15.5 42
t3 35.5q0 147 -179 147q-178 0 -303 -73q-20 -10 -32 10q-23 35 -23 59q0 39 36.5 69t94.5 46t117 24t117 9q167 0 248 -75.5t81 -192.5q0 -84 -50 -146.5t-122 -85.5q95 -20 148 -85.5t53 -156.5q0 -134 -101 -218.5t-294 -84.5q-179 0 -318 74q-32 19 -38 31z" />
    <glyph glyph-name="afii10074" unicode="&#x438;" horiz-adv-x="1173" 
d="M170 45v901q0 28 14 36.5t47 8.5h37q32 0 46 -9t14 -36v-567l-29 -221l139 217l439 571q17 20 24 26.5t22 12.5t38 6h43q32 0 45.5 -8.5t13.5 -36.5v-901q0 -28 -13.5 -36.5t-45.5 -8.5h-37q-33 0 -46.5 8.5t-13.5 36.5v565l29 219l-139 -213l-424 -561q-27 -33 -42 -44
t-38 -11h-62q-33 0 -47 8.5t-14 36.5z" />
    <glyph glyph-name="afii10075" unicode="&#x439;" horiz-adv-x="1173" 
d="M170 45q0 -28 14 -36.5t47 -8.5h62q23 0 38 11t42 44l424 561l139 213l-29 -219v-565q0 -28 13.5 -36.5t46.5 -8.5h37q32 0 45.5 8.5t13.5 36.5v901q0 28 -13.5 36.5t-45.5 8.5h-43q-23 0 -38 -6t-22 -12.5t-24 -26.5l-439 -571l-139 -217l29 221v567q0 27 -14 36t-46 9
h-37q-33 0 -47 -8.5t-14 -36.5v-901zM291 1262.5q-3 8.5 2 22.5t24 26l41 24q37 22 62 -14q90 -141 207 -141q38 0 71 12.5t60.5 39t40.5 42.5t35 47q24 34 57 14l45 -24q17 -12 21 -26t1 -22.5t-10 -21.5q-50 -93 -136.5 -142.5t-184.5 -49.5t-185.5 49.5t-140.5 142.5
q-7 13 -10 21.5z" />
    <glyph glyph-name="afii10076" unicode="&#x43a;" horiz-adv-x="993" 
d="M168 45v901q0 28 14 36.5t47 8.5h35q34 0 48 -8.5t14 -36.5v-360h186l289 370q16 20 29 27.5t34 7.5h99q22 0 24.5 -15t-10.5 -30l-330 -422l244 -325q4 -6 14.5 -20.5t14.5 -19.5t12.5 -16t12.5 -16t11.5 -14t13.5 -14.5t14 -12.5t17 -14q36 -31 9 -56q-32 -26 -88 -26
q-91 0 -170 112l-242 347h-184v-404q0 -28 -14 -36.5t-48 -8.5h-35q-33 0 -47 8.5t-14 36.5z" />
    <glyph glyph-name="afii10077" unicode="&#x43b;" horiz-adv-x="1058" 
d="M20 66q-10 43 27 43q35 -1 63 16t48.5 53.5t35.5 80t24.5 109t16 125t9 143t3.5 148t1 154.5q0 29 16 41t49 12h570q33 0 49 -12t16 -41v-893q0 -28 -14 -36.5t-49 -8.5h-31q-34 0 -48.5 9t-14.5 36v803h-394q-5 -462 -64.5 -660t-203.5 -198q-86 0 -109 76z" />
    <glyph glyph-name="afii10078" unicode="&#x43c;" horiz-adv-x="1359" 
d="M147 45l37 901q2 45 60 45h82q48 0 65 -43l311 -770l308 770q17 43 65 43h90q58 0 60 -45l37 -901q0 -28 -15 -36.5t-45 -8.5h-28q-31 0 -45.5 8.5t-14.5 36.5l-27 614l5 125l-48 -127l-253 -612q-16 -37 -54 -37h-65q-38 0 -54 37l-253 612l-48 127l5 -125l-27 -614
q0 -28 -14 -36.5t-45 -8.5h-29q-30 0 -45 8.5t-15 36.5z" />
    <glyph glyph-name="afii10079" unicode="&#x43d;" horiz-adv-x="1165" 
d="M170 45v901q0 28 14 36.5t47 8.5h37q32 0 46 -9t14 -36v-364h571v364q0 28 13 36.5t46 8.5h37q32 0 46 -9t14 -36v-901q0 -27 -14 -36t-46 -9h-37q-33 0 -46 8.5t-13 36.5v393h-571v-393q0 -27 -14 -36t-46 -9h-37q-33 0 -47 8.5t-14 36.5z" />
    <glyph glyph-name="afii10080" unicode="&#x43e;" horiz-adv-x="1189" 
d="M115 496q0 236 138.5 379t373.5 143q234 0 373 -143t139 -379t-138.5 -379.5t-373.5 -143.5q-234 0 -373 143.5t-139 379.5zM279 496q0 -174 93 -276.5t255 -102.5q164 0 256 102.5t92 276.5t-93 276t-255 102q-164 0 -256 -102t-92 -276z" />
    <glyph glyph-name="afii10081" unicode="&#x43f;" horiz-adv-x="1153" 
d="M170 45v893q0 29 14.5 41t46.5 12h752q59 0 59 -53v-893q0 -28 -13.5 -36.5t-45.5 -8.5h-35q-34 0 -48.5 9t-14.5 36v803h-557v-803q0 -27 -14 -36t-46 -9h-37q-33 0 -47 8.5t-14 36.5z" />
    <glyph glyph-name="afii10082" unicode="&#x440;" horiz-adv-x="1181" 
d="M168 946q-6 18 8 29q26 20 68 20q76 0 98 -106q75 61 168.5 95t187.5 34q193 0 312.5 -133t119.5 -365q0 -130 -43 -235t-117 -172.5t-170.5 -103.5t-205.5 -36q-136 0 -246 52v-508q0 -27 -14.5 -36t-46.5 -9h-35q-35 0 -49.5 8.5t-14.5 36.5v1237q0 120 -20 192z
M348 170q93 -53 246 -53q121 0 206 56t124 145.5t39 203.5q0 178 -79 265t-210 87q-86 0 -175 -36.5t-151 -92.5v-575z" />
    <glyph glyph-name="afii10083" unicode="&#x441;" horiz-adv-x="972" 
d="M115 496q0 248 137.5 385t378.5 137q48 0 102 -8.5t109 -25.5t91 -50t36 -76q0 -25 -15 -55q-12 -20 -32 -10q-154 77 -297 77q-169 0 -257.5 -100.5t-88.5 -273.5q0 -174 93.5 -276.5t256.5 -102.5q136 0 270 82q25 15 45 -9l33 -43q23 -29 -12 -59q-144 -115 -349 -115
q-239 0 -370 139.5t-131 383.5z" />
    <glyph glyph-name="afii10084" unicode="&#x442;" horiz-adv-x="849" 
d="M10 909v21q0 33 8.5 47t36.5 14h795q28 0 35.5 -13t7.5 -48v-21q0 -24 -2 -35t-11.5 -18.5t-29.5 -7.5h-320v-803q0 -28 -13.5 -36.5t-45.5 -8.5h-37q-33 0 -47 8.5t-14 36.5v803h-318q-28 0 -36.5 14t-8.5 47z" />
    <glyph glyph-name="afii10085" unicode="&#x443;" horiz-adv-x="989" 
d="M86 948q-5 17 4.5 30t26.5 13h82q46 0 61 -45l277 -852h4l299 852q15 45 61 45h72q17 0 26.5 -13t4.5 -30l-379 -1052q-20 -55 -32 -87t-34.5 -84.5t-41 -84t-47.5 -70t-57.5 -59t-66.5 -34.5t-80 -12q-53 2 -89.5 30.5t-39.5 88.5q0 26 8 45q6 21 29 9q40 -19 74 -19
q46 0 88.5 34t70.5 81t52 108l55 158h-45q-29 0 -46.5 5.5t-25.5 25.5z" />
    <glyph glyph-name="afii10086" unicode="&#x444;" horiz-adv-x="1449" 
d="M111 510q0 228 144.5 365t422.5 143v407q0 28 14 36.5t49 8.5h35q34 0 48 -8.5t14 -36.5v-407q140 -4 248 -42.5t177 -105.5t104.5 -158t35.5 -202q0 -118 -33 -213t-100 -167t-176.5 -112.5t-255.5 -44.5v-456q0 -28 -14 -36.5t-48 -8.5h-35q-35 0 -49 8.5t-14 36.5v456
q-146 4 -256 44.5t-177.5 112.5t-100.5 167t-33 213zM274 510q0 -192 108 -297.5t296 -110.5v787q-193 -6 -298.5 -107t-105.5 -272zM838 102q186 5 293.5 110.5t107.5 297.5q0 171 -105 272t-296 107v-787z" />
    <glyph glyph-name="afii10087" unicode="&#x445;" horiz-adv-x="937" 
d="M70 11q-3 11 8 30l330 465l-308 446q-9 15 -5 27t16 12h110q39 0 62 -33l227 -337l219 337q20 33 62 33h96q12 0 15.5 -12t-5.5 -27l-301 -452l326 -459q10 -15 6.5 -28t-15.5 -13h-110q-42 0 -62 33l-249 352l-244 -352q-13 -20 -26 -26.5t-36 -6.5h-100q-13 0 -16 11z
" />
    <glyph glyph-name="afii10088" unicode="&#x446;" horiz-adv-x="1173" 
d="M170 45v901q0 28 14 36.5t47 8.5h37q32 0 46 -9t14 -36v-803h532v803q0 28 13.5 36.5t46.5 8.5h36q32 0 46 -9t14 -36v-803h76q33 0 47 -8.5t14 -36.5v-360q0 -28 -14 -36.5t-47 -8.5h-29q-33 0 -46 8.5t-13 36.5v262h-773q-33 0 -47 8.5t-14 36.5z" />
    <glyph glyph-name="afii10089" unicode="&#x447;" horiz-adv-x="966" 
d="M98 659v287q0 28 13.5 36.5t46.5 8.5h37q32 0 45.5 -8.5t13.5 -36.5v-280q0 -108 48.5 -147.5t152.5 -39.5q109 0 245 41v426q0 28 13.5 36.5t46.5 8.5h37q32 0 45.5 -8.5t13.5 -36.5v-901q0 -28 -13.5 -36.5t-45.5 -8.5h-37q-33 0 -46.5 8.5t-13.5 36.5v352q-1 0 -20 -9
t-44 -17.5t-60 -18.5t-82 -16t-97 -6q-147 0 -223 78.5t-76 250.5z" />
    <glyph glyph-name="afii10090" unicode="&#x448;" horiz-adv-x="1533" 
d="M170 53v893q0 28 13.5 36.5t45.5 8.5h35q34 0 49 -9t15 -36v-803h389v803q0 28 14 36.5t47 8.5h35q33 0 47 -8.5t14 -36.5v-803h390v803q0 28 14 36.5t47 8.5h35q34 0 48.5 -9t14.5 -36v-893q0 -53 -61 -53h-1133q-59 0 -59 53z" />
    <glyph glyph-name="afii10091" unicode="&#x449;" horiz-adv-x="1579" 
d="M170 53v893q0 28 13.5 36.5t45.5 8.5h35q34 0 49 -9t15 -36v-803h389v803q0 28 14 36.5t47 8.5h35q33 0 47 -8.5t14 -36.5v-803h390v803q0 28 14 36.5t47 8.5h35q34 0 48.5 -9t14.5 -36l-2 -803h76q34 0 48 -8.5t14 -36.5v-360q0 -28 -14 -36.5t-48 -8.5h-29
q-33 0 -46 8.5t-13 36.5v262h-1180q-59 0 -59 53z" />
    <glyph glyph-name="afii10092" unicode="&#x44a;" horiz-adv-x="1054" 
d="M-12 913v21q0 30 9 43.5t36 13.5h336q32 0 45.5 -8.5t13.5 -36.5v-317q132 10 182 10q195 0 294.5 -86.5t99.5 -216.5q0 -141 -103.5 -238.5t-294.5 -97.5h-274q-34 0 -48 8.5t-14 36.5v809h-237q-28 0 -36.5 13.5t-8.5 45.5zM428 135h182q108 0 171 52.5t63 142.5
q0 73 -56 122.5t-161 49.5q-111 0 -199 -10v-357z" />
    <glyph glyph-name="afii10093" unicode="&#x44b;" horiz-adv-x="1306" 
d="M170 45v901q0 28 14 36.5t47 8.5h37q32 0 46 -9t14 -36v-317q133 10 174 10q195 0 294 -86.5t99 -216.5q0 -67 -25 -127t-72.5 -107t-125 -74.5t-174.5 -27.5h-267q-33 0 -47 8.5t-14 36.5zM328 135h174q108 0 170.5 52.5t62.5 142.5q0 73 -56 122.5t-161 49.5
q-102 0 -190 -10v-357zM1038 45v901q0 28 14 36.5t48 8.5h37q32 0 45.5 -8.5t13.5 -36.5v-901q0 -28 -13.5 -36.5t-45.5 -8.5h-37q-34 0 -48 8.5t-14 36.5z" />
    <glyph glyph-name="afii10094" unicode="&#x44c;" horiz-adv-x="954" 
d="M170 45v901q0 28 14 36.5t47 8.5h37q32 0 46 -9t14 -36v-317q133 10 182 10q195 0 294 -86.5t99 -216.5q0 -67 -25 -127t-72.5 -107t-125 -74.5t-174.5 -27.5h-275q-33 0 -47 8.5t-14 36.5zM328 135h182q108 0 170.5 52.5t62.5 142.5q0 73 -56 122.5t-161 49.5
q-110 0 -198 -10v-357z" />
    <glyph glyph-name="afii10095" unicode="&#x44d;" horiz-adv-x="958" 
d="M90 78l12 59q6 32 45 19q104 -35 232 -35q90 0 166 30.5t131.5 102t66.5 176.5h-430q-28 0 -36.5 14t-8.5 48v12q0 33 8.5 47t36.5 14h430q-7 85 -36.5 147t-77 95.5t-102.5 49t-121 15.5q-129 0 -265 -49q-12 -4 -18 0q-11 8 -20 31.5t-9 38.5q2 37 33.5 63t83 39
t103 18t108.5 5q211 0 345 -125.5t140 -370.5q0 -117 -27 -211t-72.5 -156t-109.5 -104t-134.5 -60t-149.5 -18q-164 0 -301 58q-29 12 -23 47z" />
    <glyph glyph-name="afii10096" unicode="&#x44e;" horiz-adv-x="1566" 
d="M170 45v901q0 28 14 36.5t47 8.5h37q32 0 46 -9t14 -36v-364h194q25 200 157 318t337 118q227 0 363.5 -143.5t136.5 -378.5t-136.5 -379t-363.5 -144q-213 0 -346 126t-150 339h-192v-393q0 -27 -14 -36t-46 -9h-37q-33 0 -47 8.5t-14 36.5zM684 496q0 -175 87 -277
t245 -102t246 102.5t88 276.5q0 176 -87.5 277t-246.5 101q-160 0 -246 -101.5t-86 -276.5z" />
    <glyph glyph-name="afii10097" unicode="&#x44f;" horiz-adv-x="1017" 
d="M92 33q-8 14 4 24q63 57 129 142l150 194q-101 22 -167.5 101t-66.5 180q0 145 95.5 228t255.5 89h354q33 0 47 -8.5t14 -36.5v-901q0 -28 -13 -36.5t-46 -8.5h-35q-33 0 -47 8.5t-14 36.5v313h-217l-183 -256q-76 -112 -168 -112q-59 0 -92 43zM309 692q0 -90 61.5 -143
t170.5 -53h211v366h-242q-100 0 -150.5 -48t-50.5 -122z" />
    <glyph glyph-name="afii10071" unicode="&#x451;" horiz-adv-x="1085" 
d="M115 485q0 154 54 272.5t166 189t269 71.5q204 1 315 -107.5t111 -287.5q0 -72 -16 -144q-4 -17 -14.5 -22.5t-30.5 -5.5h-693q2 -85 32 -150.5t79 -103.5t108.5 -57t127.5 -19q138 0 295 61q31 11 45 -24l20 -47q14 -34 -18 -50q-168 -88 -365 -88q-98 0 -184 31
t-154 92t-107.5 161t-39.5 228zM262 1223q0 48 28 77t75 29q51 0 82.5 -29.5t31.5 -76.5t-31.5 -76t-82.5 -29q-47 0 -75 29t-28 76zM276 590h605v45q0 113 -77 178.5t-196 65.5q-135 0 -222 -72t-110 -217zM705 1223q0 48 29 77t79 29q48 0 79.5 -29.5t31.5 -76.5
t-31.5 -76t-79.5 -29q-50 0 -79 28.5t-29 76.5z" />
    <glyph glyph-name="uni2000" unicode="&#x2000;" horiz-adv-x="847" 
 />
    <glyph glyph-name="uni2001" unicode="&#x2001;" horiz-adv-x="1695" 
 />
    <glyph glyph-name="uni2002" unicode="&#x2002;" horiz-adv-x="847" 
 />
    <glyph glyph-name="uni2003" unicode="&#x2003;" horiz-adv-x="1695" 
 />
    <glyph glyph-name="uni2004" unicode="&#x2004;" horiz-adv-x="565" 
 />
    <glyph glyph-name="uni2005" unicode="&#x2005;" horiz-adv-x="423" 
 />
    <glyph glyph-name="uni2006" unicode="&#x2006;" horiz-adv-x="282" 
 />
    <glyph glyph-name="uni2007" unicode="&#x2007;" horiz-adv-x="282" 
 />
    <glyph glyph-name="uni2008" unicode="&#x2008;" horiz-adv-x="211" 
 />
    <glyph glyph-name="uni2009" unicode="&#x2009;" horiz-adv-x="339" 
 />
    <glyph glyph-name="uni200A" unicode="&#x200a;" horiz-adv-x="94" 
 />
    <glyph glyph-name="uni2010" unicode="&#x2010;" horiz-adv-x="944" 
d="M156 489v37q0 29 9 41.5t36 12.5h542q27 0 36 -12.5t9 -41.5v-37q0 -29 -8.5 -41t-36.5 -12h-542q-28 0 -36.5 12t-8.5 41z" />
    <glyph glyph-name="uni2011" unicode="&#x2011;" horiz-adv-x="944" 
d="M156 489v37q0 29 9 41.5t36 12.5h542q27 0 36 -12.5t9 -41.5v-37q0 -29 -8.5 -41t-36.5 -12h-542q-28 0 -36.5 12t-8.5 41z" />
    <glyph glyph-name="figuredash" unicode="&#x2012;" horiz-adv-x="944" 
d="M156 489v37q0 29 9 41.5t36 12.5h542q27 0 36 -12.5t9 -41.5v-37q0 -29 -8.5 -41t-36.5 -12h-542q-28 0 -36.5 12t-8.5 41z" />
    <glyph glyph-name="endash" unicode="&#x2013;" horiz-adv-x="1339" 
d="M154 508v37q0 29 8.5 41t36.5 12h940q28 0 36.5 -12t8.5 -41v-37q0 -29 -8.5 -41t-36.5 -12h-940q-28 0 -36.5 12t-8.5 41z" />
    <glyph glyph-name="emdash" unicode="&#x2014;" horiz-adv-x="1757" 
d="M158 508v37q0 29 8.5 41t36.5 12h1349q28 0 36.5 -12t8.5 -41v-37q0 -29 -8.5 -41t-36.5 -12h-1349q-28 0 -36.5 12t-8.5 41z" />
    <glyph glyph-name="quoteleft" unicode="&#x2018;" horiz-adv-x="485" 
d="M113 1176q0 44 15 89.5t32.5 76.5t48.5 68t46.5 52t43.5 41q13 13 27 2l39 -28q14 -11 0 -25q-97 -101 -97 -188q0 -66 60 -115q15 -11 6 -31q-43 -76 -113 -76q-56 0 -82 40.5t-26 93.5z" />
    <glyph glyph-name="quoteright" unicode="&#x2019;" horiz-adv-x="479" 
d="M127 940q-14 11 0 25q96 99 96 188q0 67 -59 115q-14 11 -6 30q43 76 112 76q56 0 82.5 -40.5t26.5 -92.5q0 -44 -15 -89.5t-32.5 -77t-48.5 -68t-47 -52.5t-43 -41q-13 -13 -27 -2z" />
    <glyph glyph-name="quotedblleft" unicode="&#x201c;" horiz-adv-x="788" 
d="M113 1176q0 44 15 89.5t32.5 76.5t48.5 68t46.5 52t43.5 41q13 13 27 2l39 -28q14 -11 0 -25q-97 -101 -97 -188q0 -66 60 -115q15 -11 6 -31q-43 -76 -113 -76q-56 0 -82 40.5t-26 93.5zM416 1176q0 44 15 89.5t32.5 76.5t48.5 68t46.5 52t43.5 41q13 13 27 2l39 -28
q14 -11 0 -25q-97 -101 -97 -188q0 -66 60 -115q15 -11 6 -31q-43 -76 -113 -76q-56 0 -82 40.5t-26 93.5z" />
    <glyph glyph-name="quotedblright" unicode="&#x201d;" horiz-adv-x="782" 
d="M127 940q-14 11 0 25q96 99 96 188q0 67 -59 115q-14 11 -6 30q43 76 112 76q56 0 82.5 -40.5t26.5 -92.5q0 -44 -15 -89.5t-32.5 -77t-48.5 -68t-47 -52.5t-43 -41q-13 -13 -27 -2zM430 940q-14 11 0 25q96 99 96 188q0 67 -59 115q-14 11 -6 30q43 76 112 76
q56 0 82.5 -40.5t26.5 -92.5q0 -44 -15 -89.5t-32.5 -77t-48.5 -68t-47 -52.5t-43 -41q-13 -13 -27 -2z" />
    <glyph glyph-name="quotedblbase" unicode="&#x201e;" horiz-adv-x="819" 
d="M133 -223q96 99 96 188q0 67 -59 115q-15 11 -6 31q43 75 112 75q56 0 82.5 -40.5t26.5 -92.5q0 -44 -15 -89.5t-32.5 -76.5t-48.5 -68t-46.5 -52t-43.5 -41q-13 -13 -27 -2l-39 28q-14 11 0 25zM436 -223q96 99 96 188q0 67 -59 115q-15 11 -6 31q43 75 113 75
q56 0 82 -40t26 -93q0 -44 -15 -89.5t-32.5 -76.5t-48.5 -68t-46.5 -52t-43.5 -41q-13 -13 -27 -2l-39 28q-14 11 0 25z" />
    <glyph glyph-name="bullet" unicode="&#x2022;" horiz-adv-x="741" 
d="M139 508q0 100 71 172t169 72q100 0 172 -72t72 -172q0 -98 -72 -169t-172 -71q-98 0 -169 71t-71 169z" />
    <glyph glyph-name="ellipsis" unicode="&#x2026;" horiz-adv-x="1329" 
d="M129 72q0 53 33.5 83.5t79.5 30.5q45 0 79.5 -28.5t34.5 -77.5q0 -53 -34 -83t-80 -32q-46 0 -79.5 28t-33.5 79zM551 72q0 53 33.5 83.5t79.5 30.5q45 0 79.5 -28.5t34.5 -77.5q0 -53 -34 -83t-80 -32q-46 0 -79.5 28t-33.5 79zM971 72q0 53 33 83.5t79 30.5
q45 0 80 -28.5t35 -77.5q0 -53 -34.5 -83t-80.5 -32q-46 0 -79 28t-33 79z" />
    <glyph glyph-name="uni202F" unicode="&#x202f;" horiz-adv-x="339" 
 />
    <glyph glyph-name="perthousand" unicode="&#x2030;" horiz-adv-x="2244" 
d="M90 993q0 58 17 110t50.5 95t92 68.5t133.5 25.5q145 0 219 -87.5t74 -211.5q0 -81 -29.5 -146t-97.5 -108t-166 -43t-166 43t-97.5 108t-29.5 146zM233 987q0 -90 45.5 -134t108.5 -44q67 0 106 54.5t39 123.5q0 95 -43 145t-106 50q-62 0 -106 -50t-44 -145zM272 14
q-7 14 4 29l820 1198q18 26 35.5 34.5t48.5 8.5h59q23 0 29.5 -13t-4.5 -30l-815 -1198q-17 -26 -34.5 -34.5t-49.5 -8.5h-64q-22 0 -29 14zM854 270q0 58 17 110t50.5 95t92 68.5t133.5 25.5q145 0 219 -87.5t74 -211.5q0 -81 -29.5 -146t-97.5 -108t-166 -43t-166 43
t-97.5 108t-29.5 146zM997 264q0 -90 45.5 -134t108.5 -44q67 0 106 54.5t39 123.5q0 95 -43 145t-106 50q-62 0 -106 -50t-44 -145zM1561 270q0 58 16.5 110t50.5 95t92 68.5t133 25.5q145 0 219 -87.5t74 -211.5q0 -81 -29.5 -146t-97.5 -108t-166 -43q-74 0 -131.5 24.5
t-92 66.5t-51.5 94t-17 112zM1704 264q0 -90 45.5 -134t108.5 -44q67 0 106 54.5t39 123.5q0 94 -43.5 144.5t-106.5 50.5q-62 0 -105.5 -50t-43.5 -145z" />
    <glyph glyph-name="uni205F" unicode="&#x205f;" horiz-adv-x="423" 
 />
    <glyph glyph-name="Euro" unicode="&#x20ac;" horiz-adv-x="1484" 
d="M309 487l13 43q6 24 16.5 32.5t40.5 8.5h82v62q0 51 2 78h-109q-24 0 -37.5 11t-7.5 34l13 43q6 24 16.5 32.5t40.5 8.5h102q46 213 187 334.5t348 121.5q78 0 156 -15.5t136 -51t58 -82.5q-2 -21 -20 -49q-13 -18 -33 -11q-152 70 -297 70q-154 0 -252 -82t-135 -235
h510q58 0 45 -49l-13 -37q-9 -28 -19.5 -35.5t-39.5 -7.5h-504q-2 -27 -2 -78q0 -42 2 -62h453q58 0 45 -49l-12 -37q-9 -28 -20 -35.5t-40 -7.5h-411q65 -329 381 -329q138 0 301 94q21 9 30 -12l27 -48q11 -21 -6 -38q-55 -59 -161 -97.5t-198 -38.5q-450 0 -524 469h-119
q-24 0 -37.5 11t-7.5 34z" />
    <glyph glyph-name="afii61352" unicode="&#x2116;" horiz-adv-x="2084" 
d="M199 45v1196q0 26 13.5 34.5t45.5 8.5h47q36 0 66 -43l528 -778l145 -236l-20 234v780q0 26 13.5 34.5t45.5 8.5h27q32 0 45.5 -8.5t13.5 -34.5v-1196q0 -28 -13.5 -36.5t-45.5 -8.5h-47q-35 0 -66 45l-536 793l-131 217l16 -207v-803q0 -28 -14 -36.5t-47 -8.5h-27
q-32 0 -45.5 8.5t-13.5 36.5zM1341 592q0 60 17.5 113.5t52 97.5t93.5 70t136 26t136.5 -26t95 -70t53 -97.5t17.5 -113.5q0 -82 -30.5 -148.5t-100.5 -110.5t-171 -44q-147 0 -223 87.5t-76 215.5zM1362 49v60q0 26 7.5 36.5t31.5 10.5h485q24 0 31.5 -10.5t7.5 -36.5v-60
q0 -26 -8 -37.5t-31 -11.5h-485q-23 0 -31 11.5t-8 37.5zM1489 586q0 -91 46.5 -137t109.5 -46q70 0 109.5 56t39.5 127q0 97 -44.5 148.5t-109.5 51.5q-63 0 -107 -51t-44 -149z" />
    <glyph glyph-name="trademark" unicode="&#x2122;" horiz-adv-x="1548" 
d="M86 1276v14q0 31 9 43.5t38 12.5h449q29 0 38 -12.5t9 -43.5v-14q0 -27 -9 -39t-38 -12h-160v-518q0 -31 -11 -39.5t-42 -8.5h-21q-28 0 -41.5 9t-13.5 39v518h-160q-29 0 -38 12t-9 39zM700 705q0 -27 12.5 -36.5t41.5 -9.5h16q29 0 42 9.5t13 36.5l11 321l-9 123h2
l35 -123l119 -319q14 -41 55 -41h31q41 0 55 41l117 319l37 123h2l-8 -123l12 -321q0 -27 12 -36.5t41 -9.5h17q29 0 42 9.5t13 36.5l-25 595q-3 46 -57 46h-45q-41 0 -59 -48q-11 -30 -166 -464q-23 61 -79 216.5t-91 247.5q-18 48 -60 48h-49q-54 0 -57 -46z" />
    <glyph glyph-name="onethird" unicode="&#x2153;" horiz-adv-x="1847" 
d="M207 1108l26 -39q18 -24 48 -8l100 61v-489q0 -27 11.5 -36t41.5 -9h33q30 0 41.5 9t11.5 36v606q0 26 -11.5 34.5t-41.5 8.5h-29q-28 0 -55 -16l-168 -107q-27 -20 -8 -51zM416 76l831 1192q25 36 64 12l41 -25q40 -21 16 -57l-833 -1192q-25 -36 -64 -12l-39 24
q-41 21 -16 58zM1202 102q0 -37 23.5 -63.5t62 -39.5t75.5 -18.5t75 -5.5q143 0 210.5 64.5t67.5 179.5q0 85 -56 145t-159 72l164 187q29 36 29 53v18q0 27 -8 37t-35 10h-394q-27 0 -35 -10t-8 -37v-32q0 -29 8 -39.5t35 -10.5h250l-155 -182q-14 -16 -18.5 -24t-4.5 -21
v-16q0 -35 41 -35h25q35 0 62.5 -4t56.5 -15t45 -36t16 -62q0 -61 -40.5 -89t-104.5 -28q-88 0 -187 52q-22 13 -33 -9q-8 -16 -8 -41z" />
    <glyph glyph-name="arrowleft" unicode="&#x2190;" horiz-adv-x="1824" 
d="M119 483q-17 22 0 45l450 516q26 30 58 5l39 -35q35 -31 6 -62l-334 -370h1274q33 0 43 -14.5t10 -45.5v-28q0 -33 -10 -48.5t-43 -15.5h-1274l340 -358q29 -31 -6 -62l-39 -35q-32 -25 -58 5z" />
    <glyph glyph-name="arrowup" unicode="&#x2191;" horiz-adv-x="1331" 
d="M123 1038q-25 32 4 58l516 450q22 17 45 0l516 -452q29 -26 4 -58l-34 -37q-31 -35 -62 -6l-371 334v-1274q0 -33 -14 -43t-45 -10h-29q-33 0 -48 10t-15 43v1274l-371 -334q-13 -12 -24 -13.5t-19 3.5t-18 16z" />
    <glyph glyph-name="arrowright" unicode="&#x2192;" horiz-adv-x="1824" 
d="M160 494v28q0 31 10 45.5t43 14.5h1274l-334 370q-29 31 6 62l39 35q31 24 57 -5l451 -516q17 -23 0 -45l-457 -503q-26 -29 -57 -5l-39 35q-35 31 -6 62l340 358h-1274q-33 0 -43 15.5t-10 48.5z" />
    <glyph glyph-name="arrowdown" unicode="&#x2193;" horiz-adv-x="1331" 
d="M123 510l35 37q10 11 18 16t19 3.5t24 -13.5l371 -334v1274q0 33 14 43t45 10h29q33 0 48 -10t15 -43v-1274l371 334q31 29 62 -6l34 -39q25 -32 -4 -57l-516 -451q-22 -17 -45 0l-516 453q-29 25 -4 57z" />
    <glyph glyph-name="minus" unicode="&#x2212;" horiz-adv-x="1091" 
d="M111 600v27q0 29 9 42t36 13h780q28 0 36.5 -12.5t8.5 -42.5v-27q0 -29 -9 -42t-36 -13h-780q-28 0 -36.5 12.5t-8.5 42.5z" />
    <glyph glyph-name="radical" unicode="&#x221a;" horiz-adv-x="1329" 
d="M61 831v37q0 24 9.5 35.5t38.5 11.5h237q44 0 57 -36l195 -510l78 -217h8q29 100 66 213l356 981q13 36 57 36h62q29 0 39 -8t4 -28l-488 -1303q-10 -24 -25 -33.5t-40 -9.5h-80q-48 0 -66 43l-293 741h-167q-29 0 -38.5 11t-9.5 36z" />
    <glyph glyph-name="infinity" unicode="&#x221e;" horiz-adv-x="1538" 
d="M137 496q0 137 90.5 209.5t225.5 72.5q58 0 113 -19.5t97 -52t68.5 -59.5t48.5 -55q20 27 47.5 54t69.5 58.5t98.5 51.5t116.5 20q136 0 225.5 -71t89.5 -209q0 -133 -90 -205t-225 -72q-178 0 -332 187q-14 -20 -32.5 -41t-50 -48.5t-66 -48t-82 -35t-96.5 -14.5
q-134 0 -225 72t-91 205zM274 500q0 -60 42 -105t120 -45q76 0 140 40t129 110q-129 144 -271 147q-78 0 -119 -43.5t-41 -103.5zM858 500q65 -71 128.5 -110.5t139.5 -39.5q78 0 120 45t42 105t-41 103.5t-119 43.5t-142 -39.5t-128 -107.5z" />
    <glyph glyph-name="approxequal" unicode="&#x2248;" horiz-adv-x="1318" 
d="M163 292q-2 19 7 34q44 66 114.5 104.5t145.5 38.5q51 0 119 -20.5t123 -45t120 -45t111 -20.5q50 0 91 24.5t83 77.5q25 32 49 13l45 -39q14 -12 17 -24.5t0.5 -20.5t-10.5 -23q-115 -156 -277 -156q-53 0 -116 19t-112 42.5t-110 42.5t-110 19q-112 0 -174 -88
q-12 -17 -28.5 -19.5t-29.5 11.5l-43 43q-13 13 -15 32zM163 630q-2 19 7 34q44 66 114.5 104.5t145.5 38.5q51 0 119 -20.5t123 -45t120 -45t111 -20.5q50 0 91 24.5t83 77.5q25 32 49 13l45 -39q14 -12 17 -24.5t0.5 -20.5t-10.5 -23q-115 -156 -277 -156q-53 0 -116 19
t-112 42.5t-110 42.5t-110 19q-112 0 -174 -88q-12 -17 -28.5 -19.5t-29.5 11.5l-43 43q-13 13 -15 32z" />
    <glyph glyph-name="notequal" unicode="&#x2260;" horiz-adv-x="1155" 
d="M141 446v21q0 29 9 42t36 13h273l94 195h-367q-28 0 -36.5 12.5t-8.5 42.5v21q0 29 9 42t36 13h430l107 217q9 21 20 29t33 8h58q45 0 26 -43l-104 -211h211q28 0 36.5 -12.5t8.5 -42.5v-21q0 -29 -9 -42t-36 -13h-275l-94 -195h369q28 0 36.5 -12.5t8.5 -42.5v-21
q0 -29 -9 -42t-36 -13h-432l-119 -246q-9 -21 -20 -28.5t-34 -7.5h-57q-45 0 -26 43l116 239h-209q-28 0 -36.5 12.5t-8.5 42.5z" />
    <glyph glyph-name="lessequal" unicode="&#x2264;" horiz-adv-x="1007" 
d="M143 672v86q0 43 52 65l589 244q58 21 58 -27v-51q0 -32 -8.5 -47.5t-28.5 -23.5l-397 -154l-127 -49l127 -49l397 -154q20 -8 28.5 -24t8.5 -48v-51q0 -48 -58 -27l-589 244q-52 22 -52 66zM158 238v26q0 29 9 42t36 13h594q28 0 36.5 -12.5t8.5 -42.5v-26
q0 -29 -9 -42.5t-36 -13.5h-594q-28 0 -36.5 13t-8.5 43z" />
    <glyph glyph-name="greaterequal" unicode="&#x2265;" horiz-adv-x="1007" 
d="M166 238v26q0 30 8.5 42.5t36.5 12.5h594q27 0 36 -13t9 -42v-26q0 -30 -8.5 -43t-36.5 -13h-594q-27 0 -36 13.5t-9 42.5zM166 389v51q0 32 8.5 48t28.5 24l397 154l127 49l-127 49l-397 154q-20 8 -28.5 23.5t-8.5 47.5v51q0 48 57 27l590 -244q51 -22 51 -65v-86
q0 -44 -51 -66l-590 -244q-57 -21 -57 27z" />
    <glyph glyph-name="uni25FC" unicode="&#x25fc;" horiz-adv-x="993" 
d="M0 0v993h993v-993h-993z" />
    <glyph glyph-name="asterisk.001" horiz-adv-x="950" 
d="M94 1374q11 31 43.5 44.5t63.5 -1.5l239 -123l-43 267q-5 36 16.5 60t61.5 24t60.5 -24t15.5 -60l-41 -267l240 123q31 15 63 1.5t43 -44.5q14 -35 -1.5 -68.5t-51.5 -39.5l-266 -43l188 -189q27 -31 20.5 -62.5t-36.5 -53.5q-29 -21 -63.5 -16t-51.5 38l-119 238
l-119 -238q-17 -33 -51 -38t-63 16q-30 22 -37 53.5t20 62.5l189 189l-267 43q-36 6 -51.5 39.5t-1.5 68.5z" />
    <glyph glyph-name="hyphen.alt" horiz-adv-x="940" 
d="M156 668v41q0 29 9 42t36 13h538q28 0 36.5 -12.5t8.5 -42.5v-41q0 -29 -9 -42.5t-36 -13.5h-538q-28 0 -36.5 13t-8.5 43z" />
    <glyph glyph-name="endash.alt" horiz-adv-x="1339" 
d="M154 670v41q0 29 8.5 41t36.5 12h940q28 0 36.5 -12t8.5 -41v-41q0 -29 -9 -41.5t-36 -12.5h-940q-27 0 -36 12.5t-9 41.5z" />
    <glyph glyph-name="emdash.alt" horiz-adv-x="1757" 
d="M158 672v37q0 29 8.5 41t36.5 12h1349q28 0 36.5 -12t8.5 -41v-37q0 -29 -9 -41.5t-36 -12.5h-1349q-27 0 -36 12.5t-9 41.5z" />
    <glyph glyph-name="guillemotleft.alt" horiz-adv-x="1011" 
d="M64 684.5q0 13.5 8 22.5l334 389q18 22 38 2l62 -54q21 -21 2 -43l-277 -317l277 -317q8 -9 7.5 -21.5t-9.5 -21.5l-62 -54q-7 -8 -19 -7.5t-19 9.5l-334 390q-8 9 -8 22.5zM472 688.5q0 13.5 7 22.5l293 340q7 9 19.5 9.5t19.5 -7.5l61 -54q21 -21 2 -43l-235 -268
l256 -291q8 -9 7.5 -21.5t-9.5 -21.5l-62 -53q-8 -8 -18.5 -8t-19.5 10l-314 363q-7 9 -7 22.5z" />
    <glyph glyph-name="guillemotright.alt" horiz-adv-x="1011" 
d="M109.5 375.5q-0.5 12.5 7.5 21.5l256 291l-236 268q-19 22 2 43l62 54q7 8 19.5 7.5t19.5 -9.5l292 -340q8 -9 8 -22.5t-8 -22.5l-313 -363q-9 -10 -20 -10t-19 8l-61 53q-9 9 -9.5 21.5zM496.5 345.5q-0.5 12.5 7.5 21.5l276 317l-276 317q-19 22 2 43l61 54
q20 20 39 -2l334 -389q8 -9 8 -22.5t-8 -22.5l-334 -390q-7 -9 -19.5 -9.5t-19.5 7.5l-61 54q-9 9 -9.5 21.5z" />
    <glyph glyph-name="zero.alt" 
d="M29 647q0 107 13.5 197.5t48 176t88.5 145.5t140 96t197 36q113 0 199.5 -39.5t138.5 -102.5t84.5 -153.5t44.5 -181t12 -196.5q0 -107 -13.5 -197.5t-48 -176.5t-88.5 -146t-140 -96t-197 -36q-113 0 -199.5 39.5t-138.5 102.5t-84.5 153.5t-44.5 181.5t-12 197z
M186 618q0 -499 326 -499q81 0 141 31t94.5 80t55.5 122.5t28 144t7 158.5q0 500 -326 500q-81 0 -141 -31t-94.5 -80.5t-55.5 -122.5t-28 -144t-7 -159z" />
    <glyph glyph-name="one.alt" 
d="M237.5 1014q0.5 14 20.5 28l285 220q26 20 61 20h35q33 0 47 -8.5t14 -36.5v-1192q0 -28 -13.5 -36.5t-45.5 -8.5h-35q-33 0 -47 8.5t-14 36.5v1038l-207 -149q-37 -25 -59 6l-27 39q-15 21 -14.5 35z" />
    <glyph glyph-name="two.alt" 
d="M113 88q0 90 34 165t88.5 127.5t120 99t131 91t120 92t88.5 113t34 144.5q0 103 -57 166t-185 63q-144 0 -303 -92q-11 -7 -22 4q-11 9 -20 29.5t-9 35.5q0 50 59.5 91t137.5 61t149 20q185 0 296.5 -93.5t117.5 -289.5q1 -70 -25 -137.5t-65 -117.5t-100 -104.5
t-110.5 -90t-117 -83t-100.5 -73.5q-82 -68 -96 -157h585q28 0 36.5 -13t8.5 -45v-35q0 -33 -8.5 -46t-36.5 -13h-700q-8 0 -15 1.5t-12 5.5t-8.5 7t-6 11t-4 11t-2.5 13t-1.5 12.5t-1 14t-0.5 12.5z" />
    <glyph glyph-name="three.alt" 
d="M111 145q0 25 9 45.5t25 20.5q7 0 27 -8q149 -80 303 -80q146 0 212.5 69.5t66.5 178.5q0 61 -20.5 107.5t-53.5 74t-82.5 45t-100.5 23.5t-114 6h-16q-37 0 -37 37v22q0 32 22 59l303 385h-471q-28 0 -36.5 13.5t-8.5 46.5v37q0 32 8.5 44.5t36.5 12.5h652
q28 0 36.5 -12.5t8.5 -44.5v-19q0 -22 -35 -65l-336 -406q102 0 180 -28t125.5 -78t71.5 -115t24 -143q0 -180 -114 -290t-336 -110q-44 0 -98.5 8.5t-113.5 27t-98.5 54t-39.5 82.5z" />
    <glyph glyph-name="four.alt" 
d="M31 352v41q0 61 45 123l489 715q36 51 113 51h88q37 0 52.5 -12t15.5 -45v-791h114q28 0 36.5 -11.5t8.5 -41.5v-33q0 -31 -8.5 -43t-36.5 -12h-114v-248q0 -27 -14 -36t-46 -9h-35q-33 0 -47 8.5t-14 36.5v248h-582q-65 0 -65 59zM186 434h492v717z" />
    <glyph glyph-name="five.alt" 
d="M115 160q0 36 20 59q11 11 23 4q172 -102 305 -102q127 0 208 72t81 223q0 115 -72 185.5t-197 70.5q-105 0 -233 -60q-27 -14 -45 -6l-33 15q-13 7 -18.5 10.5t-9.5 16t-1 32.5l62 547q4 36 12.5 46.5t32.5 10.5h594q28 0 36.5 -12.5t8.5 -44.5v-37q0 -33 -8.5 -46.5
t-36.5 -13.5h-506l-43 -376q109 53 219 53q97 0 174 -33t124.5 -89t72 -127t24.5 -150q0 -93 -25.5 -168.5t-68 -124t-100 -81.5t-118.5 -47t-128 -14q-44 0 -95.5 7.5t-114 25.5t-103.5 58t-41 96z" />
    <glyph glyph-name="six.alt" 
d="M76 512q0 141 30 260t83 203t122.5 147.5t153.5 101.5t170 56t176 18q16 0 25.5 -9.5t9.5 -22.5v-78q0 -12 -8.5 -21.5t-20.5 -9.5q-99 0 -191 -28.5t-171.5 -86t-136.5 -153t-78 -219.5h4q50 73 140.5 113t186.5 40q88 0 160 -34t118.5 -91t71.5 -131t25 -155
q0 -189 -119 -314t-317 -125q-203 0 -318.5 145t-115.5 394zM238 471q0 -168 73.5 -266.5t210.5 -98.5q128 0 199.5 82t71.5 220q-4 135 -71.5 207.5t-178.5 72.5q-93 0 -177.5 -59t-127.5 -158z" />
    <glyph glyph-name="seven.alt" 
d="M119 1190v35q0 32 8.5 44.5t36.5 12.5h694q28 0 36.5 -12.5t8.5 -44.5v-72q0 -28 -12 -55l-508 -1071q-13 -27 -41 -27h-113q-15 0 -20.5 10t0.5 23l534 1097h-579q-28 0 -36.5 13.5t-8.5 46.5z" />
    <glyph glyph-name="eight.alt" 
d="M84 305q0 117 69 210t199 155q-229 132 -229 319q0 130 108 218.5t293 88.5q167 -3 276 -90.5t109 -216.5q0 -208 -264 -323q139 -79 216 -169t77 -208q0 -101 -60 -174.5t-151 -107.5t-197 -34q-69 0 -132.5 11.5t-121 37.5t-100 64t-67.5 94t-25 125zM248 307
q0 -96 79 -149.5t185 -53.5q107 0 188.5 51.5t81.5 137.5q0 40 -16.5 76.5t-40.5 65t-67.5 60t-80.5 53.5t-96 54q-110 -51 -171.5 -128.5t-61.5 -166.5zM283 989q0 -45 20.5 -85.5t58.5 -73t76 -56t90 -49.5q116 58 172 120.5t56 139.5q0 82 -64.5 132t-173.5 50
q-57 0 -108 -16.5t-89 -58.5t-38 -103z" />
    <glyph glyph-name="nine.alt" 
d="M86 860q0 189 116 313.5t308 124.5q198 0 312 -145t114 -393q0 -168 -42.5 -304.5t-112.5 -224.5t-164.5 -147.5t-194 -85t-205.5 -25.5q-14 0 -23.5 10t-9.5 23v78q0 12 8.5 21.5t18.5 9.5q97 0 186 28.5t167 86t133 153t75 219.5h-4q-49 -73 -136.5 -113t-180.5 -40
q-114 0 -198.5 58.5t-125.5 150.5t-41 202zM240 864q4 -136 67.5 -208t171.5 -72q89 0 171 59t124 158q0 168 -71 266t-205 98q-124 0 -191 -81.5t-67 -219.5z" />
    <glyph glyph-name="dollar.alt" 
d="M106 911q3 152 93.5 240.5t230.5 110.5v131q0 28 14.5 36.5t49.5 8.5h16q34 0 48.5 -9t14.5 -36v-129q70 -6 130.5 -25t103.5 -54.5t43 -80.5q0 -38 -23 -64q-13 -13 -28 -6q-147 94 -289 94q-99 0 -173.5 -52t-74.5 -148q0 -53 36 -95t93.5 -71t127 -57t139.5 -62
t127.5 -76.5t93.5 -109.5t36 -152q0 -138 -96 -228t-246 -108v-141q0 -28 -14 -36.5t-49 -8.5h-16q-34 0 -49 9t-15 36v143q-54 7 -105 20t-100 35t-78.5 57t-29.5 77q0 47 35 65q12 7 22 0q175 -112 346 -112q60 0 110.5 16t88 60.5t37.5 111.5q0 50 -22 89.5t-60 67
t-86.5 50.5t-102.5 43.5t-108 42t-102.5 50.5t-86.5 64t-60 87t-22 116z" />
    <glyph glyph-name="Euro.alt" 
d="M-16 487l12 43q6 24 16.5 32.5t40.5 8.5h82v62q0 51 2 78h-108q-24 0 -37.5 11t-7.5 34l12 43q6 24 16.5 32.5t40.5 8.5h103q46 213 186.5 334.5t347.5 121.5q78 0 156 -15.5t136 -51t58 -82.5q-2 -21 -20 -49q-13 -18 -33 -11q-152 70 -297 70q-154 0 -252 -82
t-135 -235h510q58 0 45 -49l-12 -37q-9 -28 -20 -35.5t-40 -7.5h-503q-2 -27 -2 -78q0 -42 2 -62h452q58 0 45 -49l-12 -37q-9 -28 -19.5 -35.5t-39.5 -7.5h-412q65 -329 381 -329q138 0 301 94q22 9 31 -12l26 -48q11 -21 -6 -38q-55 -59 -160.5 -97.5t-197.5 -38.5
q-229 0 -359 120.5t-166 348.5h-118q-24 0 -37.5 11t-7.5 34z" />
    <glyph glyph-name="currency.alt" 
d="M27 260v27q0 27 9 39t36 12h94v131h-94q-28 0 -36.5 11.5t-8.5 39.5v27q0 27 9 39t36 12h94v631q0 26 13 34.5t42 8.5h307q106 0 188.5 -23.5t134.5 -61.5t85.5 -92.5t47 -111t13.5 -121.5q0 -172 -120 -282.5t-336 -110.5h-222v-131h379q28 0 36.5 -11.5t8.5 -39.5v-27
q0 -27 -9 -39t-36 -12h-379v-166q0 -26 -12.5 -34.5t-42.5 -8.5h-43q-29 0 -42 8.5t-13 34.5v166h-94q-28 0 -36.5 11.5t-8.5 39.5zM319 598h213q155 0 235 70.5t83 199.5q0 133 -80 206t-238 73h-213v-549z" />
    <glyph glyph-name="cent.alt" 
d="M88 469q0 215 107.5 342t302.5 152v133q0 26 11 34.5t38 8.5h47q26 0 37.5 -8.5t11.5 -34.5v-131q111 -9 195 -44.5t84 -95.5q0 -19 -19 -53q-12 -17 -33 -10q-112 51 -239 63v-716q114 9 203 67q1 0 4.5 2.5t5 3.5t6 3t6.5 2.5l6 1.5t7 1t6.5 -0.5t6.5 -2t6.5 -4.5
t6.5 -7l31 -39q25 -32 -11 -57q-116 -87 -272 -107v-155q0 -26 -11 -34.5t-38 -8.5h-47q-26 0 -37.5 8.5t-11.5 34.5v155q-198 22 -304 151.5t-106 344.5zM246 469q0 -149 69.5 -242.5t200.5 -115.5v712q-135 -20 -202.5 -111.5t-67.5 -242.5z" />
    </font>
</defs>
</svg>
